<svg id="SvgjsSvg1006" width="712" height="290" xmlns="http://www.w3.org/2000/svg" version="1.1" xmlns:xlink="http://www.w3.org/1999/xlink" xmlns:svgjs="http://svgjs.com/svgjs"><defs id="SvgjsDefs1007"><marker id="SvgjsMarker1044" markerWidth="16" markerHeight="12" refX="16" refY="6" viewBox="0 0 16 12" orient="auto" markerUnits="userSpaceOnUse" stroke-dasharray="0,0"><path id="SvgjsPath1045" d="M0,2 L14,6 L0,11 L0,2" fill="#323232" stroke="#323232" stroke-width="2"></path></marker><marker id="SvgjsMarker1048" markerWidth="16" markerHeight="12" refX="16" refY="6" viewBox="0 0 16 12" orient="auto" markerUnits="userSpaceOnUse" stroke-dasharray="0,0"><path id="SvgjsPath1049" d="M0,2 L14,6 L0,11 L0,2" fill="#323232" stroke="#323232" stroke-width="2"></path></marker></defs><g id="SvgjsG1008" transform="translate(25,25)"><path id="SvgjsPath1009" d="M 0 4Q 0 0 4 0L 176 0Q 180 0 180 4L 180 236Q 180 240 176 240L 4 240Q 0 240 0 236Z" stroke="rgba(50,50,50,1)" stroke-width="2" fill-opacity="1" fill="#00ffff"></path><g id="SvgjsG1010"><text id="SvgjsText1011" font-family="楷体" text-anchor="middle" font-size="34px" width="160px" fill="#323232" font-weight="400" align="middle" lineHeight="125%" anchor="middle" family="楷体" size="34px" weight="400" font-style="" opacity="1" y="92.75" transform="rotate(0)"><tspan id="SvgjsTspan1012" dy="42" x="90"><tspan id="SvgjsTspan1013" style="text-decoration:;">加载</tspan></tspan></text></g></g><g id="SvgjsG1014" transform="translate(266,25)"><path id="SvgjsPath1015" d="M 0 4Q 0 0 4 0L 176 0Q 180 0 180 4L 180 236Q 180 240 176 240L 4 240Q 0 240 0 236Z" stroke="rgba(50,50,50,1)" stroke-width="2" fill-opacity="1" fill="#33ff33"></path><g id="SvgjsG1016"><text id="SvgjsText1017" font-family="微软雅黑" text-anchor="middle" font-size="13px" width="160px" fill="#323232" font-weight="400" align="middle" lineHeight="125%" anchor="middle" family="微软雅黑" size="13px" weight="400" font-style="" opacity="1" y="110.375" transform="rotate(0)"></text></g></g><g id="SvgjsG1018" transform="translate(507,25)"><path id="SvgjsPath1019" d="M 0 4Q 0 0 4 0L 176 0Q 180 0 180 4L 180 236Q 180 240 176 240L 4 240Q 0 240 0 236Z" stroke="rgba(50,50,50,1)" stroke-width="2" fill-opacity="1" fill="#ff0000"></path><g id="SvgjsG1020"><text id="SvgjsText1021" font-family="楷体" text-anchor="middle" font-size="29px" width="160px" fill="#323232" font-weight="400" align="middle" lineHeight="125%" anchor="middle" family="楷体" size="29px" weight="400" font-style="" opacity="1" y="96.375" transform="rotate(0)"><tspan id="SvgjsTspan1022" dy="36" x="90"><tspan id="SvgjsTspan1023" style="text-decoration:;">初始化</tspan></tspan></text></g></g><g id="SvgjsG1024" transform="translate(266,25)"><path id="SvgjsPath1025" d="M 0 4Q 0 0 4 0L 176 0Q 180 0 180 4L 180 76.5Q 180 80.5 176 80.5L 4 80.5Q 0 80.5 0 76.5Z" stroke="rgba(50,50,50,1)" stroke-width="2" fill-opacity="1" fill="#33ff33"></path><g id="SvgjsG1026"><text id="SvgjsText1027" font-family="微软雅黑" text-anchor="middle" font-size="13px" width="160px" fill="#323232" font-weight="400" align="middle" lineHeight="125%" anchor="middle" family="微软雅黑" size="13px" weight="400" font-style="" opacity="1" y="30.625" transform="rotate(0)"><tspan id="SvgjsTspan1028" dy="16" x="90"><tspan id="SvgjsTspan1029" style="text-decoration:;">验证</tspan></tspan></text></g></g><g id="SvgjsG1030" transform="translate(266,104)"><path id="SvgjsPath1031" d="M 0 4Q 0 0 4 0L 176 0Q 180 0 180 4L 180 78Q 180 82 176 82L 4 82Q 0 82 0 78Z" stroke="rgba(50,50,50,1)" stroke-width="2" fill-opacity="1" fill="#33ff33"></path><g id="SvgjsG1032"><text id="SvgjsText1033" font-family="微软雅黑" text-anchor="middle" font-size="13px" width="160px" fill="#323232" font-weight="400" align="middle" lineHeight="125%" anchor="middle" family="微软雅黑" size="13px" weight="400" font-style="" opacity="1" y="31.375" transform="rotate(0)"><tspan id="SvgjsTspan1034" dy="16" x="90"><tspan id="SvgjsTspan1035" style="text-decoration:;">准备</tspan></tspan></text></g></g><g id="SvgjsG1036" transform="translate(266,186)"><path id="SvgjsPath1037" d="M 0 4Q 0 0 4 0L 176 0Q 180 0 180 4L 180 75Q 180 79 176 79L 4 79Q 0 79 0 75Z" stroke="rgba(50,50,50,1)" stroke-width="2" fill-opacity="1" fill="#33ff33"></path><g id="SvgjsG1038"><text id="SvgjsText1039" font-family="微软雅黑" text-anchor="middle" font-size="13px" width="160px" fill="#323232" font-weight="400" align="middle" lineHeight="125%" anchor="middle" family="微软雅黑" size="13px" weight="400" font-style="" opacity="1" y="29.875" transform="rotate(0)"><tspan id="SvgjsTspan1040" dy="16" x="90"><tspan id="SvgjsTspan1041" style="text-decoration:;">解析</tspan></tspan></text></g></g><g id="SvgjsG1042"><path id="SvgjsPath1043" d="M205 145L235.5 145L235.5 145L266 145" stroke="#323232" stroke-width="2" fill="none" marker-end="url(#SvgjsMarker1044)"></path></g><g id="SvgjsG1046"><path id="SvgjsPath1047" d="M446 145L476.5 145L476.5 145L507 145" stroke="#323232" stroke-width="2" fill="none" marker-end="url(#SvgjsMarker1048)"></path></g></svg>