<svg id="SvgjsSvg1484" width="719" height="669.0000152587891" xmlns="http://www.w3.org/2000/svg" version="1.1" xmlns:xlink="http://www.w3.org/1999/xlink" xmlns:svgjs="http://svgjs.com/svgjs"><defs id="SvgjsDefs1485"><marker id="SvgjsMarker1532" markerWidth="16" markerHeight="12" refX="16" refY="6" viewBox="0 0 16 12" orient="auto" markerUnits="userSpaceOnUse" stroke-dasharray="0,0"><path id="SvgjsPath1533" d="M0,2 L14,6 L0,11 L0,2" fill="#000000" stroke="#000000" stroke-width="10"></path></marker></defs><g id="SvgjsG1486" transform="translate(25,24.999996185302734)"><path id="SvgjsPath1487" d="M 0 14.222222222222221L 164.44444444444443 14.222222222222221L 164.44444444444443 128L 0 128L 0 14.222222222222221Z" stroke="rgba(50,50,50,1)" stroke-width="2" fill-opacity="1" fill="#e5e5e5"></path><path id="SvgjsPath1488" d="M 0 14.222222222222221L 20.555555555555554 0L 185 0L 185 113.77777777777777L 164.44444444444443 128L 164.44444444444443 14.222222222222221L 0 14.222222222222221ZM 164.44444444444443 14.222222222222221L 185 0" stroke="rgba(50,50,50,1)" stroke-width="2" fill-opacity="1" fill="#e6e6e6"></path><path id="SvgjsPath1489" d="M 0 0L 185 0L 185 128L 0 128Z" stroke="none" fill="none"></path><g id="SvgjsG1490"><text id="SvgjsText1491" font-family="&quot;Lucida Console&quot;" text-anchor="middle" font-size="16px" width="145px" fill="#323232" font-weight="400" align="middle" lineHeight="125%" anchor="middle" family="&quot;Lucida Console&quot;" size="16px" weight="400" font-style="" opacity="1" y="59.11111111111111" transform="rotate(0)"><tspan id="SvgjsTspan1492" dy="20" x="82.5"><tspan id="SvgjsTspan1493" style="text-decoration:;">Filed</tspan></tspan></text></g></g><g id="SvgjsG1494" transform="translate(267,24.999996185302734)"><path id="SvgjsPath1495" d="M 0 14.222222222222221L 164.44444444444443 14.222222222222221L 164.44444444444443 128L 0 128L 0 14.222222222222221Z" stroke="rgba(50,50,50,1)" stroke-width="2" fill-opacity="1" fill="#e5e5e5"></path><path id="SvgjsPath1496" d="M 0 14.222222222222221L 20.555555555555554 0L 185 0L 185 113.77777777777777L 164.44444444444443 128L 164.44444444444443 14.222222222222221L 0 14.222222222222221ZM 164.44444444444443 14.222222222222221L 185 0" stroke="rgba(50,50,50,1)" stroke-width="2" fill-opacity="1" fill="#e6e6e6"></path><path id="SvgjsPath1497" d="M 0 0L 185 0L 185 128L 0 128Z" stroke="none" fill="none"></path><g id="SvgjsG1498"><text id="SvgjsText1499" font-family="&quot;Lucida Console&quot;" text-anchor="middle" font-size="16px" width="145px" fill="#323232" font-weight="400" align="middle" lineHeight="125%" anchor="middle" family="&quot;Lucida Console&quot;" size="16px" weight="400" font-style="" opacity="1" y="59.11111111111111" transform="rotate(0)"><tspan id="SvgjsTspan1500" dy="20" x="82.5"><tspan id="SvgjsTspan1501" style="text-decoration:;">Method</tspan></tspan></text></g></g><g id="SvgjsG1502" transform="translate(509,24.999996185302734)"><path id="SvgjsPath1503" d="M 0 14.222222222222221L 164.44444444444443 14.222222222222221L 164.44444444444443 128L 0 128L 0 14.222222222222221Z" stroke="rgba(50,50,50,1)" stroke-width="2" fill-opacity="1" fill="#e5e5e5"></path><path id="SvgjsPath1504" d="M 0 14.222222222222221L 20.555555555555554 0L 185 0L 185 113.77777777777777L 164.44444444444443 128L 164.44444444444443 14.222222222222221L 0 14.222222222222221ZM 164.44444444444443 14.222222222222221L 185 0" stroke="rgba(50,50,50,1)" stroke-width="2" fill-opacity="1" fill="#e6e6e6"></path><path id="SvgjsPath1505" d="M 0 0L 185 0L 185 128L 0 128Z" stroke="none" fill="none"></path><g id="SvgjsG1506"><text id="SvgjsText1507" font-family="&quot;Lucida Console&quot;" text-anchor="middle" font-size="16px" width="145px" fill="#323232" font-weight="400" align="middle" lineHeight="125%" anchor="middle" family="&quot;Lucida Console&quot;" size="16px" weight="400" font-style="" opacity="1" y="59.11111111111111" transform="rotate(0)"><tspan id="SvgjsTspan1508" dy="20" x="82.5"><tspan id="SvgjsTspan1509" style="text-decoration:;">Constructor</tspan></tspan></text></g></g><g id="SvgjsG1510" transform="translate(131.25,253.99999618530273)"><path id="SvgjsPath1511" d="M 0 18Q 0 0 18 0L 438.5 0Q 456.5 0 456.5 18L 456.5 91.66666603088379Q 456.5 109.66666603088379 438.5 109.66666603088379L 18 109.66666603088379Q 0 109.66666603088379 0 91.66666603088379L 0 18Z" stroke="rgba(50,50,50,1)" stroke-width="2" fill-opacity="1" fill="#ff6666"></path><g id="SvgjsG1512"><text id="SvgjsText1513" font-family="&quot;Lucida Console&quot;" text-anchor="middle" font-size="17px" width="437px" fill="#323232" font-weight="400" align="middle" lineHeight="125%" anchor="middle" family="&quot;Lucida Console&quot;" size="17px" weight="400" font-style="" opacity="1" y="42.208333015441895" transform="rotate(0)"><tspan id="SvgjsTspan1514" dy="21" x="228.5"><tspan id="SvgjsTspan1515" style="text-decoration:;">ReflectUtil.printClassInfo(className)</tspan></tspan></text></g></g><g id="SvgjsG1516" transform="translate(189.5,444.99999618530273)"><path id="SvgjsPath1517" d="M 0 173.83333277702332L 0 0L 340 0L 340 173.83333277702332Q 255 124.16666626930237 170 173.83333277702332Q 85 223.49999928474426 0 173.83333277702332Z" stroke="rgba(50,50,50,1)" stroke-width="2" fill-opacity="1" fill="#ccffff"></path><g id="SvgjsG1518"><text id="SvgjsText1519" font-family="&quot;Lucida Console&quot;" text-anchor="middle" font-size="17px" width="340px" fill="#323232" font-weight="400" align="middle" lineHeight="125%" anchor="middle" family="&quot;Lucida Console&quot;" size="17px" weight="400" font-style="" opacity="1" y="66.77499971389771" transform="rotate(0)"><tspan id="SvgjsTspan1520" dy="21" x="170"><tspan id="SvgjsTspan1521" style="text-decoration:;">className</tspan></tspan><tspan id="SvgjsTspan1522" dy="21" x="170"><tspan id="SvgjsTspan1523" style="text-decoration:;">（打印输出：全部域名、方法名、构造器名）</tspan></tspan></text></g></g><g id="SvgjsG1524"><path id="SvgjsPath1525" d="M359.5 253.99999618530273L359.5 203.49999618530273L117.5 203.49999618530273L117.5 152.99999618530273" stroke="#323232" stroke-width="10" fill="none"></path></g><g id="SvgjsG1526"><path id="SvgjsPath1527" d="M359.5 253.99999618530273L359.5 203.49999618530273L601.5 203.49999618530273L601.5 152.99999618530273" stroke="#323232" stroke-width="10" fill="none"></path></g><g id="SvgjsG1528"><path id="SvgjsPath1529" d="M359.5 253.99999618530273L359.5 203.49999618530273L359.5 203.49999618530273L359.5 152.99999618530273" stroke="#323232" stroke-width="10" fill="none"></path></g><g id="SvgjsG1530"><path id="SvgjsPath1531" d="M359.5 363.6666622161865L359.5 404.33332920074463L359.5 404.33332920074463L359.5 444.99999618530273" stroke="#000000" stroke-width="10" fill="none" marker-end="url(#SvgjsMarker1532)"></path></g></svg>