<svg id="SvgjsSvg1006" width="1304" height="794.5104064941406" xmlns="http://www.w3.org/2000/svg" version="1.1" xmlns:xlink="http://www.w3.org/1999/xlink" xmlns:svgjs="http://svgjs.com/svgjs"><defs id="SvgjsDefs1007"><marker id="SvgjsMarker1032" markerWidth="16" markerHeight="12" refX="16" refY="6" viewBox="0 0 16 12" orient="auto" markerUnits="userSpaceOnUse" stroke-dasharray="0,0"><path id="SvgjsPath1033" d="M0,2 L14,6 L0,11 L0,2" fill="#323232" stroke="#323232" stroke-width="2"></path></marker><marker id="SvgjsMarker1036" markerWidth="16" markerHeight="12" refX="16" refY="6" viewBox="0 0 16 12" orient="auto" markerUnits="userSpaceOnUse" stroke-dasharray="0,0"><path id="SvgjsPath1037" d="M0,2 L14,6 L0,11 L0,2" fill="#323232" stroke="#323232" stroke-width="2"></path></marker><marker id="SvgjsMarker1082" markerWidth="14" markerHeight="12" refX="16" refY="6" viewBox="0 0 14 12" orient="auto" markerUnits="userSpaceOnUse" stroke-dasharray="0,0"><path id="SvgjsPath1083" d="M1,1 L14,6 L1,11L1,1" fill="#ffffff" stroke="#323232" stroke-width="2"></path></marker><marker id="SvgjsMarker1086" markerWidth="16" markerHeight="12" refX="16" refY="6" viewBox="0 0 16 12" orient="auto" markerUnits="userSpaceOnUse" stroke-dasharray="0,0"><path id="SvgjsPath1087" d="M0,2 L14,6 L0,11 L0,2" fill="#323232" stroke="#323232" stroke-width="2"></path></marker><marker id="SvgjsMarker1090" markerWidth="14" markerHeight="12" refX="16" refY="6" viewBox="0 0 14 12" orient="auto" markerUnits="userSpaceOnUse" stroke-dasharray="0,0"><path id="SvgjsPath1091" d="M1,1 L14,6 L1,11L1,1" fill="#ffffff" stroke="#323232" stroke-width="2"></path></marker><marker id="SvgjsMarker1094" markerWidth="16" markerHeight="12" refX="16" refY="6" viewBox="0 0 16 12" orient="auto" markerUnits="userSpaceOnUse" stroke-dasharray="0,0"><path id="SvgjsPath1095" d="M0,2 L14,6 L0,11 L0,2" fill="#323232" stroke="#323232" stroke-width="2"></path></marker><marker id="SvgjsMarker1104" markerWidth="16" markerHeight="12" refX="16" refY="6" viewBox="0 0 16 12" orient="auto" markerUnits="userSpaceOnUse" stroke-dasharray="0,0"><path id="SvgjsPath1105" d="M0,2 L14,6 L0,11 L0,2" fill="#323232" stroke="#323232" stroke-width="2"></path></marker><marker id="SvgjsMarker1114" markerWidth="14" markerHeight="12" refX="16" refY="6" viewBox="0 0 14 12" orient="auto" markerUnits="userSpaceOnUse" stroke-dasharray="0,0"><path id="SvgjsPath1115" d="M1,1 L14,6 L1,11L1,1" fill="#ffffff" stroke="#323232" stroke-width="2"></path></marker><marker id="SvgjsMarker1118" markerWidth="16" markerHeight="12" refX="16" refY="6" viewBox="0 0 16 12" orient="auto" markerUnits="userSpaceOnUse" stroke-dasharray="0,0"><path id="SvgjsPath1119" d="M0,2 L14,6 L0,11 L0,2" fill="#323232" stroke="#323232" stroke-width="2"></path></marker><marker id="SvgjsMarker1122" markerWidth="16" markerHeight="12" refX="16" refY="6" viewBox="0 0 16 12" orient="auto" markerUnits="userSpaceOnUse" stroke-dasharray="0,0"><path id="SvgjsPath1123" d="M0,2 L14,6 L0,11 L0,2" fill="#323232" stroke="#323232" stroke-width="2"></path></marker><marker id="SvgjsMarker1138" markerWidth="16" markerHeight="12" refX="16" refY="6" viewBox="0 0 16 12" orient="auto" markerUnits="userSpaceOnUse" stroke-dasharray="0,0"><path id="SvgjsPath1139" d="M0,2 L14,6 L0,11 L0,2" fill="#323232" stroke="#323232" stroke-width="2"></path></marker><marker id="SvgjsMarker1148" markerWidth="16" markerHeight="12" refX="16" refY="6" viewBox="0 0 16 12" orient="auto" markerUnits="userSpaceOnUse" stroke-dasharray="0,0"><path id="SvgjsPath1149" d="M0,2 L14,6 L0,11 L0,2" fill="#323232" stroke="#323232" stroke-width="2"></path></marker></defs><g id="SvgjsG1008" transform="translate(314,25.010406494140625)"><path id="SvgjsPath1009" d="M 0 0L 965.3333339691162 0L 965.3333339691162 212L 0 212Z" stroke-dasharray="10,6" stroke="rgba(50,50,50,1)" stroke-width="2" fill-opacity="1" fill="#a1a1a1"></path><g id="SvgjsG1010"><text id="SvgjsText1011" font-family="&quot;Lucida Console&quot;" text-anchor="middle" font-size="13px" width="946px" fill="#323232" font-weight="400" align="middle" lineHeight="125%" anchor="middle" family="&quot;Lucida Console&quot;" size="13px" weight="400" font-style="" opacity="1" y="96.375" transform="rotate(0)"></text></g></g><g id="SvgjsG1012" transform="translate(314,269.34375)"><path id="SvgjsPath1013" d="M 0 0L 965.3333339691162 0L 965.3333339691162 370.3333282470703L 0 370.3333282470703Z" stroke-dasharray="10,6" stroke="rgba(50,50,50,1)" stroke-width="2" fill-opacity="1" fill="#a1a1a1"></path><g id="SvgjsG1014"><text id="SvgjsText1015" font-family="&quot;Lucida Console&quot;" text-anchor="middle" font-size="13px" width="946px" fill="#323232" font-weight="400" align="middle" lineHeight="125%" anchor="middle" family="&quot;Lucida Console&quot;" size="13px" weight="400" font-style="" opacity="1" y="175.54166412353516" transform="rotate(0)"></text></g></g><g id="SvgjsG1016" transform="translate(25,109.01041412353516)"><path id="SvgjsPath1017" d="M 0 4Q 0 0 4 0L 189 0Q 193 0 193 4L 193 63Q 193 67 189 67L 4 67Q 0 67 0 63Z" stroke="rgba(50,50,50,1)" stroke-width="2" fill-opacity="1" fill="#e5e5e5"></path><g id="SvgjsG1018"><text id="SvgjsText1019" font-family="&quot;Lucida Console&quot;" text-anchor="middle" font-size="13px" width="173px" fill="#323232" font-weight="400" align="middle" lineHeight="125%" anchor="middle" family="&quot;Lucida Console&quot;" size="13px" weight="400" font-style="" opacity="1" y="15.875" transform="rotate(0)"><tspan id="SvgjsTspan1020" dy="16" x="96.5"><tspan id="SvgjsTspan1021" style="text-decoration:;">Username</tspan></tspan><tspan id="SvgjsTspan1022" dy="16" x="96.5"><tspan id="SvgjsTspan1023" style="text-decoration:;">Password</tspan></tspan></text></g></g><g id="SvgjsG1024" transform="translate(433,109.01041412353516)"><path id="SvgjsPath1025" d="M 0 4Q 0 0 4 0L 172 0Q 176 0 176 4L 176 63Q 176 67 172 67L 4 67Q 0 67 0 63Z" stroke="rgba(50,50,50,1)" stroke-width="2" fill-opacity="1" fill="#ffffff"></path><g id="SvgjsG1026"><text id="SvgjsText1027" font-family="&quot;Lucida Console&quot;" text-anchor="middle" font-size="13px" width="156px" fill="#323232" font-weight="400" align="middle" lineHeight="125%" anchor="middle" family="&quot;Lucida Console&quot;" size="13px" weight="400" font-style="" opacity="1" y="23.875" transform="rotate(0)"><tspan id="SvgjsTspan1028" dy="16" x="88"><tspan id="SvgjsTspan1029" style="text-decoration:;">Authentication</tspan></tspan></text></g></g><g id="SvgjsG1030"><path id="SvgjsPath1031" d="M218 142.51041412353516L325.5 142.51041412353516L325.5 142.51041412353516L433 142.51041412353516" stroke="#323232" stroke-width="2" fill="none" marker-end="url(#SvgjsMarker1032)"></path></g><g id="SvgjsG1034"><path id="SvgjsPath1035" d="M521 176.01041412353516L521 236.51041412353516L521 236.51041412353516L521 297.01041412353516" stroke="#323232" stroke-width="2" fill="none" marker-end="url(#SvgjsMarker1036)"></path></g><g id="SvgjsG1038" transform="translate(388,297.01041412353516)"><path id="SvgjsPath1039" d="M 0 4Q 0 0 4 0L 262 0Q 266 0 266 4L 266 61Q 266 65 262 65L 4 65Q 0 65 0 61Z" stroke="rgba(50,50,50,1)" stroke-width="2" fill-opacity="1" fill="#ffffff"></path><g id="SvgjsG1040"><text id="SvgjsText1041" font-family="&quot;Lucida Console&quot;" text-anchor="middle" font-size="13px" width="246px" fill="#323232" font-weight="400" align="middle" lineHeight="125%" anchor="middle" family="&quot;Lucida Console&quot;" size="13px" weight="400" font-style="" opacity="1" y="22.875" transform="rotate(0)"><tspan id="SvgjsTspan1042" dy="16" x="133"><tspan id="SvgjsTspan1043" style="text-decoration:;">AuthenticationManager</tspan></tspan></text></g></g><g id="SvgjsG1044" transform="translate(685,107.51041412353516)"><path id="SvgjsPath1045" d="M 0 4Q 0 0 4 0L 298 0Q 302 0 302 4L 302 66Q 302 70 298 70L 4 70Q 0 70 0 66Z" stroke="rgba(50,50,50,1)" stroke-width="2" fill-opacity="1" fill="#ffffff"></path><g id="SvgjsG1046"><text id="SvgjsText1047" font-family="&quot;Lucida Console&quot;" text-anchor="middle" font-size="13px" width="282px" fill="#323232" font-weight="400" align="middle" lineHeight="125%" anchor="middle" family="&quot;Lucida Console&quot;" size="13px" weight="400" font-style="" opacity="1" y="25.375" transform="rotate(0)"><tspan id="SvgjsTspan1048" dy="16" x="151"><tspan id="SvgjsTspan1049" style="text-decoration:;">UsernamePasswordAuthenticationToken</tspan></tspan></text></g></g><g id="SvgjsG1050" transform="translate(722.5,292.01041412353516)"><path id="SvgjsPath1051" d="M 0 4Q 0 0 4 0L 210 0Q 214 0 214 4L 214 66Q 214 70 210 70L 4 70Q 0 70 0 66Z" stroke="rgba(50,50,50,1)" stroke-width="2" fill-opacity="1" fill="#ffffff"></path><g id="SvgjsG1052"><text id="SvgjsText1053" font-family="&quot;Lucida Console&quot;" text-anchor="middle" font-size="13px" width="194px" fill="#323232" font-weight="400" align="middle" lineHeight="125%" anchor="middle" family="&quot;Lucida Console&quot;" size="13px" weight="400" font-style="" opacity="1" y="25.375" transform="rotate(0)"><tspan id="SvgjsTspan1054" dy="16" x="107"><tspan id="SvgjsTspan1055" style="text-decoration:;">AuthenticationProvider</tspan></tspan></text></g></g><g id="SvgjsG1056" transform="translate(398,702.0104141235352)"><path id="SvgjsPath1057" d="M 0 4Q 0 0 4 0L 262 0Q 266 0 266 4L 266 61Q 266 65 262 65L 4 65Q 0 65 0 61Z" stroke="rgba(50,50,50,1)" stroke-width="2" fill-opacity="1" fill="#ffffff"></path><g id="SvgjsG1058"><text id="SvgjsText1059" font-family="&quot;Lucida Console&quot;" text-anchor="middle" font-size="13px" width="246px" fill="#323232" font-weight="400" align="middle" lineHeight="125%" anchor="middle" family="&quot;Lucida Console&quot;" size="13px" weight="400" font-style="" opacity="1" y="22.875" transform="rotate(0)"><tspan id="SvgjsTspan1060" dy="16" x="133"><tspan id="SvgjsTspan1061" style="text-decoration:;">SecurityContextHolder</tspan></tspan></text></g></g><g id="SvgjsG1062" transform="translate(60,699.5104141235352)"><path id="SvgjsPath1063" d="M 0 4Q 0 0 4 0L 154 0Q 158 0 158 4L 158 66Q 158 70 154 70L 4 70Q 0 70 0 66Z" stroke="rgba(50,50,50,1)" stroke-width="2" fill-opacity="1" fill="#cfcfcf"></path><g id="SvgjsG1064"><text id="SvgjsText1065" font-family="&quot;Lucida Console&quot;" text-anchor="middle" font-size="13px" width="138px" fill="#323232" font-weight="400" align="middle" lineHeight="125%" anchor="middle" family="&quot;Lucida Console&quot;" size="13px" weight="400" font-style="" opacity="1" y="25.375" transform="rotate(0)"><tspan id="SvgjsTspan1066" dy="16" x="79"><tspan id="SvgjsTspan1067" style="text-decoration:;">SecurityContext</tspan></tspan></text></g></g><g id="SvgjsG1068" transform="translate(1032,292.01041412353516)"><path id="SvgjsPath1069" d="M 0 4Q 0 0 4 0L 224 0Q 228 0 228 4L 228 66Q 228 70 224 70L 4 70Q 0 70 0 66Z" stroke="rgba(50,50,50,1)" stroke-width="2" fill-opacity="1" fill="#ffffff"></path><g id="SvgjsG1070"><text id="SvgjsText1071" font-family="&quot;Lucida Console&quot;" text-anchor="middle" font-size="13px" width="208px" fill="#323232" font-weight="400" align="middle" lineHeight="125%" anchor="middle" family="&quot;Lucida Console&quot;" size="13px" weight="400" font-style="" opacity="1" y="25.375" transform="rotate(0)"><tspan id="SvgjsTspan1072" dy="16" x="114"><tspan id="SvgjsTspan1073" style="text-decoration:;">DaoAuthenticationProvider</tspan></tspan></text></g></g><g id="SvgjsG1074" transform="translate(414,419.51041412353516)"><path id="SvgjsPath1075" d="M 0 4Q 0 0 4 0L 210 0Q 214 0 214 4L 214 66Q 214 70 210 70L 4 70Q 0 70 0 66Z" stroke="rgba(50,50,50,1)" stroke-width="2" fill-opacity="1" fill="#ffffff"></path><g id="SvgjsG1076"><text id="SvgjsText1077" font-family="&quot;Lucida Console&quot;" text-anchor="middle" font-size="13px" width="194px" fill="#323232" font-weight="400" align="middle" lineHeight="125%" anchor="middle" family="&quot;Lucida Console&quot;" size="13px" weight="400" font-style="" opacity="1" y="25.375" transform="rotate(0)"><tspan id="SvgjsTspan1078" dy="16" x="107"><tspan id="SvgjsTspan1079" style="text-decoration:;">ProviderManager</tspan></tspan></text></g></g><g id="SvgjsG1080"><path id="SvgjsPath1081" d="M521 419.51041412353516L521 390.76041412353516L521 390.76041412353516L521 362.01041412353516" stroke="#323232" stroke-width="2" fill="none" marker-end="url(#SvgjsMarker1082)"></path></g><g id="SvgjsG1084"><path id="SvgjsPath1085" d="M628 454.51041412353516L829.5 454.51041412353516L829.5 362.01041412353516" stroke="#323232" stroke-width="2" fill="none" marker-end="url(#SvgjsMarker1086)"></path></g><g id="SvgjsG1088"><path id="SvgjsPath1089" d="M1032 327.01041412353516L984.25 327.01041412353516L984.25 327.01041412353516L936.5 327.01041412353516" stroke="#323232" stroke-width="2" fill="none" marker-end="url(#SvgjsMarker1090)"></path></g><g id="SvgjsG1092"><path id="SvgjsPath1093" d="M1146 362.01041412353516L1146 389.26041412353516L1146 389.26041412353516L1146 416.51041412353516" stroke="#323232" stroke-width="2" fill="none" marker-end="url(#SvgjsMarker1094)"></path></g><g id="SvgjsG1096" transform="translate(1045.75,416.51041412353516)"><path id="SvgjsPath1097" d="M 0 4Q 0 0 4 0L 196.5 0Q 200.5 0 200.5 4L 200.5 72Q 200.5 76 196.5 76L 4 76Q 0 76 0 72Z" stroke="rgba(50,50,50,1)" stroke-width="2" fill-opacity="1" fill="#ffffff"></path><g id="SvgjsG1098"><text id="SvgjsText1099" font-family="&quot;Lucida Console&quot;" text-anchor="middle" font-size="13px" width="181px" fill="#323232" font-weight="400" align="middle" lineHeight="125%" anchor="middle" family="&quot;Lucida Console&quot;" size="13px" weight="400" font-style="" opacity="1" y="28.375" transform="rotate(0)"><tspan id="SvgjsTspan1100" dy="16" x="100.5"><tspan id="SvgjsTspan1101" style="text-decoration:;">UserDetailsService</tspan></tspan></text></g></g><g id="SvgjsG1102"><path id="SvgjsPath1103" d="M1146 492.51041412353516L1146 573.0104160308838L1058.5 573.0104160308838" stroke="#323232" stroke-width="2" fill="none" marker-end="url(#SvgjsMarker1104)"></path></g><g id="SvgjsG1106" transform="translate(943,538.0104141235352)"><path id="SvgjsPath1107" d="M 0 4Q 0 0 4 0L 111.5 0Q 115.5 0 115.5 4L 115.5 66.00000381469727Q 115.5 70.00000381469727 111.5 70.00000381469727L 4 70.00000381469727Q 0 70.00000381469727 0 66.00000381469727Z" stroke="rgba(50,50,50,1)" stroke-width="2" fill-opacity="1" fill="#ffffff"></path><g id="SvgjsG1108"><text id="SvgjsText1109" font-family="&quot;Lucida Console&quot;" text-anchor="middle" font-size="13px" width="96px" fill="#323232" font-weight="400" align="middle" lineHeight="125%" anchor="middle" family="&quot;Lucida Console&quot;" size="13px" weight="400" font-style="" opacity="1" y="25.375001907348633" transform="rotate(0)"><tspan id="SvgjsTspan1110" dy="16" x="58"><tspan id="SvgjsTspan1111" style="text-decoration:;">UserDetails</tspan></tspan></text></g></g><g id="SvgjsG1112"><path id="SvgjsPath1113" d="M685 142.51041412353516L647 142.51041412353516L647 142.51041412353516L609 142.51041412353516" stroke="#323232" stroke-width="2" fill="none" marker-end="url(#SvgjsMarker1114)"></path></g><g id="SvgjsG1116"><path id="SvgjsPath1117" d="M836 107.51041412353516L836 77.51041412353516L521 77.51041412353516L521 109.01041412353516" stroke="#323232" stroke-width="2" fill="none" marker-end="url(#SvgjsMarker1118)"></path></g><g id="SvgjsG1120"><path id="SvgjsPath1121" d="M398 734.5104141235352L308 734.5104141235352L308 734.5104141235352L218 734.5104141235352" stroke="#323232" stroke-width="2" fill="none" marker-end="url(#SvgjsMarker1122)"></path></g><g id="SvgjsG1124" transform="translate(1014.333333492279,112.67707824707031)"><path id="SvgjsPath1125" d="M 0 0L 237 0L 237 69L 0 69Z" stroke="none" fill="none"></path><g id="SvgjsG1126"><text id="SvgjsText1127" font-family="&quot;Lucida Console&quot;" text-anchor="middle" font-size="18px" width="237px" fill="#323232" font-weight="700" align="middle" lineHeight="125%" anchor="middle" family="&quot;Lucida Console&quot;" size="18px" weight="700" font-style="" opacity="1" y="21.25" transform="rotate(0)"><tspan id="SvgjsTspan1128" dy="22" x="118.5"><tspan id="SvgjsTspan1129" style="text-decoration:;">封装</tspan></tspan></text></g></g><g id="SvgjsG1130" transform="translate(394.33333349227905,543.34375)"><path id="SvgjsPath1131" d="M 0 0L 237 0L 237 69L 0 69Z" stroke="none" fill="none"></path><g id="SvgjsG1132"><text id="SvgjsText1133" font-family="&quot;Lucida Console&quot;" text-anchor="middle" font-size="18px" width="237px" fill="#323232" font-weight="700" align="middle" lineHeight="125%" anchor="middle" family="&quot;Lucida Console&quot;" size="18px" weight="700" font-style="" opacity="1" y="21.25" transform="rotate(0)"><tspan id="SvgjsTspan1134" dy="22" x="118.5"><tspan id="SvgjsTspan1135" style="text-decoration:;">认证</tspan></tspan></text></g></g><g id="SvgjsG1136"><path id="SvgjsPath1137" d="M943 573.0104160308838L892 573.0104160308838L892 573.0104160308838L841 573.0104160308838" stroke="#323232" stroke-width="2" fill="none" marker-end="url(#SvgjsMarker1138)"></path></g><g id="SvgjsG1140" transform="translate(694,538.0104160308838)"><path id="SvgjsPath1141" d="M 0 4Q 0 0 4 0L 143 0Q 147 0 147 4L 147 66Q 147 70 143 70L 4 70Q 0 70 0 66Z" stroke="rgba(50,50,50,1)" stroke-width="2" fill-opacity="1" fill="#ffffff"></path><g id="SvgjsG1142"><text id="SvgjsText1143" font-family="&quot;Lucida Console&quot;" text-anchor="middle" font-size="13px" width="127px" fill="#323232" font-weight="400" align="middle" lineHeight="125%" anchor="middle" family="&quot;Lucida Console&quot;" size="13px" weight="400" font-style="" opacity="1" y="25.375" transform="rotate(0)"><tspan id="SvgjsTspan1144" dy="16" x="73.5"><tspan id="SvgjsTspan1145" style="text-decoration:;">GrantedAuthority</tspan></tspan></text></g></g><g id="SvgjsG1146"><path id="SvgjsPath1147" d="M767.5 608.0104160308838L767.5 734.5104141235352L664 734.5104141235352" stroke="#323232" stroke-width="2" fill="none" marker-end="url(#SvgjsMarker1148)"></path></g></svg>