<svg id="SvgjsSvg1362" width="704" height="472" xmlns="http://www.w3.org/2000/svg" version="1.1" xmlns:xlink="http://www.w3.org/1999/xlink" xmlns:svgjs="http://svgjs.com/svgjs"><defs id="SvgjsDefs1363"><marker id="SvgjsMarker1474" markerWidth="16" markerHeight="12" refX="16" refY="6" viewBox="0 0 16 12" orient="auto" markerUnits="userSpaceOnUse" stroke-dasharray="0,0"><path id="SvgjsPath1475" d="M0,2 L14,6 L0,11 L0,2" fill="#323232" stroke="#323232" stroke-width="2"></path></marker><marker id="SvgjsMarker1478" markerWidth="16" markerHeight="12" refX="16" refY="6" viewBox="0 0 16 12" orient="auto" markerUnits="userSpaceOnUse" stroke-dasharray="0,0"><path id="SvgjsPath1479" d="M0,2 L14,6 L0,11 L0,2" fill="#323232" stroke="#323232" stroke-width="2"></path></marker><marker id="SvgjsMarker1482" markerWidth="16" markerHeight="12" refX="16" refY="6" viewBox="0 0 16 12" orient="auto" markerUnits="userSpaceOnUse" stroke-dasharray="0,0"><path id="SvgjsPath1483" d="M0,2 L14,6 L0,11 L0,2" fill="#323232" stroke="#323232" stroke-width="2"></path></marker></defs><g id="SvgjsG1364" transform="translate(215,25)"><path id="SvgjsPath1365" d="M 0 7L 218.66666666666666 7L 218.66666666666666 63L 0 63L 0 7Z" stroke="rgba(50,50,50,1)" stroke-width="2" fill-opacity="1" fill="#6666ff"></path><path id="SvgjsPath1366" d="M 0 7L 27.333333333333332 0L 246 0L 246 56L 218.66666666666666 63L 218.66666666666666 7L 0 7ZM 218.66666666666666 7L 246 0" stroke="rgba(50,50,50,1)" stroke-width="2" fill-opacity="1" fill="#e6e6e6"></path><path id="SvgjsPath1367" d="M 0 0L 246 0L 246 63L 0 63Z" stroke="none" fill="none"></path><g id="SvgjsG1368"><text id="SvgjsText1369" font-family="&quot;Lucida Console&quot;" text-anchor="middle" font-size="17px" width="199px" fill="#323232" font-weight="400" align="middle" lineHeight="125%" anchor="middle" family="&quot;Lucida Console&quot;" size="17px" weight="400" font-style="" opacity="1" y="12.375" transform="rotate(0)"><tspan id="SvgjsTspan1370" dy="21" x="109.5"><tspan id="SvgjsTspan1371" style="text-decoration:;">Bootstrap </tspan></tspan><tspan id="SvgjsTspan1372" dy="21" x="109.5"><tspan id="SvgjsTspan1373" style="text-decoration:;">classloader</tspan></tspan></text></g></g><g id="SvgjsG1374" transform="translate(215,146)"><path id="SvgjsPath1375" d="M 0 7L 218.66666666666666 7L 218.66666666666666 63L 0 63L 0 7Z" stroke="rgba(50,50,50,1)" stroke-width="2" fill-opacity="1" fill="#99ccff"></path><path id="SvgjsPath1376" d="M 0 7L 27.333333333333332 0L 246 0L 246 56L 218.66666666666666 63L 218.66666666666666 7L 0 7ZM 218.66666666666666 7L 246 0" stroke="rgba(50,50,50,1)" stroke-width="2" fill-opacity="1" fill="#e6e6e6"></path><path id="SvgjsPath1377" d="M 0 0L 246 0L 246 63L 0 63Z" stroke="none" fill="none"></path><g id="SvgjsG1378"><text id="SvgjsText1379" font-family="&quot;Lucida Console&quot;" text-anchor="middle" font-size="17px" width="199px" fill="#323232" font-weight="400" align="middle" lineHeight="125%" anchor="middle" family="&quot;Lucida Console&quot;" size="17px" weight="400" font-style="" opacity="1" y="12.375" transform="rotate(0)"><tspan id="SvgjsTspan1380" dy="21" x="109.5"><tspan id="SvgjsTspan1381" style="text-decoration:;"> Extension</tspan></tspan><tspan id="SvgjsTspan1382" dy="21" x="109.5"><tspan id="SvgjsTspan1383" style="text-decoration:;">classloader</tspan></tspan></text></g></g><g id="SvgjsG1384" transform="translate(215,263)"><path id="SvgjsPath1385" d="M 0 7L 218.66666666666666 7L 218.66666666666666 63L 0 63L 0 7Z" stroke="rgba(50,50,50,1)" stroke-width="2" fill-opacity="1" fill="#99ffff"></path><path id="SvgjsPath1386" d="M 0 7L 27.333333333333332 0L 246 0L 246 56L 218.66666666666666 63L 218.66666666666666 7L 0 7ZM 218.66666666666666 7L 246 0" stroke="rgba(50,50,50,1)" stroke-width="2" fill-opacity="1" fill="#e6e6e6"></path><path id="SvgjsPath1387" d="M 0 0L 246 0L 246 63L 0 63Z" stroke="none" fill="none"></path><g id="SvgjsG1388"><text id="SvgjsText1389" font-family="&quot;Lucida Console&quot;" text-anchor="middle" font-size="17px" width="199px" fill="#323232" font-weight="400" align="middle" lineHeight="125%" anchor="middle" family="&quot;Lucida Console&quot;" size="17px" weight="400" font-style="" opacity="1" y="12.375" transform="rotate(0)"><tspan id="SvgjsTspan1390" dy="21" x="109.5"><tspan id="SvgjsTspan1391" style="text-decoration:;">  System </tspan></tspan><tspan id="SvgjsTspan1392" dy="21" x="109.5"><tspan id="SvgjsTspan1393" style="text-decoration:;">classloader</tspan></tspan></text></g></g><g id="SvgjsG1394" transform="translate(215,384)"><path id="SvgjsPath1395" d="M 0 7L 218.66666666666666 7L 218.66666666666666 63L 0 63L 0 7Z" stroke="rgba(50,50,50,1)" stroke-width="2" fill-opacity="1" fill="#ff6666"></path><path id="SvgjsPath1396" d="M 0 7L 27.333333333333332 0L 246 0L 246 56L 218.66666666666666 63L 218.66666666666666 7L 0 7ZM 218.66666666666666 7L 246 0" stroke="rgba(50,50,50,1)" stroke-width="2" fill-opacity="1" fill="#e6e6e6"></path><path id="SvgjsPath1397" d="M 0 0L 246 0L 246 63L 0 63Z" stroke="none" fill="none"></path><g id="SvgjsG1398"><text id="SvgjsText1399" font-family="&quot;Lucida Console&quot;" text-anchor="middle" font-size="17px" width="199px" fill="#323232" font-weight="400" align="middle" lineHeight="125%" anchor="middle" family="&quot;Lucida Console&quot;" size="17px" weight="400" font-style="" opacity="1" y="12.375" transform="rotate(0)"><tspan id="SvgjsTspan1400" dy="21" x="109.5"><tspan id="SvgjsTspan1401" style="text-decoration:;">  Diy </tspan></tspan><tspan id="SvgjsTspan1402" dy="21" x="109.5"><tspan id="SvgjsTspan1403" style="text-decoration:;">classloader</tspan></tspan></text></g></g><g id="SvgjsG1404" transform="translate(25,25)"><path id="SvgjsPath1405" d="M 77 0L 154 77L 103.18 77L 103.18 422L 50.82 422L 50.82 77L 0 77L 77 0Z" stroke="rgba(50,50,50,1)" stroke-width="2" fill-opacity="1" fill="#ffffcc"></path><g id="SvgjsG1406"><text id="SvgjsText1407" font-family="微软雅黑" text-anchor="middle" font-size="16px" width="216px" fill="#323232" font-weight="400" align="middle" lineHeight="125%" anchor="middle" family="微软雅黑" size="16px" weight="400" font-style="" opacity="1" y="70.10000000000001" transform="rotate(0)"><tspan id="SvgjsTspan1408" dy="20" x="77.2"><tspan id="SvgjsTspan1409" style="text-decoration:;">自</tspan></tspan><tspan id="SvgjsTspan1410" dy="20" x="77.2"><tspan id="SvgjsTspan1411" style="text-decoration:;">底</tspan></tspan><tspan id="SvgjsTspan1412" dy="20" x="77.2"><tspan id="SvgjsTspan1413" style="text-decoration:;">向</tspan></tspan><tspan id="SvgjsTspan1414" dy="20" x="77.2"><tspan id="SvgjsTspan1415" style="text-decoration:;">上</tspan></tspan><tspan id="SvgjsTspan1416" dy="20" x="77.2"><tspan id="SvgjsTspan1417" style="text-decoration:;">检</tspan></tspan><tspan id="SvgjsTspan1418" dy="20" x="77.2"><tspan id="SvgjsTspan1419" style="text-decoration:;">查</tspan></tspan><tspan id="SvgjsTspan1420" dy="20" x="77.2"><tspan id="SvgjsTspan1421" style="text-decoration:;">是</tspan></tspan><tspan id="SvgjsTspan1422" dy="20" x="77.2"><tspan id="SvgjsTspan1423" style="text-decoration:;">否</tspan></tspan><tspan id="SvgjsTspan1424" dy="20" x="77.2"><tspan id="SvgjsTspan1425" style="text-decoration:;">装</tspan></tspan><tspan id="SvgjsTspan1426" dy="20" x="77.2"><tspan id="SvgjsTspan1427" style="text-decoration:;">载</tspan></tspan><tspan id="SvgjsTspan1428" dy="20" x="77.2"><tspan id="SvgjsTspan1429" style="text-decoration:;">相</tspan></tspan><tspan id="SvgjsTspan1430" dy="20" x="77.2"><tspan id="SvgjsTspan1431" style="text-decoration:;">应</tspan></tspan><tspan id="SvgjsTspan1432" dy="20" x="77.2"><tspan id="SvgjsTspan1433" style="text-decoration:;">的</tspan></tspan><tspan id="SvgjsTspan1434" dy="20" x="77.2"><tspan id="SvgjsTspan1435" style="text-decoration:;">加</tspan></tspan><tspan id="SvgjsTspan1436" dy="20" x="77.2"><tspan id="SvgjsTspan1437" style="text-decoration:;">载</tspan></tspan><tspan id="SvgjsTspan1438" dy="20" x="77.2"><tspan id="SvgjsTspan1439" style="text-decoration:;">器</tspan></tspan></text></g></g><g id="SvgjsG1440" transform="translate(496,25)"><path id="SvgjsPath1441" d="M 60.39 0L 122.61000000000001 0L 122.61000000000001 330.5L 183 330.5L 91.5 422L 0 330.5L 60.39 330.5L 60.39 0Z" stroke="rgba(50,50,50,1)" stroke-width="2" fill-opacity="1" fill="#ffccff"></path><g id="SvgjsG1442"><text id="SvgjsText1443" font-family="微软雅黑" text-anchor="middle" font-size="15px" width="257px" fill="#323232" font-weight="400" align="middle" lineHeight="125%" anchor="middle" family="微软雅黑" size="15px" weight="400" font-style="" opacity="1" y="57.52500000000002" transform="rotate(0)"><tspan id="SvgjsTspan1444" dy="18" x="91.9"><tspan id="SvgjsTspan1445" style="text-decoration:;">自</tspan></tspan><tspan id="SvgjsTspan1446" dy="18" x="91.9"><tspan id="SvgjsTspan1447" style="text-decoration:;">顶</tspan></tspan><tspan id="SvgjsTspan1448" dy="18" x="91.9"><tspan id="SvgjsTspan1449" style="text-decoration:;">而</tspan></tspan><tspan id="SvgjsTspan1450" dy="18" x="91.9"><tspan id="SvgjsTspan1451" style="text-decoration:;">下</tspan></tspan><tspan id="SvgjsTspan1452" dy="18" x="91.9"><tspan id="SvgjsTspan1453" style="text-decoration:;">调</tspan></tspan><tspan id="SvgjsTspan1454" dy="18" x="91.9"><tspan id="SvgjsTspan1455" style="text-decoration:;">用</tspan></tspan><tspan id="SvgjsTspan1456" dy="18" x="91.9"><tspan id="SvgjsTspan1457" style="text-decoration:;">加</tspan></tspan><tspan id="SvgjsTspan1458" dy="18" x="91.9"><tspan id="SvgjsTspan1459" style="text-decoration:;">载</tspan></tspan><tspan id="SvgjsTspan1460" dy="18" x="91.9"><tspan id="SvgjsTspan1461" style="text-decoration:;">器</tspan></tspan><tspan id="SvgjsTspan1462" dy="18" x="91.9"><tspan id="SvgjsTspan1463" style="text-decoration:;">尝</tspan></tspan><tspan id="SvgjsTspan1464" dy="18" x="91.9"><tspan id="SvgjsTspan1465" style="text-decoration:;">试</tspan></tspan><tspan id="SvgjsTspan1466" dy="18" x="91.9"><tspan id="SvgjsTspan1467" style="text-decoration:;">类</tspan></tspan><tspan id="SvgjsTspan1468" dy="18" x="91.9"><tspan id="SvgjsTspan1469" style="text-decoration:;">加</tspan></tspan><tspan id="SvgjsTspan1470" dy="18" x="91.9"><tspan id="SvgjsTspan1471" style="text-decoration:;">载</tspan></tspan></text></g></g><g id="SvgjsG1472"><path id="SvgjsPath1473" d="M338 384L338 355L338 355L338 326" stroke="#323232" stroke-width="2" fill="none" marker-end="url(#SvgjsMarker1474)"></path></g><g id="SvgjsG1476"><path id="SvgjsPath1477" d="M338 263L338 236L338 236L338 209" stroke="#323232" stroke-width="2" fill="none" marker-end="url(#SvgjsMarker1478)"></path></g><g id="SvgjsG1480"><path id="SvgjsPath1481" d="M338 146L338 117L338 117L338 88" stroke="#323232" stroke-width="2" fill="none" marker-end="url(#SvgjsMarker1482)"></path></g></svg>