<svg id="SvgjsSvg1006" width="1148.0000305175781" height="745.6666870117188" xmlns="http://www.w3.org/2000/svg" version="1.1" xmlns:xlink="http://www.w3.org/1999/xlink" xmlns:svgjs="http://svgjs.com/svgjs"><defs id="SvgjsDefs1007"><linearGradient id="SvgjsLinearGradient1018" x1="1" y1="0" x2="0" y2="1"><stop id="SvgjsStop1019" stop-opacity="0.9" stop-color="#3c9dff" offset="0"></stop><stop id="SvgjsStop1020" stop-opacity="0.9" stop-color="#0061c3" offset="1"></stop></linearGradient><linearGradient id="SvgjsLinearGradient1027" x1="1" y1="0" x2="0" y2="1"><stop id="SvgjsStop1028" stop-opacity="1" stop-color="#63b1ff" offset="0"></stop><stop id="SvgjsStop1029" stop-opacity="1" stop-color="#2775c3" offset="1"></stop></linearGradient><marker id="SvgjsMarker1070" markerWidth="16" markerHeight="12" refX="16" refY="6" viewBox="0 0 16 12" orient="auto" markerUnits="userSpaceOnUse" stroke-dasharray="0,0"><path id="SvgjsPath1071" d="M0,2 L14,6 L0,11 L0,2" fill="#323232" stroke="#323232" stroke-width="2"></path></marker><marker id="SvgjsMarker1074" markerWidth="16" markerHeight="12" refX="16" refY="6" viewBox="0 0 16 12" orient="auto" markerUnits="userSpaceOnUse" stroke-dasharray="0,0"><path id="SvgjsPath1075" d="M0,2 L14,6 L0,11 L0,2" fill="#323232" stroke="#323232" stroke-width="2"></path></marker><marker id="SvgjsMarker1078" markerWidth="16" markerHeight="12" refX="16" refY="6" viewBox="0 0 16 12" orient="auto" markerUnits="userSpaceOnUse" stroke-dasharray="0,0"><path id="SvgjsPath1079" d="M0,2 L14,6 L0,11 L0,2" fill="#323232" stroke="#323232" stroke-width="2"></path></marker><marker id="SvgjsMarker1094" markerWidth="16" markerHeight="12" refX="16" refY="6" viewBox="0 0 16 12" orient="auto" markerUnits="userSpaceOnUse" stroke-dasharray="0,0"><path id="SvgjsPath1095" d="M0,2 L14,6 L0,11 L0,2" fill="#323232" stroke="#323232" stroke-width="2"></path></marker><marker id="SvgjsMarker1104" markerWidth="16" markerHeight="12" refX="16" refY="6" viewBox="0 0 16 12" orient="auto" markerUnits="userSpaceOnUse" stroke-dasharray="0,0"><path id="SvgjsPath1105" d="M0,2 L14,6 L0,11 L0,2" fill="#323232" stroke="#323232" stroke-width="2"></path></marker><linearGradient id="SvgjsLinearGradient1118" x1="1" y1="0" x2="0" y2="1"><stop id="SvgjsStop1119" stop-opacity="1" stop-color="#ff3333" offset="0"></stop><stop id="SvgjsStop1120" stop-opacity="1" stop-color="#c34e4e" offset="1"></stop></linearGradient><marker id="SvgjsMarker1127" markerWidth="16" markerHeight="12" refX="16" refY="6" viewBox="0 0 16 12" orient="auto" markerUnits="userSpaceOnUse" stroke-dasharray="0,0"><path id="SvgjsPath1128" d="M0,2 L14,6 L0,11 L0,2" fill="#323232" stroke="#323232" stroke-width="2"></path></marker><marker id="SvgjsMarker1135" markerWidth="16" markerHeight="12" refX="16" refY="6" viewBox="0 0 16 12" orient="auto" markerUnits="userSpaceOnUse" stroke-dasharray="0,0"><path id="SvgjsPath1136" d="M0,2 L14,6 L0,11 L0,2" fill="#323232" stroke="#323232" stroke-width="2"></path></marker><marker id="SvgjsMarker1139" markerWidth="16" markerHeight="12" refX="16" refY="6" viewBox="0 0 16 12" orient="auto" markerUnits="userSpaceOnUse" stroke-dasharray="0,0"><path id="SvgjsPath1140" d="M0,2 L14,6 L0,11 L0,2" fill="#323232" stroke="#323232" stroke-width="2"></path></marker><marker id="SvgjsMarker1167" markerWidth="16" markerHeight="12" refX="16" refY="6" viewBox="0 0 16 12" orient="auto" markerUnits="userSpaceOnUse" stroke-dasharray="0,0"><path id="SvgjsPath1168" d="M0,2 L14,6 L0,11 L0,2" fill="#323232" stroke="#323232" stroke-width="2"></path></marker><marker id="SvgjsMarker1171" markerWidth="16" markerHeight="12" refX="16" refY="6" viewBox="0 0 16 12" orient="auto" markerUnits="userSpaceOnUse" stroke-dasharray="0,0"><path id="SvgjsPath1172" d="M0,2 L14,6 L0,11 L0,2" fill="#323232" stroke="#323232" stroke-width="2"></path></marker></defs><g id="SvgjsG1008" transform="translate(25,122.66666412353516)"><path id="SvgjsPath1009" d="M 0 0L 449 0L 449 598L 0 598Z" stroke-dasharray="10,6" stroke="rgba(50,50,50,1)" stroke-width="2" fill-opacity="1" fill="#ffffff"></path><g id="SvgjsG1010"><text id="SvgjsText1011" font-family="微软雅黑" text-anchor="middle" font-size="13px" width="429px" fill="#323232" font-weight="400" align="middle" lineHeight="125%" anchor="middle" family="微软雅黑" size="13px" weight="400" font-style="" opacity="1" y="289.375" transform="rotate(0)"></text></g></g><g id="SvgjsG1012" transform="translate(674,122.66666412353516)"><path id="SvgjsPath1013" d="M 0 0L 449 0L 449 598L 0 598Z" stroke-dasharray="10,6" stroke="rgba(50,50,50,1)" stroke-width="2" fill-opacity="1" fill="#ffffff"></path><g id="SvgjsG1014"><text id="SvgjsText1015" font-family="微软雅黑" text-anchor="middle" font-size="13px" width="429px" fill="#323232" font-weight="400" align="middle" lineHeight="125%" anchor="middle" family="微软雅黑" size="13px" weight="400" font-style="" opacity="1" y="289.375" transform="rotate(0)"></text></g></g><g id="SvgjsG1016" transform="translate(146,140.66666412353516)"><path id="SvgjsPath1017" d="M 0 4Q 0 0 4 0L 203 0Q 207 0 207 4L 207 69Q 207 73 203 73L 4 73Q 0 73 0 69Z" stroke="rgba(50,50,50,0.9)" stroke-width="2" fill="url(#SvgjsLinearGradient1018)"></path><g id="SvgjsG1021"><text id="SvgjsText1022" font-family="&quot;Lucida Console&quot;" text-anchor="middle" font-size="15px" width="187px" fill="#323232" font-weight="400" align="middle" lineHeight="125%" anchor="middle" family="&quot;Lucida Console&quot;" size="15px" weight="400" font-style="" opacity="0.9" y="25.125" transform="rotate(0)"><tspan id="SvgjsTspan1023" dy="18" x="103.5"><tspan id="SvgjsTspan1024" style="text-decoration:;">用户认证（usr,pwd）</tspan></tspan></text></g></g><g id="SvgjsG1025" transform="translate(146,264.66666412353516)"><path id="SvgjsPath1026" d="M 0 4Q 0 0 4 0L 203 0Q 207 0 207 4L 207 69Q 207 73 203 73L 4 73Q 0 73 0 69Z" stroke="rgba(50,50,50,1)" stroke-width="2" fill="url(#SvgjsLinearGradient1027)"></path><g id="SvgjsG1030"><text id="SvgjsText1031" font-family="&quot;Lucida Console&quot;" text-anchor="middle" font-size="15px" width="187px" fill="#323232" font-weight="400" align="middle" lineHeight="125%" anchor="middle" family="&quot;Lucida Console&quot;" size="15px" weight="400" font-style="" opacity="1" y="25.125" transform="rotate(0)"><tspan id="SvgjsTspan1032" dy="18" x="103.5"><tspan id="SvgjsTspan1033" style="text-decoration:;">本地保存JWT(token)</tspan></tspan></text></g></g><g id="SvgjsG1034" transform="translate(146,401.66666412353516)"><path id="SvgjsPath1035" d="M 0 4Q 0 0 4 0L 203 0Q 207 0 207 4L 207 69Q 207 73 203 73L 4 73Q 0 73 0 69Z" stroke="rgba(50,50,50,1)" stroke-width="2" fill-opacity="1" fill="#ffff99"></path><g id="SvgjsG1036"><text id="SvgjsText1037" font-family="&quot;Lucida Console&quot;" text-anchor="middle" font-size="15px" width="187px" fill="#323232" font-weight="400" align="middle" lineHeight="125%" anchor="middle" family="&quot;Lucida Console&quot;" size="15px" weight="400" font-style="" opacity="1" y="25.125" transform="rotate(0)"><tspan id="SvgjsTspan1038" dy="18" x="103.5"><tspan id="SvgjsTspan1039" style="text-decoration:;">访问后端接口(携带token)</tspan></tspan></text></g></g><g id="SvgjsG1040" transform="translate(146,522.6666641235352)"><path id="SvgjsPath1041" d="M 0 4Q 0 0 4 0L 203 0Q 207 0 207 4L 207 69Q 207 73 203 73L 4 73Q 0 73 0 69Z" stroke="rgba(50,50,50,1)" stroke-width="2" fill-opacity="1" fill="#ff9933"></path><g id="SvgjsG1042"><text id="SvgjsText1043" font-family="&quot;Lucida Console&quot;" text-anchor="middle" font-size="15px" width="187px" fill="#323232" font-weight="400" align="middle" lineHeight="125%" anchor="middle" family="&quot;Lucida Console&quot;" size="15px" weight="400" font-style="" opacity="1" y="16.125" transform="rotate(0)"><tspan id="SvgjsTspan1044" dy="18" x="103.5"><tspan id="SvgjsTspan1045" style="text-decoration:;">展示后端传送的信息</tspan></tspan><tspan id="SvgjsTspan1046" dy="18" x="103.5"><tspan id="SvgjsTspan1047" style="text-decoration:;">(data)</tspan></tspan></text></g></g><g id="SvgjsG1048" transform="translate(146,619.6666641235352)"><path id="SvgjsPath1049" d="M 0 4Q 0 0 4 0L 203 0Q 207 0 207 4L 207 69Q 207 73 203 73L 4 73Q 0 73 0 69Z" stroke="rgba(50,50,50,1)" stroke-width="2" fill-opacity="1" fill="#ff9933"></path><g id="SvgjsG1050"><text id="SvgjsText1051" font-family="&quot;Lucida Console&quot;" text-anchor="middle" font-size="15px" width="187px" fill="#323232" font-weight="400" align="middle" lineHeight="125%" anchor="middle" family="&quot;Lucida Console&quot;" size="15px" weight="400" font-style="" opacity="1" y="16.125" transform="rotate(0)"><tspan id="SvgjsTspan1052" dy="18" x="103.5"><tspan id="SvgjsTspan1053" style="text-decoration:;">展示后端传送的信息</tspan></tspan><tspan id="SvgjsTspan1054" dy="18" x="103.5"><tspan id="SvgjsTspan1055" style="text-decoration:;">(error)</tspan></tspan></text></g></g><g id="SvgjsG1056" transform="translate(795,140.66666412353516)"><path id="SvgjsPath1057" d="M 0 4Q 0 0 4 0L 203 0Q 207 0 207 4L 207 69Q 207 73 203 73L 4 73Q 0 73 0 69Z" stroke="rgba(50,50,50,0.9)" stroke-width="2" fill-opacity="0.9" fill="#00cc00"></path><g id="SvgjsG1058"><text id="SvgjsText1059" font-family="&quot;Lucida Console&quot;" text-anchor="middle" font-size="15px" width="187px" fill="#323232" font-weight="400" align="middle" lineHeight="125%" anchor="middle" family="&quot;Lucida Console&quot;" size="15px" weight="400" font-style="" opacity="0.9" y="25.125" transform="rotate(0)"><tspan id="SvgjsTspan1060" dy="18" x="103.5"><tspan id="SvgjsTspan1061" style="text-decoration:;">验证信息（usr,pwd）</tspan></tspan></text></g></g><g id="SvgjsG1062" transform="translate(795,264.66666412353516)"><path id="SvgjsPath1063" d="M 0 4Q 0 0 4 0L 203 0Q 207 0 207 4L 207 69Q 207 73 203 73L 4 73Q 0 73 0 69Z" stroke="rgba(50,50,50,0.9)" stroke-width="2" fill-opacity="0.9" fill="#00cc00"></path><g id="SvgjsG1064"><text id="SvgjsText1065" font-family="&quot;Lucida Console&quot;" text-anchor="middle" font-size="15px" width="187px" fill="#323232" font-weight="400" align="middle" lineHeight="125%" anchor="middle" family="&quot;Lucida Console&quot;" size="15px" weight="400" font-style="" opacity="0.9" y="25.125" transform="rotate(0)"><tspan id="SvgjsTspan1066" dy="18" x="103.5"><tspan id="SvgjsTspan1067" style="text-decoration:;">生成令牌（Token）</tspan></tspan></text></g></g><g id="SvgjsG1068"><path id="SvgjsPath1069" d="M898.5 213.66666412353516L898.5 239.16666412353516L898.5 239.16666412353516L898.5 264.66666412353516" stroke="#323232" stroke-width="2" fill="none" marker-end="url(#SvgjsMarker1070)"></path></g><g id="SvgjsG1072"><path id="SvgjsPath1073" d="M795 301.16666412353516L574 301.16666412353516L574 301.16666412353516L353 301.16666412353516" stroke="#323232" stroke-width="2" fill="none" marker-end="url(#SvgjsMarker1074)"></path></g><g id="SvgjsG1076"><path id="SvgjsPath1077" d="M353 177.16666412353516L574 177.16666412353516L574 177.16666412353516L795 177.16666412353516" stroke="#323232" stroke-width="2" fill="none" marker-end="url(#SvgjsMarker1078)"></path></g><g id="SvgjsG1080" transform="translate(527.6666564941406,142.16666412353516)"><path id="SvgjsPath1081" d="M 11.879999999999999 49C -9.9 35 3.96 24.5 8.91 21C 6.930000000000001 3.5 31.68 0 41.58 7C 49.5 -3.5 74.25 0 74.25 10.5C 94.05 7 101.97 21 94.05 38.5C 100.98 52.5 94.05 70 71.28 63C 66.33 72.10000000000001 46.529999999999994 72.10000000000001 41.58 63C 31.68 70 11.879999999999999 66.5 11.879999999999999 49Z" stroke="rgba(50,50,50,1)" stroke-width="2" fill-opacity="1" fill="#ffffff"></path><g id="SvgjsG1082"><text id="SvgjsText1083" font-family="&quot;Lucida Console&quot;" text-anchor="middle" font-size="14px" width="79px" fill="#323232" font-weight="400" align="middle" lineHeight="125%" anchor="middle" family="&quot;Lucida Console&quot;" size="14px" weight="400" font-style="" opacity="1" y="24.75" transform="rotate(0)"><tspan id="SvgjsTspan1084" dy="17" x="49.5"><tspan id="SvgjsTspan1085" style="text-decoration:;">(usr,pwd)</tspan></tspan></text></g></g><g id="SvgjsG1086" transform="translate(530.6666564941406,264.66666412353516)"><path id="SvgjsPath1087" d="M 11.879999999999999 49C -9.9 35 3.96 24.5 8.91 21C 6.930000000000001 3.5 31.68 0 41.58 7C 49.5 -3.5 74.25 0 74.25 10.5C 94.05 7 101.97 21 94.05 38.5C 100.98 52.5 94.05 70 71.28 63C 66.33 72.10000000000001 46.529999999999994 72.10000000000001 41.58 63C 31.68 70 11.879999999999999 66.5 11.879999999999999 49Z" stroke="rgba(50,50,50,1)" stroke-width="2" fill-opacity="1" fill="#ffffff"></path><g id="SvgjsG1088"><text id="SvgjsText1089" font-family="&quot;Lucida Console&quot;" text-anchor="middle" font-size="14px" width="79px" fill="#323232" font-weight="400" align="middle" lineHeight="125%" anchor="middle" family="&quot;Lucida Console&quot;" size="14px" weight="400" font-style="" opacity="1" y="24.75" transform="rotate(0)"><tspan id="SvgjsTspan1090" dy="17" x="49.5"><tspan id="SvgjsTspan1091" style="text-decoration:;">(Token)</tspan></tspan></text></g></g><g id="SvgjsG1092"><path id="SvgjsPath1093" d="M353 438.16666412353516L555.5833282470703 438.16666412353516L555.5833282470703 438.16666412353516L758.1666564941406 438.16666412353516" stroke="#323232" stroke-width="2" fill="none" marker-end="url(#SvgjsMarker1094)"></path></g><g id="SvgjsG1096" transform="translate(530.6666564941406,403.16666412353516)"><path id="SvgjsPath1097" d="M 11.879999999999999 49C -9.9 35 3.96 24.5 8.91 21C 6.930000000000001 3.5 31.68 0 41.58 7C 49.5 -3.5 74.25 0 74.25 10.5C 94.05 7 101.97 21 94.05 38.5C 100.98 52.5 94.05 70 71.28 63C 66.33 72.10000000000001 46.529999999999994 72.10000000000001 41.58 63C 31.68 70 11.879999999999999 66.5 11.879999999999999 49Z" stroke="rgba(50,50,50,1)" stroke-width="2" fill-opacity="1" fill="#ffffff"></path><g id="SvgjsG1098"><text id="SvgjsText1099" font-family="&quot;Lucida Console&quot;" text-anchor="middle" font-size="14px" width="79px" fill="#323232" font-weight="400" align="middle" lineHeight="125%" anchor="middle" family="&quot;Lucida Console&quot;" size="14px" weight="400" font-style="" opacity="1" y="24.75" transform="rotate(0)"><tspan id="SvgjsTspan1100" dy="17" x="49.5"><tspan id="SvgjsTspan1101" style="text-decoration:;">(Token)</tspan></tspan></text></g></g><g id="SvgjsG1102"><path id="SvgjsPath1103" d="M905.1666564941406 502.91666412353516L905.1666564941406 528.7916641235352L905.1666564941406 528.7916641235352L905.1666564941406 554.6666641235352" stroke="#323232" stroke-width="2" fill="none" marker-end="url(#SvgjsMarker1104)"></path><rect id="SvgjsRect1106" width="35" height="24" x="887.6666564941406" y="516.7916641235352" fill="#ffffff"></rect><text id="SvgjsText1107" font-family="&quot;Lucida Console&quot;" text-anchor="middle" font-size="19px" width="35px" fill="#323232" font-weight="400" align="top" lineHeight="24px" anchor="middle" family="&quot;Lucida Console&quot;" size="19px" weight="400" font-style="" opacity="1" y="514.4166641235352" transform="rotate(0)"><tspan id="SvgjsTspan1108" dy="23" x="905.1666564941406"><tspan id="SvgjsTspan1109" style="text-decoration:;">Yes</tspan></tspan></text></g><g id="SvgjsG1110" transform="translate(804.4166564941406,554.6666641235352)"><path id="SvgjsPath1111" d="M 0 18Q 0 0 18 0L 183.5 0Q 201.5 0 201.5 18L 201.5 80Q 201.5 98 183.5 98L 18 98Q 0 98 0 80L 0 18Z" stroke="rgba(50,50,50,1)" stroke-width="2" fill-opacity="1" fill="#b266ff"></path><g id="SvgjsG1112"><text id="SvgjsText1113" font-family="&quot;Lucida Console&quot;" text-anchor="middle" font-size="16px" width="182px" fill="#323232" font-weight="400" align="middle" lineHeight="125%" anchor="middle" family="&quot;Lucida Console&quot;" size="16px" weight="400" font-style="" opacity="1" y="37" transform="rotate(0)"><tspan id="SvgjsTspan1114" dy="20" x="101"><tspan id="SvgjsTspan1115" style="text-decoration:;">执行业务or输出错误？</tspan></tspan></text></g></g><g id="SvgjsG1116" transform="translate(758.1666564941406,373.41666412353516)"><path id="SvgjsPath1117" d="M 0 64.75L 147 0L 294 64.75L 147 129.5Z" stroke="rgba(50,50,50,1)" stroke-width="2" fill="url(#SvgjsLinearGradient1118)"></path><g id="SvgjsG1121"><text id="SvgjsText1122" font-family="&quot;Lucida Console&quot;" text-anchor="middle" font-size="17px" width="274px" fill="#323232" font-weight="400" align="middle" lineHeight="125%" anchor="middle" family="&quot;Lucida Console&quot;" size="17px" weight="400" font-style="" opacity="1" y="52.7725" transform="rotate(0)"><tspan id="SvgjsTspan1123" dy="21" x="147"><tspan id="SvgjsTspan1124" style="text-decoration:;">api接口（验证token）</tspan></tspan></text></g></g><g id="SvgjsG1125"><path id="SvgjsPath1126" d="M1052.1666564941406 438.16666412353516L1082.1666564941406 438.16666412353516L1082.1666564941406 603.6666641235352L1005.9166564941406 603.6666641235352" stroke="#323232" stroke-width="2" fill="none" marker-end="url(#SvgjsMarker1127)"></path><rect id="SvgjsRect1129" width="23" height="24" x="1070.6666564941406" y="532.0416641235352" fill="#ffffff"></rect><text id="SvgjsText1130" font-family="&quot;Lucida Console&quot;" text-anchor="middle" font-size="19px" width="23px" fill="#323232" font-weight="400" align="top" lineHeight="24px" anchor="middle" family="&quot;Lucida Console&quot;" size="19px" weight="400" font-style="" opacity="1" y="529.6666641235352" transform="rotate(0)"><tspan id="SvgjsTspan1131" dy="23" x="1082.1666564941406"><tspan id="SvgjsTspan1132" style="text-decoration:;">No</tspan></tspan></text></g><g id="SvgjsG1133"><path id="SvgjsPath1134" d="M804.4166564941406 603.6666641235352L631.7083282470703 603.6666641235352L631.7083282470703 559.1666641235352L353 559.1666641235352" stroke="#323232" stroke-width="2" fill="none" marker-end="url(#SvgjsMarker1135)"></path></g><g id="SvgjsG1137"><path id="SvgjsPath1138" d="M804.4166564941406 603.6666641235352L631.7083282470703 603.6666641235352L631.7083282470703 656.1666641235352L353 656.1666641235352" stroke="#323232" stroke-width="2" fill="none" marker-end="url(#SvgjsMarker1139)"></path></g><g id="SvgjsG1141" transform="translate(507.6666564941406,524.1666641235352)"><path id="SvgjsPath1142" d="M 11.879999999999999 49C -9.9 35 3.96 24.5 8.91 21C 6.930000000000001 3.5 31.68 0 41.58 7C 49.5 -3.5 74.25 0 74.25 10.5C 94.05 7 101.97 21 94.05 38.5C 100.98 52.5 94.05 70 71.28 63C 66.33 72.10000000000001 46.529999999999994 72.10000000000001 41.58 63C 31.68 70 11.879999999999999 66.5 11.879999999999999 49Z" stroke="rgba(50,50,50,1)" stroke-width="2" fill-opacity="1" fill="#ffffff"></path><g id="SvgjsG1143"><text id="SvgjsText1144" font-family="&quot;Lucida Console&quot;" text-anchor="middle" font-size="14px" width="79px" fill="#323232" font-weight="400" align="middle" lineHeight="125%" anchor="middle" family="&quot;Lucida Console&quot;" size="14px" weight="400" font-style="" opacity="1" y="24.75" transform="rotate(0)"><tspan id="SvgjsTspan1145" dy="17" x="49.5"><tspan id="SvgjsTspan1146" style="text-decoration:;">(Data)</tspan></tspan></text></g></g><g id="SvgjsG1147" transform="translate(507.6666564941406,621.1666641235352)"><path id="SvgjsPath1148" d="M 11.879999999999999 49C -9.9 35 3.96 24.5 8.91 21C 6.930000000000001 3.5 31.68 0 41.58 7C 49.5 -3.5 74.25 0 74.25 10.5C 94.05 7 101.97 21 94.05 38.5C 100.98 52.5 94.05 70 71.28 63C 66.33 72.10000000000001 46.529999999999994 72.10000000000001 41.58 63C 31.68 70 11.879999999999999 66.5 11.879999999999999 49Z" stroke="rgba(50,50,50,1)" stroke-width="2" fill-opacity="1" fill="#ffffff"></path><g id="SvgjsG1149"><text id="SvgjsText1150" font-family="&quot;Lucida Console&quot;" text-anchor="middle" font-size="14px" width="79px" fill="#323232" font-weight="400" align="middle" lineHeight="125%" anchor="middle" family="&quot;Lucida Console&quot;" size="14px" weight="400" font-style="" opacity="1" y="24.75" transform="rotate(0)"><tspan id="SvgjsTspan1151" dy="17" x="49.5"><tspan id="SvgjsTspan1152" style="text-decoration:;">(Error)</tspan></tspan></text></g></g><g id="SvgjsG1153" transform="translate(98,25)"><path id="SvgjsPath1154" d="M 0 4Q 0 0 4 0L 299 0Q 303 0 303 4L 303 67Q 303 71 299 71L 4 71Q 0 71 0 67Z" stroke="rgba(50,50,50,1)" stroke-width="2" fill-opacity="1" fill="#3399ff"></path><g id="SvgjsG1155"><text id="SvgjsText1156" font-family="&quot;Lucida Console&quot;" text-anchor="middle" font-size="19px" width="283px" fill="#323232" font-weight="400" align="middle" lineHeight="125%" anchor="middle" family="&quot;Lucida Console&quot;" size="19px" weight="400" font-style="" opacity="1" y="21.625" transform="rotate(0)"><tspan id="SvgjsTspan1157" dy="23" x="151.5"><tspan id="SvgjsTspan1158" style="text-decoration:;">Web 前端系统</tspan></tspan></text></g></g><g id="SvgjsG1159" transform="translate(747,25)"><path id="SvgjsPath1160" d="M 0 4Q 0 0 4 0L 299 0Q 303 0 303 4L 303 67Q 303 71 299 71L 4 71Q 0 71 0 67Z" stroke="rgba(50,50,50,1)" stroke-width="2" fill-opacity="1" fill="#ff3333"></path><g id="SvgjsG1161"><text id="SvgjsText1162" font-family="&quot;Lucida Console&quot;" text-anchor="middle" font-size="19px" width="283px" fill="#323232" font-weight="400" align="middle" lineHeight="125%" anchor="middle" family="&quot;Lucida Console&quot;" size="19px" weight="400" font-style="" opacity="1" y="21.625" transform="rotate(0)"><tspan id="SvgjsTspan1163" dy="23" x="151.5"><tspan id="SvgjsTspan1164" style="text-decoration:;">Java 后端系统</tspan></tspan></text></g></g><g id="SvgjsG1165"><path id="SvgjsPath1166" d="M249.5 96L249.5 109.33333206176758L249.5 109.33333206176758L249.5 122.66666412353516" stroke="#323232" stroke-width="2" fill="none" marker-end="url(#SvgjsMarker1167)"></path></g><g id="SvgjsG1169"><path id="SvgjsPath1170" d="M898.5 96L898.5 109.33333206176758L898.5 109.33333206176758L898.5 122.66666412353516" stroke="#323232" stroke-width="2" fill="none" marker-end="url(#SvgjsMarker1171)"></path></g></svg>