<svg id="SvgjsSvg1146" width="1254.3333282470703" height="487" xmlns="http://www.w3.org/2000/svg" version="1.1" xmlns:xlink="http://www.w3.org/1999/xlink" xmlns:svgjs="http://svgjs.com/svgjs"><defs id="SvgjsDefs1147"><marker id="SvgjsMarker1186" markerWidth="16" markerHeight="12" refX="16" refY="6" viewBox="0 0 16 12" orient="auto" markerUnits="userSpaceOnUse" stroke-dasharray="0,0"><path id="SvgjsPath1187" d="M0,2 L14,6 L0,11 L0,2" fill="#323232" stroke="#323232" stroke-width="2"></path></marker><marker id="SvgjsMarker1190" markerWidth="16" markerHeight="12" refX="16" refY="6" viewBox="0 0 16 12" orient="auto" markerUnits="userSpaceOnUse" stroke-dasharray="0,0"><path id="SvgjsPath1191" d="M0,2 L14,6 L0,11 L0,2" fill="#323232" stroke="#323232" stroke-width="2"></path></marker><marker id="SvgjsMarker1194" markerWidth="16" markerHeight="12" refX="16" refY="6" viewBox="0 0 16 12" orient="auto" markerUnits="userSpaceOnUse" stroke-dasharray="0,0"><path id="SvgjsPath1195" d="M0,2 L14,6 L0,11 L0,2" fill="#323232" stroke="#323232" stroke-width="2"></path></marker><marker id="SvgjsMarker1198" markerWidth="16" markerHeight="12" refX="16" refY="6" viewBox="0 0 16 12" orient="auto" markerUnits="userSpaceOnUse" stroke-dasharray="0,0"><path id="SvgjsPath1199" d="M0,2 L14,6 L0,11 L0,2" fill="#323232" stroke="#323232" stroke-width="2"></path></marker><marker id="SvgjsMarker1202" markerWidth="16" markerHeight="12" refX="16" refY="6" viewBox="0 0 16 12" orient="auto" markerUnits="userSpaceOnUse" stroke-dasharray="0,0"><path id="SvgjsPath1203" d="M0,2 L14,6 L0,11 L0,2" fill="#323232" stroke="#323232" stroke-width="2"></path></marker><marker id="SvgjsMarker1206" markerWidth="16" markerHeight="12" refX="16" refY="6" viewBox="0 0 16 12" orient="auto" markerUnits="userSpaceOnUse" stroke-dasharray="0,0"><path id="SvgjsPath1207" d="M0,2 L14,6 L0,11 L0,2" fill="#323232" stroke="#323232" stroke-width="2"></path></marker><marker id="SvgjsMarker1210" markerWidth="16" markerHeight="12" refX="16" refY="6" viewBox="0 0 16 12" orient="auto" markerUnits="userSpaceOnUse" stroke-dasharray="0,0"><path id="SvgjsPath1211" d="M0,2 L14,6 L0,11 L0,2" fill="#323232" stroke="#323232" stroke-width="2"></path></marker></defs><g id="SvgjsG1148" transform="translate(24.99999237060547,25)"><path id="SvgjsPath1149" d="M 0 4Q 0 0 4 0L 178 0Q 182 0 182 4L 182 131Q 182 135 178 135L 4 135Q 0 135 0 131Z" stroke="rgba(50,50,50,1)" stroke-width="2" fill-opacity="1" fill="#ff3333"></path><g id="SvgjsG1150"><text id="SvgjsText1151" font-family="&quot;Lucida Console&quot;" text-anchor="middle" font-size="18px" width="162px" fill="#323232" font-weight="400" align="middle" lineHeight="125%" anchor="middle" family="&quot;Lucida Console&quot;" size="18px" weight="400" font-style="" opacity="1" y="54.25" transform="rotate(0)"><tspan id="SvgjsTspan1152" dy="22" x="91"><tspan id="SvgjsTspan1153" style="text-decoration:;">Usr</tspan></tspan></text></g></g><g id="SvgjsG1154" transform="translate(388.99999237060547,25)"><path id="SvgjsPath1155" d="M 0 4Q 0 0 4 0L 178 0Q 182 0 182 4L 182 131Q 182 135 178 135L 4 135Q 0 135 0 131Z" stroke="rgba(50,50,50,1)" stroke-width="2" fill-opacity="1" fill="#3399ff"></path><g id="SvgjsG1156"><text id="SvgjsText1157" font-family="&quot;Lucida Console&quot;" text-anchor="middle" font-size="18px" width="162px" fill="#323232" font-weight="400" align="middle" lineHeight="125%" anchor="middle" family="&quot;Lucida Console&quot;" size="18px" weight="400" font-style="" opacity="1" y="54.25" transform="rotate(0)"><tspan id="SvgjsTspan1158" dy="22" x="91"><tspan id="SvgjsTspan1159" style="text-decoration:;">Role</tspan></tspan></text></g></g><g id="SvgjsG1160" transform="translate(756.3333282470703,25)"><path id="SvgjsPath1161" d="M 0 4Q 0 0 4 0L 178 0Q 182 0 182 4L 182 131Q 182 135 178 135L 4 135Q 0 135 0 131Z" stroke="rgba(50,50,50,1)" stroke-width="2" fill-opacity="1" fill="#33ffff"></path><g id="SvgjsG1162"><text id="SvgjsText1163" font-family="&quot;Lucida Console&quot;" text-anchor="middle" font-size="18px" width="162px" fill="#323232" font-weight="400" align="middle" lineHeight="125%" anchor="middle" family="&quot;Lucida Console&quot;" size="18px" weight="400" font-style="" opacity="1" y="54.25" transform="rotate(0)"><tspan id="SvgjsTspan1164" dy="22" x="91"><tspan id="SvgjsTspan1165" style="text-decoration:;">Permission</tspan></tspan></text></g></g><g id="SvgjsG1166" transform="translate(1047.3333282470703,25)"><path id="SvgjsPath1167" d="M 0 4Q 0 0 4 0L 178 0Q 182 0 182 4L 182 131Q 182 135 178 135L 4 135Q 0 135 0 131Z" stroke="rgba(50,50,50,1)" stroke-width="2" fill-opacity="1" fill="#99ff33"></path><g id="SvgjsG1168"><text id="SvgjsText1169" font-family="&quot;Lucida Console&quot;" text-anchor="middle" font-size="18px" width="162px" fill="#323232" font-weight="400" align="middle" lineHeight="125%" anchor="middle" family="&quot;Lucida Console&quot;" size="18px" weight="400" font-style="" opacity="1" y="54.25" transform="rotate(0)"><tspan id="SvgjsTspan1170" dy="22" x="91"><tspan id="SvgjsTspan1171" style="text-decoration:;">Resource</tspan></tspan></text></g></g><g id="SvgjsG1172" transform="translate(206.99999237060547,327)"><path id="SvgjsPath1173" d="M 0 4Q 0 0 4 0L 178 0Q 182 0 182 4L 182 131Q 182 135 178 135L 4 135Q 0 135 0 131Z" stroke="rgba(50,50,50,1)" stroke-width="2" fill-opacity="1" fill="#cfcfcf"></path><g id="SvgjsG1174"><text id="SvgjsText1175" font-family="&quot;Lucida Console&quot;" text-anchor="middle" font-size="18px" width="162px" fill="#323232" font-weight="400" align="middle" lineHeight="125%" anchor="middle" family="&quot;Lucida Console&quot;" size="18px" weight="400" font-style="" opacity="1" y="54.25" transform="rotate(0)"><tspan id="SvgjsTspan1176" dy="22" x="91"><tspan id="SvgjsTspan1177" style="text-decoration:;">Usr-Role</tspan></tspan></text></g></g><g id="SvgjsG1178" transform="translate(570.9999923706055,327)"><path id="SvgjsPath1179" d="M 0 4Q 0 0 4 0L 181.33333587646484 0Q 185.33333587646484 0 185.33333587646484 4L 185.33333587646484 131Q 185.33333587646484 135 181.33333587646484 135L 4 135Q 0 135 0 131Z" stroke="rgba(50,50,50,1)" stroke-width="2" fill-opacity="1" fill="#cfcfcf"></path><g id="SvgjsG1180"><text id="SvgjsText1181" font-family="&quot;Lucida Console&quot;" text-anchor="middle" font-size="18px" width="166px" fill="#323232" font-weight="400" align="middle" lineHeight="125%" anchor="middle" family="&quot;Lucida Console&quot;" size="18px" weight="400" font-style="" opacity="1" y="54.25" transform="rotate(0)"><tspan id="SvgjsTspan1182" dy="22" x="93"><tspan id="SvgjsTspan1183" style="text-decoration:;">Permission-Role</tspan></tspan></text></g></g><g id="SvgjsG1184"><path id="SvgjsPath1185" d="M206.99999237060547 92.5L297.99999237060547 92.5L297.99999237060547 92.5L388.99999237060547 92.5" stroke="#323232" stroke-width="2" fill="none" marker-end="url(#SvgjsMarker1186)"></path></g><g id="SvgjsG1188"><path id="SvgjsPath1189" d="M115.99999237060547 160L115.99999237060547 394.5L206.99999237060547 394.5" stroke="#323232" stroke-width="2" fill="none" marker-end="url(#SvgjsMarker1190)"></path></g><g id="SvgjsG1192"><path id="SvgjsPath1193" d="M479.99999237060547 160L479.99999237060547 394.5L388.99999237060547 394.5" stroke="#323232" stroke-width="2" fill="none" marker-end="url(#SvgjsMarker1194)"></path></g><g id="SvgjsG1196"><path id="SvgjsPath1197" d="M479.99999237060547 160L479.99999237060547 394.5L570.9999923706055 394.5" stroke="#323232" stroke-width="2" fill="none" marker-end="url(#SvgjsMarker1198)"></path></g><g id="SvgjsG1200"><path id="SvgjsPath1201" d="M847.3333282470703 160L847.3333282470703 394.5L756.3333282470703 394.5" stroke="#323232" stroke-width="2" fill="none" marker-end="url(#SvgjsMarker1202)"></path></g><g id="SvgjsG1204"><path id="SvgjsPath1205" d="M938.3333282470703 92.5L992.8333282470703 92.5L992.8333282470703 92.5L1047.3333282470703 92.5" stroke="#323232" stroke-width="2" fill="none" marker-end="url(#SvgjsMarker1206)"></path></g><g id="SvgjsG1208"><path id="SvgjsPath1209" d="M570.9999923706055 92.5L663.6666603088379 92.5L663.6666603088379 92.5L756.3333282470703 92.5" stroke="#323232" stroke-width="2" fill="none" marker-end="url(#SvgjsMarker1210)"></path></g><g id="SvgjsG1212" transform="translate(102.33332824707031,367)"><path id="SvgjsPath1213" d="M 0 0L 101 0L 101 26L 0 26Z" stroke="none" fill="none"></path><g id="SvgjsG1214"><text id="SvgjsText1215" font-family="&quot;Lucida Console&quot;" text-anchor="middle" font-size="15px" width="101px" fill="#323232" font-weight="400" align="middle" lineHeight="125%" anchor="middle" family="&quot;Lucida Console&quot;" size="15px" weight="400" font-style="" opacity="1" y="1.625" transform="rotate(0)"><tspan id="SvgjsTspan1216" dy="18" x="50.5"><tspan id="SvgjsTspan1217" style="text-decoration:;">1:1</tspan></tspan></text></g></g><g id="SvgjsG1218" transform="translate(607.3333282470703,61)"><path id="SvgjsPath1219" d="M 0 0L 101 0L 101 26L 0 26Z" stroke="none" fill="none"></path><g id="SvgjsG1220"><text id="SvgjsText1221" font-family="&quot;Lucida Console&quot;" text-anchor="middle" font-size="15px" width="101px" fill="#323232" font-weight="400" align="middle" lineHeight="125%" anchor="middle" family="&quot;Lucida Console&quot;" size="15px" weight="400" font-style="" opacity="1" y="1.625" transform="rotate(0)"><tspan id="SvgjsTspan1222" dy="18" x="50.5"><tspan id="SvgjsTspan1223" style="text-decoration:;">m:n</tspan></tspan></text></g></g><g id="SvgjsG1224" transform="translate(938.3333282470703,61)"><path id="SvgjsPath1225" d="M 0 0L 101 0L 101 26L 0 26Z" stroke="none" fill="none"></path><g id="SvgjsG1226"><text id="SvgjsText1227" font-family="&quot;Lucida Console&quot;" text-anchor="middle" font-size="15px" width="101px" fill="#323232" font-weight="400" align="middle" lineHeight="125%" anchor="middle" family="&quot;Lucida Console&quot;" size="15px" weight="400" font-style="" opacity="1" y="1.625" transform="rotate(0)"><tspan id="SvgjsTspan1228" dy="18" x="50.5"><tspan id="SvgjsTspan1229" style="text-decoration:;">m:1</tspan></tspan></text></g></g><g id="SvgjsG1230" transform="translate(260.3333282470703,61)"><path id="SvgjsPath1231" d="M 0 0L 101 0L 101 26L 0 26Z" stroke="none" fill="none"></path><g id="SvgjsG1232"><text id="SvgjsText1233" font-family="&quot;Lucida Console&quot;" text-anchor="middle" font-size="15px" width="101px" fill="#323232" font-weight="400" align="middle" lineHeight="125%" anchor="middle" family="&quot;Lucida Console&quot;" size="15px" weight="400" font-style="" opacity="1" y="1.625" transform="rotate(0)"><tspan id="SvgjsTspan1234" dy="18" x="50.5"><tspan id="SvgjsTspan1235" style="text-decoration:;">m:n</tspan></tspan></text></g></g><g id="SvgjsG1236" transform="translate(465.99999237060547,367)"><path id="SvgjsPath1237" d="M 0 0L 101 0L 101 26L 0 26Z" stroke="none" fill="none"></path><g id="SvgjsG1238"><text id="SvgjsText1239" font-family="&quot;Lucida Console&quot;" text-anchor="middle" font-size="15px" width="101px" fill="#323232" font-weight="400" align="middle" lineHeight="125%" anchor="middle" family="&quot;Lucida Console&quot;" size="15px" weight="400" font-style="" opacity="1" y="1.625" transform="rotate(0)"><tspan id="SvgjsTspan1240" dy="18" x="50.5"><tspan id="SvgjsTspan1241" style="text-decoration:;">1:1</tspan></tspan></text></g></g><g id="SvgjsG1242" transform="translate(388.99999237060547,367)"><path id="SvgjsPath1243" d="M 0 0L 101 0L 101 26L 0 26Z" stroke="none" fill="none"></path><g id="SvgjsG1244"><text id="SvgjsText1245" font-family="&quot;Lucida Console&quot;" text-anchor="middle" font-size="15px" width="101px" fill="#323232" font-weight="400" align="middle" lineHeight="125%" anchor="middle" family="&quot;Lucida Console&quot;" size="15px" weight="400" font-style="" opacity="1" y="1.625" transform="rotate(0)"><tspan id="SvgjsTspan1246" dy="18" x="50.5"><tspan id="SvgjsTspan1247" style="text-decoration:;">1:1</tspan></tspan></text></g></g><g id="SvgjsG1248" transform="translate(750.9999923706055,367)"><path id="SvgjsPath1249" d="M 0 0L 101 0L 101 26L 0 26Z" stroke="none" fill="none"></path><g id="SvgjsG1250"><text id="SvgjsText1251" font-family="&quot;Lucida Console&quot;" text-anchor="middle" font-size="15px" width="101px" fill="#323232" font-weight="400" align="middle" lineHeight="125%" anchor="middle" family="&quot;Lucida Console&quot;" size="15px" weight="400" font-style="" opacity="1" y="1.625" transform="rotate(0)"><tspan id="SvgjsTspan1252" dy="18" x="50.5"><tspan id="SvgjsTspan1253" style="text-decoration:;">1:1</tspan></tspan></text></g></g></svg>