<svg id="SvgjsSvg1648" width="979" height="523" xmlns="http://www.w3.org/2000/svg" version="1.1" xmlns:xlink="http://www.w3.org/1999/xlink" xmlns:svgjs="http://svgjs.com/svgjs"><defs id="SvgjsDefs1649"><marker id="SvgjsMarker1672" markerWidth="16" markerHeight="12" refX="16" refY="6" viewBox="0 0 16 12" orient="auto" markerUnits="userSpaceOnUse" stroke-dasharray="0,0"><path id="SvgjsPath1673" d="M0,2 L14,6 L0,11 L0,2" fill="#323232" stroke="#323232" stroke-width="2"></path></marker><marker id="SvgjsMarker1676" markerWidth="16" markerHeight="12" refX="16" refY="6" viewBox="0 0 16 12" orient="auto" markerUnits="userSpaceOnUse" stroke-dasharray="0,0"><path id="SvgjsPath1677" d="M0,2 L14,6 L0,11 L0,2" fill="#323232" stroke="#323232" stroke-width="2"></path></marker><marker id="SvgjsMarker1696" markerWidth="16" markerHeight="12" refX="16" refY="6" viewBox="0 0 16 12" orient="auto" markerUnits="userSpaceOnUse" stroke-dasharray="0,0"><path id="SvgjsPath1697" d="M0,2 L14,6 L0,11 L0,2" fill="#323232" stroke="#323232" stroke-width="2"></path></marker><marker id="SvgjsMarker1700" markerWidth="16" markerHeight="12" refX="16" refY="6" viewBox="0 0 16 12" orient="auto" markerUnits="userSpaceOnUse" stroke-dasharray="0,0"><path id="SvgjsPath1701" d="M0,2 L14,6 L0,11 L0,2" fill="#323232" stroke="#323232" stroke-width="2"></path></marker></defs><g id="SvgjsG1650" transform="translate(287,25)"><path id="SvgjsPath1651" d="M 0 4Q 0 0 4 0L 174 0Q 178 0 178 4L 178 109Q 178 113 174 113L 4 113Q 0 113 0 109Z" stroke="rgba(50,50,50,1)" stroke-width="2" fill-opacity="1" fill="#ffff66"></path><g id="SvgjsG1652"><text id="SvgjsText1653" font-family="&quot;Lucida Console&quot;" text-anchor="middle" font-size="17px" width="158px" fill="#323232" font-weight="400" align="middle" lineHeight="125%" anchor="middle" family="&quot;Lucida Console&quot;" size="17px" weight="400" font-style="" opacity="1" y="43.875" transform="rotate(0)"><tspan id="SvgjsTspan1654" dy="21" x="89"><tspan id="SvgjsTspan1655" style="text-decoration:;">Throwable</tspan></tspan></text></g></g><g id="SvgjsG1656" transform="translate(25,204)"><path id="SvgjsPath1657" d="M 0 4Q 0 0 4 0L 196 0Q 200 0 200 4L 200 109Q 200 113 196 113L 4 113Q 0 113 0 109Z" stroke="rgba(50,50,50,1)" stroke-width="2" fill-opacity="1" fill="#ff6666"></path><g id="SvgjsG1658"><text id="SvgjsText1659" font-family="&quot;Lucida Console&quot;" text-anchor="middle" font-size="17px" width="180px" fill="#323232" font-weight="400" align="middle" lineHeight="125%" anchor="middle" family="&quot;Lucida Console&quot;" size="17px" weight="400" font-style="" opacity="1" y="33.875" transform="rotate(0)"><tspan id="SvgjsTspan1660" dy="21" x="100"><tspan id="SvgjsTspan1661" style="text-decoration:;">Error</tspan></tspan><tspan id="SvgjsTspan1662" dy="21" x="100"><tspan id="SvgjsTspan1663" style="text-decoration:;">(非受查异常：不可控)</tspan></tspan></text></g></g><g id="SvgjsG1664" transform="translate(527,204)"><path id="SvgjsPath1665" d="M 0 4Q 0 0 4 0L 174 0Q 178 0 178 4L 178 109Q 178 113 174 113L 4 113Q 0 113 0 109Z" stroke="rgba(50,50,50,1)" stroke-width="2" fill-opacity="1" fill="#9999ff"></path><g id="SvgjsG1666"><text id="SvgjsText1667" font-family="&quot;Lucida Console&quot;" text-anchor="middle" font-size="17px" width="158px" fill="#323232" font-weight="400" align="middle" lineHeight="125%" anchor="middle" family="&quot;Lucida Console&quot;" size="17px" weight="400" font-style="" opacity="1" y="43.875" transform="rotate(0)"><tspan id="SvgjsTspan1668" dy="21" x="89"><tspan id="SvgjsTspan1669" style="text-decoration:;">Exception</tspan></tspan></text></g></g><g id="SvgjsG1670"><path id="SvgjsPath1671" d="M125 204L125 171L376 171L376 138" stroke="#323232" stroke-width="2" fill="none" marker-end="url(#SvgjsMarker1672)"></path></g><g id="SvgjsG1674"><path id="SvgjsPath1675" d="M616 204L616 171L376 171L376 138" stroke="#323232" stroke-width="2" fill="none" marker-end="url(#SvgjsMarker1676)"></path></g><g id="SvgjsG1678" transform="translate(287,385)"><path id="SvgjsPath1679" d="M 0 4Q 0 0 4 0L 174 0Q 178 0 178 4L 178 109Q 178 113 174 113L 4 113Q 0 113 0 109Z" stroke="rgba(50,50,50,1)" stroke-width="2" fill-opacity="1" fill="#66ffff"></path><g id="SvgjsG1680"><text id="SvgjsText1681" font-family="&quot;Lucida Console&quot;" text-anchor="middle" font-size="17px" width="158px" fill="#323232" font-weight="400" align="middle" lineHeight="125%" anchor="middle" family="&quot;Lucida Console&quot;" size="17px" weight="400" font-style="" opacity="1" y="33.875" transform="rotate(0)"><tspan id="SvgjsTspan1682" dy="21" x="89"><tspan id="SvgjsTspan1683" style="text-decoration:;">IOException</tspan></tspan><tspan id="SvgjsTspan1684" dy="21" x="89"><tspan id="SvgjsTspan1685" style="text-decoration:;">(受查异常)</tspan></tspan></text></g></g><g id="SvgjsG1686" transform="translate(767,385)"><path id="SvgjsPath1687" d="M 0 4Q 0 0 4 0L 183 0Q 187 0 187 4L 187 109Q 187 113 183 113L 4 113Q 0 113 0 109Z" stroke="rgba(50,50,50,1)" stroke-width="2" fill-opacity="1" fill="#e5e5e5"></path><g id="SvgjsG1688"><text id="SvgjsText1689" font-family="&quot;Lucida Console&quot;" text-anchor="middle" font-size="17px" width="167px" fill="#323232" font-weight="400" align="middle" lineHeight="125%" anchor="middle" family="&quot;Lucida Console&quot;" size="17px" weight="400" font-style="" opacity="1" y="33.875" transform="rotate(0)"><tspan id="SvgjsTspan1690" dy="21" x="93.5"><tspan id="SvgjsTspan1691" style="text-decoration:;">RuntimeException</tspan></tspan><tspan id="SvgjsTspan1692" dy="21" x="93.5"><tspan id="SvgjsTspan1693" style="text-decoration:;">(非受查异常：避免)</tspan></tspan></text></g></g><g id="SvgjsG1694"><path id="SvgjsPath1695" d="M376 385L376 351L616 351L616 317" stroke="#323232" stroke-width="2" fill="none" marker-end="url(#SvgjsMarker1696)"></path></g><g id="SvgjsG1698"><path id="SvgjsPath1699" d="M860.5 385L860.5 351L616 351L616 317" stroke="#323232" stroke-width="2" fill="none" marker-end="url(#SvgjsMarker1700)"></path></g></svg>