<svg id="SvgjsSvg1006" width="286" height="516.6666870117188" xmlns="http://www.w3.org/2000/svg" version="1.1" xmlns:xlink="http://www.w3.org/1999/xlink" xmlns:svgjs="http://svgjs.com/svgjs"><defs id="SvgjsDefs1007"><marker id="SvgjsMarker1036" markerWidth="16" markerHeight="12" refX="16" refY="6" viewBox="0 0 16 12" orient="auto" markerUnits="userSpaceOnUse" stroke-dasharray="0,0"><path id="SvgjsPath1037" d="M0,2 L14,6 L0,11 L0,2" fill="#323232" stroke="#323232" stroke-width="2"></path></marker><marker id="SvgjsMarker1040" markerWidth="16" markerHeight="12" refX="16" refY="6" viewBox="0 0 16 12" orient="auto" markerUnits="userSpaceOnUse" stroke-dasharray="0,0"><path id="SvgjsPath1041" d="M0,2 L14,6 L0,11 L0,2" fill="#323232" stroke="#323232" stroke-width="2"></path></marker><marker id="SvgjsMarker1044" markerWidth="16" markerHeight="12" refX="16" refY="6" viewBox="0 0 16 12" orient="auto" markerUnits="userSpaceOnUse" stroke-dasharray="0,0"><path id="SvgjsPath1045" d="M0,2 L14,6 L0,11 L0,2" fill="#323232" stroke="#323232" stroke-width="2"></path></marker></defs><g id="SvgjsG1008" transform="translate(25,24.999984741210938)"><path id="SvgjsPath1009" d="M 0 4Q 0 0 4 0L 232 0Q 236 0 236 4L 236 63Q 236 67 232 67L 4 67Q 0 67 0 63Z" stroke="rgba(50,50,50,1)" stroke-width="2" fill-opacity="1" fill="#ffcccc"></path><g id="SvgjsG1010"><text id="SvgjsText1011" font-family="&quot;Lucida Console&quot;" text-anchor="middle" font-size="19px" width="216px" fill="#323232" font-weight="400" align="middle" lineHeight="125%" anchor="middle" family="&quot;Lucida Console&quot;" size="19px" weight="400" font-style="" opacity="1" y="19.625" transform="rotate(0)"><tspan id="SvgjsTspan1012" dy="23" x="118"><tspan id="SvgjsTspan1013" style="text-decoration:;">JPA</tspan></tspan></text></g></g><g id="SvgjsG1014" transform="translate(25,273.99998474121094)"><path id="SvgjsPath1015" d="M 0 4Q 0 0 4 0L 232 0Q 236 0 236 4L 236 63Q 236 67 232 67L 4 67Q 0 67 0 63Z" stroke="rgba(50,50,50,1)" stroke-width="2" fill-opacity="1" fill="#e5ccff"></path><g id="SvgjsG1016"><text id="SvgjsText1017" font-family="&quot;Lucida Console&quot;" text-anchor="middle" font-size="19px" width="216px" fill="#323232" font-weight="400" align="middle" lineHeight="125%" anchor="middle" family="&quot;Lucida Console&quot;" size="19px" weight="400" font-style="" opacity="1" y="19.625" transform="rotate(0)"><tspan id="SvgjsTspan1018" dy="23" x="118"><tspan id="SvgjsTspan1019" style="text-decoration:;">JDBC</tspan></tspan></text></g></g><g id="SvgjsG1020" transform="translate(25,151.99998474121094)"><path id="SvgjsPath1021" d="M 0 4Q 0 0 4 0L 232 0Q 236 0 236 4L 236 63Q 236 67 232 67L 4 67Q 0 67 0 63Z" stroke="rgba(50,50,50,1)" stroke-width="2" fill-opacity="1" fill="#cfcfcf"></path><g id="SvgjsG1022"><text id="SvgjsText1023" font-family="&quot;Lucida Console&quot;" text-anchor="middle" font-size="19px" width="216px" fill="#323232" font-weight="400" align="middle" lineHeight="125%" anchor="middle" family="&quot;Lucida Console&quot;" size="19px" weight="400" font-style="" opacity="1" y="19.625" transform="rotate(0)"><tspan id="SvgjsTspan1024" dy="23" x="118"><tspan id="SvgjsTspan1025" style="text-decoration:;">ORM</tspan></tspan></text></g></g><g id="SvgjsG1026" transform="translate(26.5,394.6666507720947)"><path id="SvgjsPath1027" d="M 0 13.580000000000002C 0 -3.88 233 -3.88 233 13.580000000000002L 233 83.42C 233 100.88000000000001 0 100.88000000000001 0 83.42L 0 13.580000000000002Z" stroke="rgba(50,50,50,1)" stroke-width="2" fill-opacity="1" fill="#99ffff"></path><path id="SvgjsPath1028" d="M 233 13.580000000000002C 233 29.099999999999998 0 29.099999999999998 0 13.580000000000002L 0 19.400000000000002C 0 34.92 233 34.92 233 19.400000000000002L 233 25.220000000000002C 233 40.74 0 40.74 0 25.220000000000002C 0 40.74 233 40.74 233 25.220000000000002Z" stroke="rgba(50,50,50,1)" stroke-width="2" fill-opacity="1" fill="#99ffff"></path><path id="SvgjsPath1029" d="M 0 9.700000000000001Q 116.5 -9.700000000000001 233 9.700000000000001L 233 87.3Q 116.5 106.7 0 87.3L 0 9.700000000000001Z" stroke="none" fill="none"></path><g id="SvgjsG1030"><text id="SvgjsText1031" font-family="&quot;Lucida Console&quot;" text-anchor="middle" font-size="18px" width="233px" fill="#323232" font-weight="400" align="middle" lineHeight="125%" anchor="middle" family="&quot;Lucida Console&quot;" size="18px" weight="400" font-style="" opacity="1" y="51.41666666666667" transform="rotate(0)"><tspan id="SvgjsTspan1032" dy="22" x="116.5"><tspan id="SvgjsTspan1033" style="text-decoration:;">database</tspan></tspan></text></g></g><g id="SvgjsG1034"><path id="SvgjsPath1035" d="M143 91.99998474121094L143 121.99998474121094L143 121.99998474121094L143 151.99998474121094" stroke="#323232" stroke-width="2" fill="none" marker-end="url(#SvgjsMarker1036)"></path></g><g id="SvgjsG1038"><path id="SvgjsPath1039" d="M143 218.99998474121094L143 246.49998474121094L143 246.49998474121094L143 273.99998474121094" stroke="#323232" stroke-width="2" fill="none" marker-end="url(#SvgjsMarker1040)"></path></g><g id="SvgjsG1042"><path id="SvgjsPath1043" d="M143 340.99998474121094L143 367.83331775665283L143 367.83331775665283L143 394.6666507720947" stroke="#323232" stroke-width="2" fill="none" marker-end="url(#SvgjsMarker1044)"></path></g></svg>