<svg id="SvgjsSvg1534" width="1205.3333740234375" height="483.50001525878906" xmlns="http://www.w3.org/2000/svg" version="1.1" xmlns:xlink="http://www.w3.org/1999/xlink" xmlns:svgjs="http://svgjs.com/svgjs"><defs id="SvgjsDefs1535"><marker id="SvgjsMarker1634" markerWidth="16" markerHeight="12" refX="16" refY="6" viewBox="0 0 16 12" orient="auto" markerUnits="userSpaceOnUse" stroke-dasharray="0,0"><path id="SvgjsPath1635" d="M0,2 L14,6 L0,11 L0,2" fill="#323232" stroke="#323232" stroke-width="2"></path></marker><marker id="SvgjsMarker1638" markerWidth="16" markerHeight="12" refX="16" refY="6" viewBox="0 0 16 12" orient="auto" markerUnits="userSpaceOnUse" stroke-dasharray="0,0"><path id="SvgjsPath1639" d="M0,2 L14,6 L0,11 L0,2" fill="#323232" stroke="#323232" stroke-width="2"></path></marker><marker id="SvgjsMarker1642" markerWidth="16" markerHeight="12" refX="16" refY="6" viewBox="0 0 16 12" orient="auto" markerUnits="userSpaceOnUse" stroke-dasharray="0,0"><path id="SvgjsPath1643" d="M0,2 L14,6 L0,11 L0,2" fill="#323232" stroke="#323232" stroke-width="2"></path></marker><marker id="SvgjsMarker1646" markerWidth="16" markerHeight="12" refX="16" refY="6" viewBox="0 0 16 12" orient="auto" markerUnits="userSpaceOnUse" stroke-dasharray="0,0"><path id="SvgjsPath1647" d="M0,2 L14,6 L0,11 L0,2" fill="#323232" stroke="#323232" stroke-width="2"></path></marker></defs><g id="SvgjsG1536" transform="translate(500,25)"><path id="SvgjsPath1537" d="M 0 4Q 0 0 4 0L 236 0Q 240 0 240 4L 240 96Q 240 100 236 100L 4 100Q 0 100 0 96Z" stroke="rgba(50,50,50,1)" stroke-width="2" fill-opacity="1" fill="#b3ff66"></path><path id="SvgjsPath1538" d="M 0 30L 240 30" stroke="rgba(50,50,50,1)" stroke-width="2" fill="none"></path><path id="SvgjsPath1539" d="M 0 0L 240 0L 240 100L 0 100Z" stroke="none" fill="none"></path><g id="SvgjsG1540"><text id="SvgjsText1541" font-family="&quot;Lucida Console&quot;" text-anchor="middle" font-size="13px" width="220px" fill="#323232" font-weight="700" align="middle" lineHeight="125%" anchor="middle" family="&quot;Lucida Console&quot;" size="13px" weight="700" font-style="" opacity="1" y="5.375" transform="rotate(0)"><tspan id="SvgjsTspan1542" dy="16" x="120"><tspan id="SvgjsTspan1543" style="text-decoration:;">Type</tspan></tspan></text></g><g id="SvgjsG1544"><text id="SvgjsText1545" font-family="&quot;Lucida Console&quot;" text-anchor="start" font-size="13px" width="220px" fill="#323232" font-weight="400" align="middle" lineHeight="125%" anchor="start" family="&quot;Lucida Console&quot;" size="13px" weight="400" font-style="" opacity="1" y="55.375" transform="rotate(0)"><tspan id="SvgjsTspan1546" dy="16" x="10"><tspan id="SvgjsTspan1547" style="text-decoration:;">default String getTypeName()</tspan></tspan></text></g></g><g id="SvgjsG1548" transform="translate(670,265.5)"><path id="SvgjsPath1549" d="M 0 4Q 0 0 4 0L 212.3333282470703 0Q 216.3333282470703 0 216.3333282470703 4L 216.3333282470703 189Q 216.3333282470703 193 212.3333282470703 193L 4 193Q 0 193 0 189Z" stroke="rgba(50,50,50,1)" stroke-width="2" fill-opacity="1" fill="#ffcccc"></path><path id="SvgjsPath1550" d="M 0 30L 216.3333282470703 30" stroke="rgba(50,50,50,1)" stroke-width="2" fill="none"></path><path id="SvgjsPath1551" d="M 0 0L 216.3333282470703 0L 216.3333282470703 193L 0 193Z" stroke="none" fill="none"></path><g id="SvgjsG1552"><text id="SvgjsText1553" font-family="&quot;Lucida Console&quot;" text-anchor="middle" font-size="13px" width="197px" fill="#323232" font-weight="700" align="middle" lineHeight="125%" anchor="middle" family="&quot;Lucida Console&quot;" size="13px" weight="700" font-style="" opacity="1" y="5.375" transform="rotate(0)"><tspan id="SvgjsTspan1554" dy="16" x="108.5"><tspan id="SvgjsTspan1555" style="text-decoration:;">WildcardType</tspan></tspan></text></g><g id="SvgjsG1556"><text id="SvgjsText1557" font-family="&quot;Lucida Console&quot;" text-anchor="start" font-size="13px" width="197px" fill="#323232" font-weight="400" align="middle" lineHeight="125%" anchor="start" family="&quot;Lucida Console&quot;" size="13px" weight="400" font-style="" opacity="1" y="69.875" transform="rotate(0)"><tspan id="SvgjsTspan1558" dy="16" x="10"><tspan id="SvgjsTspan1559" style="text-decoration:;"> </tspan></tspan><tspan id="SvgjsTspan1560" dy="16" x="10"><tspan id="SvgjsTspan1561" style="text-decoration:;">Type[] getUpperBounds()</tspan></tspan><tspan id="SvgjsTspan1562" dy="16" x="10"><tspan id="SvgjsTspan1563" style="text-decoration:;"> </tspan></tspan><tspan id="SvgjsTspan1564" dy="16" x="10"><tspan id="SvgjsTspan1565" style="text-decoration:;">Type[] getLowerBounds()</tspan></tspan><tspan id="SvgjsTspan1566" dy="16" x="10"><tspan id="SvgjsTspan1567" style="text-decoration:;"> </tspan></tspan></text></g></g><g id="SvgjsG1568" transform="translate(324,266.75)"><path id="SvgjsPath1569" d="M 0 4Q 0 0 4 0L 318 0Q 322 0 322 4L 322 184Q 322 188 318 188L 4 188Q 0 188 0 184Z" stroke="rgba(50,50,50,1)" stroke-width="2" fill-opacity="1" fill="#ffcccc"></path><path id="SvgjsPath1570" d="M 0 30L 322 30" stroke="rgba(50,50,50,1)" stroke-width="2" fill="none"></path><path id="SvgjsPath1571" d="M 0 0L 322 0L 322 188L 0 188Z" stroke="none" fill="none"></path><g id="SvgjsG1572"><text id="SvgjsText1573" font-family="&quot;Lucida Console&quot;" text-anchor="middle" font-size="13px" width="302px" fill="#323232" font-weight="700" align="middle" lineHeight="125%" anchor="middle" family="&quot;Lucida Console&quot;" size="13px" weight="700" font-style="" opacity="1" y="5.375" transform="rotate(0)"><tspan id="SvgjsTspan1574" dy="16" x="161"><tspan id="SvgjsTspan1575" style="text-decoration:;">TypeVariable</tspan></tspan></text></g><g id="SvgjsG1576"><text id="SvgjsText1577" font-family="&quot;Lucida Console&quot;" text-anchor="start" font-size="13px" width="302px" fill="#323232" font-weight="400" align="middle" lineHeight="125%" anchor="start" family="&quot;Lucida Console&quot;" size="13px" weight="400" font-style="" opacity="1" y="35.375" transform="rotate(0)"><tspan id="SvgjsTspan1578" dy="16" x="10"><tspan id="SvgjsTspan1579" style="text-decoration:;"> </tspan></tspan><tspan id="SvgjsTspan1580" dy="16" x="10"><tspan id="SvgjsTspan1581" style="text-decoration:;">Type[] getUpperBounds()</tspan></tspan><tspan id="SvgjsTspan1582" dy="16" x="10"><tspan id="SvgjsTspan1583" style="text-decoration:;"> </tspan></tspan><tspan id="SvgjsTspan1584" dy="16" x="10"><tspan id="SvgjsTspan1585" style="text-decoration:;">D getGenericDeclaration()</tspan></tspan><tspan id="SvgjsTspan1586" dy="16" x="10"><tspan id="SvgjsTspan1587" style="text-decoration:;"> </tspan></tspan><tspan id="SvgjsTspan1588" dy="16" x="10"><tspan id="SvgjsTspan1589" style="text-decoration:;">String getName()</tspan></tspan><tspan id="SvgjsTspan1590" dy="16" x="10"><tspan id="SvgjsTspan1591" style="text-decoration:;"> </tspan></tspan><tspan id="SvgjsTspan1592" dy="16" x="10"><tspan id="SvgjsTspan1593" style="text-decoration:;">AnnotatedType[] getAnnotatedBounds()</tspan></tspan><tspan id="SvgjsTspan1594" dy="16" x="10"><tspan id="SvgjsTspan1595" style="text-decoration:;"> </tspan></tspan></text></g></g><g id="SvgjsG1596" transform="translate(911.3333282470703,265.5)"><path id="SvgjsPath1597" d="M 0 4Q 0 0 4 0L 264.6666717529297 0Q 268.6666717529297 0 268.6666717529297 4L 268.6666717529297 186.5Q 268.6666717529297 190.5 264.6666717529297 190.5L 4 190.5Q 0 190.5 0 186.5Z" stroke="rgba(50,50,50,1)" stroke-width="2" fill-opacity="1" fill="#ffcccc"></path><path id="SvgjsPath1598" d="M 0 30L 268.6666717529297 30" stroke="rgba(50,50,50,1)" stroke-width="2" fill="none"></path><path id="SvgjsPath1599" d="M 0 0L 268.6666717529297 0L 268.6666717529297 190.5L 0 190.5Z" stroke="none" fill="none"></path><g id="SvgjsG1600"><text id="SvgjsText1601" font-family="&quot;Lucida Console&quot;" text-anchor="middle" font-size="13px" width="249px" fill="#323232" font-weight="700" align="middle" lineHeight="125%" anchor="middle" family="&quot;Lucida Console&quot;" size="13px" weight="700" font-style="" opacity="1" y="5.375" transform="rotate(0)"><tspan id="SvgjsTspan1602" dy="16" x="134.5"><tspan id="SvgjsTspan1603" style="text-decoration:;">ParameterizedType</tspan></tspan></text></g><g id="SvgjsG1604"><text id="SvgjsText1605" font-family="&quot;Lucida Console&quot;" text-anchor="start" font-size="13px" width="249px" fill="#323232" font-weight="400" align="middle" lineHeight="125%" anchor="start" family="&quot;Lucida Console&quot;" size="13px" weight="400" font-style="" opacity="1" y="52.625" transform="rotate(0)"><tspan id="SvgjsTspan1606" dy="16" x="10"><tspan id="SvgjsTspan1607" style="text-decoration:;"> </tspan></tspan><tspan id="SvgjsTspan1608" dy="16" x="10"><tspan id="SvgjsTspan1609" style="text-decoration:;">Type[] getActualTypeArguments()</tspan></tspan><tspan id="SvgjsTspan1610" dy="16" x="10"><tspan id="SvgjsTspan1611" style="text-decoration:;"> </tspan></tspan><tspan id="SvgjsTspan1612" dy="16" x="10"><tspan id="SvgjsTspan1613" style="text-decoration:;">Type getRawType()</tspan></tspan><tspan id="SvgjsTspan1614" dy="16" x="10"><tspan id="SvgjsTspan1615" style="text-decoration:;"> </tspan></tspan><tspan id="SvgjsTspan1616" dy="16" x="10"><tspan id="SvgjsTspan1617" style="text-decoration:;">Type getOwnerType()</tspan></tspan><tspan id="SvgjsTspan1618" dy="16" x="10"><tspan id="SvgjsTspan1619" style="text-decoration:;"> </tspan></tspan></text></g></g><g id="SvgjsG1620" transform="translate(25,265.5)"><path id="SvgjsPath1621" d="M 0 4Q 0 0 4 0L 263.3333282470703 0Q 267.3333282470703 0 267.3333282470703 4L 267.3333282470703 186.5Q 267.3333282470703 190.5 263.3333282470703 190.5L 4 190.5Q 0 190.5 0 186.5Z" stroke="rgba(50,50,50,1)" stroke-width="2" fill-opacity="1" fill="#ffcccc"></path><path id="SvgjsPath1622" d="M 0 30L 267.3333282470703 30" stroke="rgba(50,50,50,1)" stroke-width="2" fill="none"></path><path id="SvgjsPath1623" d="M 0 0L 267.3333282470703 0L 267.3333282470703 190.5L 0 190.5Z" stroke="none" fill="none"></path><g id="SvgjsG1624"><text id="SvgjsText1625" font-family="&quot;Lucida Console&quot;" text-anchor="middle" font-size="13px" width="248px" fill="#323232" font-weight="700" align="middle" lineHeight="125%" anchor="middle" family="&quot;Lucida Console&quot;" size="13px" weight="700" font-style="" opacity="1" y="5.375" transform="rotate(0)"><tspan id="SvgjsTspan1626" dy="16" x="134"><tspan id="SvgjsTspan1627" style="text-decoration:;">GenericArrayType</tspan></tspan></text></g><g id="SvgjsG1628"><text id="SvgjsText1629" font-family="&quot;Lucida Console&quot;" text-anchor="start" font-size="13px" width="248px" fill="#323232" font-weight="400" align="middle" lineHeight="125%" anchor="start" family="&quot;Lucida Console&quot;" size="13px" weight="400" font-style="" opacity="1" y="100.625" transform="rotate(0)"><tspan id="SvgjsTspan1630" dy="16" x="10"><tspan id="SvgjsTspan1631" style="text-decoration:;">Type getGenericComponentType()</tspan></tspan></text></g></g><g id="SvgjsG1632"><path id="SvgjsPath1633" d="M485 266.75L485 195.875L620 195.875L620 125" stroke="#323232" stroke-width="2" fill="none" marker-end="url(#SvgjsMarker1634)"></path></g><g id="SvgjsG1636"><path id="SvgjsPath1637" d="M158.66666412353516 265.5L158.66666412353516 195.25L620 195.25L620 125" stroke="#323232" stroke-width="2" fill="none" marker-end="url(#SvgjsMarker1638)"></path></g><g id="SvgjsG1640"><path id="SvgjsPath1641" d="M778.1666641235352 265.5L778.1666641235352 195.25L620 195.25L620 125" stroke="#323232" stroke-width="2" fill="none" marker-end="url(#SvgjsMarker1642)"></path></g><g id="SvgjsG1644"><path id="SvgjsPath1645" d="M1045.6666641235352 265.5L1045.6666641235352 195.25L620 195.25L620 125" stroke="#323232" stroke-width="2" fill="none" marker-end="url(#SvgjsMarker1646)"></path></g></svg>