<svg id="SvgjsSvg1130" width="704" height="472" xmlns="http://www.w3.org/2000/svg" version="1.1" xmlns:xlink="http://www.w3.org/1999/xlink" xmlns:svgjs="http://svgjs.com/svgjs"><defs id="SvgjsDefs1131"></defs><g id="SvgjsG1132" transform="translate(215,25)"><path id="SvgjsPath1133" d="M 0 7L 218.66666666666666 7L 218.66666666666666 63L 0 63L 0 7Z" stroke="rgba(50,50,50,1)" stroke-width="2" fill-opacity="1" fill="#6666ff"></path><path id="SvgjsPath1134" d="M 0 7L 27.333333333333332 0L 246 0L 246 56L 218.66666666666666 63L 218.66666666666666 7L 0 7ZM 218.66666666666666 7L 246 0" stroke="rgba(50,50,50,1)" stroke-width="2" fill-opacity="1" fill="#e6e6e6"></path><path id="SvgjsPath1135" d="M 0 0L 246 0L 246 63L 0 63Z" stroke="none" fill="none"></path><g id="SvgjsG1136"><text id="SvgjsText1137" font-family="&quot;Lucida Console&quot;" text-anchor="middle" font-size="17px" width="199px" fill="#323232" font-weight="400" align="middle" lineHeight="125%" anchor="middle" family="&quot;Lucida Console&quot;" size="17px" weight="400" font-style="" opacity="1" y="12.375" transform="rotate(0)"><tspan id="SvgjsTspan1138" dy="21" x="109.5"><tspan id="SvgjsTspan1139" style="text-decoration:;">Bootstrap </tspan></tspan><tspan id="SvgjsTspan1140" dy="21" x="109.5"><tspan id="SvgjsTspan1141" style="text-decoration:;">classloader</tspan></tspan></text></g></g><g id="SvgjsG1142" transform="translate(215,146)"><path id="SvgjsPath1143" d="M 0 7L 218.66666666666666 7L 218.66666666666666 63L 0 63L 0 7Z" stroke="rgba(50,50,50,1)" stroke-width="2" fill-opacity="1" fill="#99ccff"></path><path id="SvgjsPath1144" d="M 0 7L 27.333333333333332 0L 246 0L 246 56L 218.66666666666666 63L 218.66666666666666 7L 0 7ZM 218.66666666666666 7L 246 0" stroke="rgba(50,50,50,1)" stroke-width="2" fill-opacity="1" fill="#e6e6e6"></path><path id="SvgjsPath1145" d="M 0 0L 246 0L 246 63L 0 63Z" stroke="none" fill="none"></path><g id="SvgjsG1146"><text id="SvgjsText1147" font-family="&quot;Lucida Console&quot;" text-anchor="middle" font-size="17px" width="199px" fill="#323232" font-weight="400" align="middle" lineHeight="125%" anchor="middle" family="&quot;Lucida Console&quot;" size="17px" weight="400" font-style="" opacity="1" y="12.375" transform="rotate(0)"><tspan id="SvgjsTspan1148" dy="21" x="109.5"><tspan id="SvgjsTspan1149" style="text-decoration:;">Extension</tspan></tspan><tspan id="SvgjsTspan1150" dy="21" x="109.5"><tspan id="SvgjsTspan1151" style="text-decoration:;">classloader</tspan></tspan></text></g></g><g id="SvgjsG1152" transform="translate(215,263)"><path id="SvgjsPath1153" d="M 0 7L 218.66666666666666 7L 218.66666666666666 63L 0 63L 0 7Z" stroke="rgba(50,50,50,1)" stroke-width="2" fill-opacity="1" fill="#99ffff"></path><path id="SvgjsPath1154" d="M 0 7L 27.333333333333332 0L 246 0L 246 56L 218.66666666666666 63L 218.66666666666666 7L 0 7ZM 218.66666666666666 7L 246 0" stroke="rgba(50,50,50,1)" stroke-width="2" fill-opacity="1" fill="#e6e6e6"></path><path id="SvgjsPath1155" d="M 0 0L 246 0L 246 63L 0 63Z" stroke="none" fill="none"></path><g id="SvgjsG1156"><text id="SvgjsText1157" font-family="&quot;Lucida Console&quot;" text-anchor="middle" font-size="17px" width="199px" fill="#323232" font-weight="400" align="middle" lineHeight="125%" anchor="middle" family="&quot;Lucida Console&quot;" size="17px" weight="400" font-style="" opacity="1" y="12.375" transform="rotate(0)"><tspan id="SvgjsTspan1158" dy="21" x="109.5"><tspan id="SvgjsTspan1159" style="text-decoration:;">System </tspan></tspan><tspan id="SvgjsTspan1160" dy="21" x="109.5"><tspan id="SvgjsTspan1161" style="text-decoration:;">classloader</tspan></tspan></text></g></g><g id="SvgjsG1162" transform="translate(215,384)"><path id="SvgjsPath1163" d="M 0 7L 218.66666666666666 7L 218.66666666666666 63L 0 63L 0 7Z" stroke="rgba(50,50,50,1)" stroke-width="2" fill-opacity="1" fill="#ff6666"></path><path id="SvgjsPath1164" d="M 0 7L 27.333333333333332 0L 246 0L 246 56L 218.66666666666666 63L 218.66666666666666 7L 0 7ZM 218.66666666666666 7L 246 0" stroke="rgba(50,50,50,1)" stroke-width="2" fill-opacity="1" fill="#e6e6e6"></path><path id="SvgjsPath1165" d="M 0 0L 246 0L 246 63L 0 63Z" stroke="none" fill="none"></path><g id="SvgjsG1166"><text id="SvgjsText1167" font-family="&quot;Lucida Console&quot;" text-anchor="middle" font-size="17px" width="199px" fill="#323232" font-weight="400" align="middle" lineHeight="125%" anchor="middle" family="&quot;Lucida Console&quot;" size="17px" weight="400" font-style="" opacity="1" y="12.375" transform="rotate(0)"><tspan id="SvgjsTspan1168" dy="21" x="109.5"><tspan id="SvgjsTspan1169" style="text-decoration:;">System </tspan></tspan><tspan id="SvgjsTspan1170" dy="21" x="109.5"><tspan id="SvgjsTspan1171" style="text-decoration:;">classloader</tspan></tspan></text></g></g><g id="SvgjsG1172" transform="translate(25,25)"><path id="SvgjsPath1173" d="M 77 0L 154 77L 103.18 77L 103.18 422L 50.82 422L 50.82 77L 0 77L 77 0Z" stroke="rgba(50,50,50,1)" stroke-width="2" fill-opacity="1" fill="#ffffcc"></path><g id="SvgjsG1174"><text id="SvgjsText1175" font-family="微软雅黑" text-anchor="middle" font-size="16px" width="216px" fill="#323232" font-weight="400" align="middle" lineHeight="125%" anchor="middle" family="微软雅黑" size="16px" weight="400" font-style="" opacity="1" y="70.10000000000001" transform="rotate(0)"><tspan id="SvgjsTspan1176" dy="20" x="77.2"><tspan id="SvgjsTspan1177" style="text-decoration:;">自</tspan></tspan><tspan id="SvgjsTspan1178" dy="20" x="77.2"><tspan id="SvgjsTspan1179" style="text-decoration:;">底</tspan></tspan><tspan id="SvgjsTspan1180" dy="20" x="77.2"><tspan id="SvgjsTspan1181" style="text-decoration:;">向</tspan></tspan><tspan id="SvgjsTspan1182" dy="20" x="77.2"><tspan id="SvgjsTspan1183" style="text-decoration:;">上</tspan></tspan><tspan id="SvgjsTspan1184" dy="20" x="77.2"><tspan id="SvgjsTspan1185" style="text-decoration:;">检</tspan></tspan><tspan id="SvgjsTspan1186" dy="20" x="77.2"><tspan id="SvgjsTspan1187" style="text-decoration:;">查</tspan></tspan><tspan id="SvgjsTspan1188" dy="20" x="77.2"><tspan id="SvgjsTspan1189" style="text-decoration:;">是</tspan></tspan><tspan id="SvgjsTspan1190" dy="20" x="77.2"><tspan id="SvgjsTspan1191" style="text-decoration:;">否</tspan></tspan><tspan id="SvgjsTspan1192" dy="20" x="77.2"><tspan id="SvgjsTspan1193" style="text-decoration:;">装</tspan></tspan><tspan id="SvgjsTspan1194" dy="20" x="77.2"><tspan id="SvgjsTspan1195" style="text-decoration:;">载</tspan></tspan><tspan id="SvgjsTspan1196" dy="20" x="77.2"><tspan id="SvgjsTspan1197" style="text-decoration:;">相</tspan></tspan><tspan id="SvgjsTspan1198" dy="20" x="77.2"><tspan id="SvgjsTspan1199" style="text-decoration:;">应</tspan></tspan><tspan id="SvgjsTspan1200" dy="20" x="77.2"><tspan id="SvgjsTspan1201" style="text-decoration:;">的</tspan></tspan><tspan id="SvgjsTspan1202" dy="20" x="77.2"><tspan id="SvgjsTspan1203" style="text-decoration:;">加</tspan></tspan><tspan id="SvgjsTspan1204" dy="20" x="77.2"><tspan id="SvgjsTspan1205" style="text-decoration:;">载</tspan></tspan><tspan id="SvgjsTspan1206" dy="20" x="77.2"><tspan id="SvgjsTspan1207" style="text-decoration:;">器</tspan></tspan></text></g></g><g id="SvgjsG1208" transform="translate(496,25)"><path id="SvgjsPath1209" d="M 60.39 0L 122.61000000000001 0L 122.61000000000001 330.5L 183 330.5L 91.5 422L 0 330.5L 60.39 330.5L 60.39 0Z" stroke="rgba(50,50,50,1)" stroke-width="2" fill-opacity="1" fill="#ffccff"></path><g id="SvgjsG1210"><text id="SvgjsText1211" font-family="微软雅黑" text-anchor="middle" font-size="15px" width="257px" fill="#323232" font-weight="400" align="middle" lineHeight="125%" anchor="middle" family="微软雅黑" size="15px" weight="400" font-style="" opacity="1" y="57.52500000000002" transform="rotate(0)"><tspan id="SvgjsTspan1212" dy="18" x="91.9"><tspan id="SvgjsTspan1213" style="text-decoration:;">自</tspan></tspan><tspan id="SvgjsTspan1214" dy="18" x="91.9"><tspan id="SvgjsTspan1215" style="text-decoration:;">顶</tspan></tspan><tspan id="SvgjsTspan1216" dy="18" x="91.9"><tspan id="SvgjsTspan1217" style="text-decoration:;">而</tspan></tspan><tspan id="SvgjsTspan1218" dy="18" x="91.9"><tspan id="SvgjsTspan1219" style="text-decoration:;">下</tspan></tspan><tspan id="SvgjsTspan1220" dy="18" x="91.9"><tspan id="SvgjsTspan1221" style="text-decoration:;">调</tspan></tspan><tspan id="SvgjsTspan1222" dy="18" x="91.9"><tspan id="SvgjsTspan1223" style="text-decoration:;">用</tspan></tspan><tspan id="SvgjsTspan1224" dy="18" x="91.9"><tspan id="SvgjsTspan1225" style="text-decoration:;">加</tspan></tspan><tspan id="SvgjsTspan1226" dy="18" x="91.9"><tspan id="SvgjsTspan1227" style="text-decoration:;">载</tspan></tspan><tspan id="SvgjsTspan1228" dy="18" x="91.9"><tspan id="SvgjsTspan1229" style="text-decoration:;">器</tspan></tspan><tspan id="SvgjsTspan1230" dy="18" x="91.9"><tspan id="SvgjsTspan1231" style="text-decoration:;">尝</tspan></tspan><tspan id="SvgjsTspan1232" dy="18" x="91.9"><tspan id="SvgjsTspan1233" style="text-decoration:;">试</tspan></tspan><tspan id="SvgjsTspan1234" dy="18" x="91.9"><tspan id="SvgjsTspan1235" style="text-decoration:;">类</tspan></tspan><tspan id="SvgjsTspan1236" dy="18" x="91.9"><tspan id="SvgjsTspan1237" style="text-decoration:;">加</tspan></tspan><tspan id="SvgjsTspan1238" dy="18" x="91.9"><tspan id="SvgjsTspan1239" style="text-decoration:;">载</tspan></tspan></text></g></g></svg>