<svg id="SvgjsSvg1050" width="708" height="586.6666870117188" xmlns="http://www.w3.org/2000/svg" version="1.1" xmlns:xlink="http://www.w3.org/1999/xlink" xmlns:svgjs="http://svgjs.com/svgjs"><defs id="SvgjsDefs1051"><marker id="SvgjsMarker1078" markerWidth="16" markerHeight="12" refX="16" refY="6" viewBox="0 0 16 12" orient="auto" markerUnits="userSpaceOnUse" stroke-dasharray="0,0"><path id="SvgjsPath1079" d="M0,2 L14,6 L0,11 L0,2" fill="#323232" stroke="#323232" stroke-width="2"></path></marker><marker id="SvgjsMarker1082" markerWidth="16" markerHeight="12" refX="16" refY="6" viewBox="0 0 16 12" orient="auto" markerUnits="userSpaceOnUse" stroke-dasharray="0,0"><path id="SvgjsPath1083" d="M0,2 L14,6 L0,11 L0,2" fill="#323232" stroke="#323232" stroke-width="2"></path></marker><marker id="SvgjsMarker1116" markerWidth="16" markerHeight="12" refX="16" refY="6" viewBox="0 0 16 12" orient="auto" markerUnits="userSpaceOnUse" stroke-dasharray="0,0"><path id="SvgjsPath1117" d="M0,2 L14,6 L0,11 L0,2" fill="#323232" stroke="#323232" stroke-width="2"></path></marker><marker id="SvgjsMarker1120" markerWidth="16" markerHeight="12" refX="16" refY="6" viewBox="0 0 16 12" orient="auto" markerUnits="userSpaceOnUse" stroke-dasharray="0,0"><path id="SvgjsPath1121" d="M0,2 L14,6 L0,11 L0,2" fill="#323232" stroke="#323232" stroke-width="2"></path></marker><marker id="SvgjsMarker1124" markerWidth="16" markerHeight="12" refX="16" refY="6" viewBox="0 0 16 12" orient="auto" markerUnits="userSpaceOnUse" stroke-dasharray="0,0"><path id="SvgjsPath1125" d="M0,2 L14,6 L0,11 L0,2" fill="#323232" stroke="#323232" stroke-width="2"></path></marker><marker id="SvgjsMarker1128" markerWidth="16" markerHeight="12" refX="16" refY="6" viewBox="0 0 16 12" orient="auto" markerUnits="userSpaceOnUse" stroke-dasharray="0,0"><path id="SvgjsPath1129" d="M0,2 L14,6 L0,11 L0,2" fill="#323232" stroke="#323232" stroke-width="2"></path></marker></defs><g id="SvgjsG1052" transform="translate(87,348)"><path id="SvgjsPath1053" d="M 0 86.5L 0 0L 138 0L 138 86.5Q 103.5 63.5 69 86.5Q 34.5 109.5 0 86.5Z" stroke="rgba(50,50,50,1)" stroke-width="2" fill-opacity="1" fill="#ccffcc"></path><g id="SvgjsG1054"><text id="SvgjsText1055" font-family="&quot;Lucida Console&quot;" text-anchor="middle" font-size="17px" width="138px" fill="#323232" font-weight="400" align="middle" lineHeight="125%" anchor="middle" family="&quot;Lucida Console&quot;" size="17px" weight="400" font-style="" opacity="1" y="21.475" transform="rotate(0)"><tspan id="SvgjsTspan1056" dy="21" x="69"><tspan id="SvgjsTspan1057" style="text-decoration:;">字节码文件</tspan></tspan><tspan id="SvgjsTspan1058" dy="21" x="69"><tspan id="SvgjsTspan1059" style="text-decoration:;">.class</tspan></tspan></text></g></g><g id="SvgjsG1060" transform="translate(87,32)"><path id="SvgjsPath1061" d="M 0 86.5L 0 0L 138 0L 138 86.5Q 103.5 63.5 69 86.5Q 34.5 109.5 0 86.5Z" stroke="rgba(50,50,50,1)" stroke-width="2" fill-opacity="1" fill="#ffcce6"></path><g id="SvgjsG1062"><text id="SvgjsText1063" font-family="&quot;Lucida Console&quot;" text-anchor="middle" font-size="17px" width="138px" fill="#323232" font-weight="400" align="middle" lineHeight="125%" anchor="middle" family="&quot;Lucida Console&quot;" size="17px" weight="400" font-style="" opacity="1" y="21.475" transform="rotate(0)"><tspan id="SvgjsTspan1064" dy="21" x="69"><tspan id="SvgjsTspan1065" style="text-decoration:;">源文件</tspan></tspan><tspan id="SvgjsTspan1066" dy="21" x="69"><tspan id="SvgjsTspan1067" style="text-decoration:;">.java</tspan></tspan></text></g></g><g id="SvgjsG1068" transform="translate(33,207)"><path id="SvgjsPath1069" d="M 0 7L 218.66666666666666 7L 218.66666666666666 63L 0 63L 0 7Z" stroke="rgba(50,50,50,1)" stroke-width="2" fill-opacity="1" fill="#ffffcc"></path><path id="SvgjsPath1070" d="M 0 7L 27.333333333333332 0L 246 0L 246 56L 218.66666666666666 63L 218.66666666666666 7L 0 7ZM 218.66666666666666 7L 246 0" stroke="rgba(50,50,50,1)" stroke-width="2" fill-opacity="1" fill="#e6e6e6"></path><path id="SvgjsPath1071" d="M 0 0L 246 0L 246 63L 0 63Z" stroke="none" fill="none"></path><g id="SvgjsG1072"><text id="SvgjsText1073" font-family="&quot;Lucida Console&quot;" text-anchor="middle" font-size="17px" width="199px" fill="#323232" font-weight="400" align="middle" lineHeight="125%" anchor="middle" family="&quot;Lucida Console&quot;" size="17px" weight="400" font-style="" opacity="1" y="22.375" transform="rotate(0)"><tspan id="SvgjsTspan1074" dy="21" x="109.5"><tspan id="SvgjsTspan1075" style="text-decoration:;">Java编译器</tspan></tspan></text></g></g><g id="SvgjsG1076"><path id="SvgjsPath1077" d="M156 118.5L156 162.75L156 162.75L156 207" stroke="#323232" stroke-width="2" fill="none" marker-end="url(#SvgjsMarker1078)"></path></g><g id="SvgjsG1080"><path id="SvgjsPath1081" d="M156 270L156 309L156 309L156 348" stroke="#323232" stroke-width="2" fill="none" marker-end="url(#SvgjsMarker1082)"></path></g><g id="SvgjsG1084" transform="translate(405,55)"><path id="SvgjsPath1085" d="M 0 7L 218.66666666666666 7L 218.66666666666666 63L 0 63L 0 7Z" stroke="rgba(50,50,50,1)" stroke-width="2" fill-opacity="1" fill="#6666ff"></path><path id="SvgjsPath1086" d="M 0 7L 27.333333333333332 0L 246 0L 246 56L 218.66666666666666 63L 218.66666666666666 7L 0 7ZM 218.66666666666666 7L 246 0" stroke="rgba(50,50,50,1)" stroke-width="2" fill-opacity="1" fill="#e6e6e6"></path><path id="SvgjsPath1087" d="M 0 0L 246 0L 246 63L 0 63Z" stroke="none" fill="none"></path><g id="SvgjsG1088"><text id="SvgjsText1089" font-family="&quot;Lucida Console&quot;" text-anchor="middle" font-size="17px" width="199px" fill="#323232" font-weight="400" align="middle" lineHeight="125%" anchor="middle" family="&quot;Lucida Console&quot;" size="17px" weight="400" font-style="" opacity="1" y="22.375" transform="rotate(0)"><tspan id="SvgjsTspan1090" dy="21" x="109.5"><tspan id="SvgjsTspan1091" style="text-decoration:;">类加载器</tspan></tspan></text></g></g><g id="SvgjsG1092" transform="translate(405,207)"><path id="SvgjsPath1093" d="M 0 7L 218.66666666666666 7L 218.66666666666666 63L 0 63L 0 7Z" stroke="rgba(50,50,50,1)" stroke-width="2" fill-opacity="1" fill="#99ccff"></path><path id="SvgjsPath1094" d="M 0 7L 27.333333333333332 0L 246 0L 246 56L 218.66666666666666 63L 218.66666666666666 7L 0 7ZM 218.66666666666666 7L 246 0" stroke="rgba(50,50,50,1)" stroke-width="2" fill-opacity="1" fill="#e6e6e6"></path><path id="SvgjsPath1095" d="M 0 0L 246 0L 246 63L 0 63Z" stroke="none" fill="none"></path><g id="SvgjsG1096"><text id="SvgjsText1097" font-family="&quot;Lucida Console&quot;" text-anchor="middle" font-size="17px" width="199px" fill="#323232" font-weight="400" align="middle" lineHeight="125%" anchor="middle" family="&quot;Lucida Console&quot;" size="17px" weight="400" font-style="" opacity="1" y="22.375" transform="rotate(0)"><tspan id="SvgjsTspan1098" dy="21" x="109.5"><tspan id="SvgjsTspan1099" style="text-decoration:;">字节码校验器</tspan></tspan></text></g></g><g id="SvgjsG1100" transform="translate(405,352)"><path id="SvgjsPath1101" d="M 0 7L 218.66666666666666 7L 218.66666666666666 63L 0 63L 0 7Z" stroke="rgba(50,50,50,1)" stroke-width="2" fill-opacity="1" fill="#99ffff"></path><path id="SvgjsPath1102" d="M 0 7L 27.333333333333332 0L 246 0L 246 56L 218.66666666666666 63L 218.66666666666666 7L 0 7ZM 218.66666666666666 7L 246 0" stroke="rgba(50,50,50,1)" stroke-width="2" fill-opacity="1" fill="#e6e6e6"></path><path id="SvgjsPath1103" d="M 0 0L 246 0L 246 63L 0 63Z" stroke="none" fill="none"></path><g id="SvgjsG1104"><text id="SvgjsText1105" font-family="&quot;Lucida Console&quot;" text-anchor="middle" font-size="17px" width="199px" fill="#323232" font-weight="400" align="middle" lineHeight="125%" anchor="middle" family="&quot;Lucida Console&quot;" size="17px" weight="400" font-style="" opacity="1" y="22.375" transform="rotate(0)"><tspan id="SvgjsTspan1106" dy="21" x="109.5"><tspan id="SvgjsTspan1107" style="text-decoration:;">解释器</tspan></tspan></text></g></g><g id="SvgjsG1108" transform="translate(25,490.6666660308838)"><path id="SvgjsPath1109" d="M 0 4Q 0 0 4 0L 654 0Q 658 0 658 4L 658 67Q 658 71 654 71L 4 71Q 0 71 0 67Z" stroke="rgba(50,50,50,1)" stroke-width="2" fill-opacity="1" fill="#a1a1a1"></path><g id="SvgjsG1110"><text id="SvgjsText1111" font-family="楷体" text-anchor="middle" font-size="26px" width="638px" fill="#323232" font-weight="700" align="middle" lineHeight="125%" anchor="middle" family="楷体" size="26px" weight="700" font-style="" opacity="1" y="14.25" transform="rotate(0)"><tspan id="SvgjsTspan1112" dy="32" x="329"><tspan id="SvgjsTspan1113" style="text-decoration:;">底层操作系统平台</tspan></tspan></text></g></g><g id="SvgjsG1114"><path id="SvgjsPath1115" d="M225 397L327 397L327 25L528 25L528 55" stroke="#323232" stroke-width="2" fill="none" marker-end="url(#SvgjsMarker1116)"></path></g><g id="SvgjsG1118"><path id="SvgjsPath1119" d="M528 118L528 162.5L528 162.5L528 207" stroke="#323232" stroke-width="2" fill="none" marker-end="url(#SvgjsMarker1120)"></path></g><g id="SvgjsG1122"><path id="SvgjsPath1123" d="M528 270L528 311L528 311L528 352" stroke="#323232" stroke-width="2" fill="none" marker-end="url(#SvgjsMarker1124)"></path></g><g id="SvgjsG1126"><path id="SvgjsPath1127" d="M528 415L528 452.8333330154419L354 452.8333330154419L354 490.6666660308838" stroke="#323232" stroke-width="2" fill="none" marker-end="url(#SvgjsMarker1128)"></path></g></svg>