<svg id="SvgjsSvg1324" width="485" height="1122.6666870117188" xmlns="http://www.w3.org/2000/svg" version="1.1" xmlns:xlink="http://www.w3.org/1999/xlink" xmlns:svgjs="http://svgjs.com/svgjs"><defs id="SvgjsDefs1325"><marker id="SvgjsMarker1334" markerWidth="16" markerHeight="12" refX="16" refY="6" viewBox="0 0 16 12" orient="auto" markerUnits="userSpaceOnUse" stroke-dasharray="0,0"><path id="SvgjsPath1335" d="M0,2 L14,6 L0,11 L0,2" fill="#323232" stroke="#323232" stroke-width="2"></path></marker><marker id="SvgjsMarker1350" markerWidth="16" markerHeight="12" refX="16" refY="6" viewBox="0 0 16 12" orient="auto" markerUnits="userSpaceOnUse" stroke-dasharray="0,0"><path id="SvgjsPath1351" d="M0,2 L14,6 L0,11 L0,2" fill="#323232" stroke="#323232" stroke-width="2"></path></marker><marker id="SvgjsMarker1354" markerWidth="16" markerHeight="12" refX="16" refY="6" viewBox="0 0 16 12" orient="auto" markerUnits="userSpaceOnUse" stroke-dasharray="0,0"><path id="SvgjsPath1355" d="M0,2 L14,6 L0,11 L0,2" fill="#323232" stroke="#323232" stroke-width="2"></path></marker><marker id="SvgjsMarker1364" markerWidth="16" markerHeight="12" refX="16" refY="6" viewBox="0 0 16 12" orient="auto" markerUnits="userSpaceOnUse" stroke-dasharray="0,0"><path id="SvgjsPath1365" d="M0,2 L14,6 L0,11 L0,2" fill="#323232" stroke="#323232" stroke-width="2"></path></marker><marker id="SvgjsMarker1374" markerWidth="16" markerHeight="12" refX="16" refY="6" viewBox="0 0 16 12" orient="auto" markerUnits="userSpaceOnUse" stroke-dasharray="0,0"><path id="SvgjsPath1375" d="M0,2 L14,6 L0,11 L0,2" fill="#323232" stroke="#323232" stroke-width="2"></path></marker><marker id="SvgjsMarker1384" markerWidth="16" markerHeight="12" refX="16" refY="6" viewBox="0 0 16 12" orient="auto" markerUnits="userSpaceOnUse" stroke-dasharray="0,0"><path id="SvgjsPath1385" d="M0,2 L14,6 L0,11 L0,2" fill="#323232" stroke="#323232" stroke-width="2"></path></marker><pattern id="SvgjsPattern1388" x="0" y="0" width="324" height="153" patternUnits="userSpaceOnUse"><image id="SvgjsImage1389" xlink:href="https://iconsapi.com/5ee84ed1e4b01754b3cc9a8c.svg" width="324" height="153" preserveAspectRatio="none" crossOrigin="anonymous" x="0" y="0"></image></pattern><marker id="SvgjsMarker1392" markerWidth="16" markerHeight="12" refX="16" refY="6" viewBox="0 0 16 12" orient="auto" markerUnits="userSpaceOnUse" stroke-dasharray="0,0"><path id="SvgjsPath1393" d="M0,2 L14,6 L0,11 L0,2" fill="#323232" stroke="#323232" stroke-width="2"></path></marker></defs><g id="SvgjsG1326" transform="translate(95,25)"><path id="SvgjsPath1327" d="M 34.44 79.1C -28.700000000000003 56.5 11.48 39.55 25.83 33.9C 20.090000000000003 5.65 91.84 0 120.53999999999999 11.3C 143.5 -5.65 215.25 0 215.25 16.95C 272.65 11.3 295.61 33.9 272.65 62.150000000000006C 292.74 84.75 272.65 113 206.64 101.7C 192.29000000000002 116.39 134.89 116.39 120.53999999999999 101.7C 91.84 113 34.44 107.35 34.44 79.1Z" stroke="rgba(50,50,50,1)" stroke-width="2" fill-opacity="1" fill="#ffffff"></path><g id="SvgjsG1328"><text id="SvgjsText1329" font-family="&quot;Lucida Console&quot;" text-anchor="middle" font-size="18px" width="267px" fill="#323232" font-weight="400" align="middle" lineHeight="125%" anchor="middle" family="&quot;Lucida Console&quot;" size="18px" weight="400" font-style="" opacity="1" y="43.25" transform="rotate(0)"><tspan id="SvgjsTspan1330" dy="22" x="143.5"><tspan id="SvgjsTspan1331" style="text-decoration:;">web浏览器/第三方</tspan></tspan></text></g></g><g id="SvgjsG1332"><path id="SvgjsPath1333" d="M149.52999999999997 126.69999999999999L149.265 201" stroke="#323232" stroke-width="2" fill="none" marker-end="url(#SvgjsMarker1334)"></path></g><g id="SvgjsG1336" transform="translate(25,201)"><path id="SvgjsPath1337" d="M 0 4Q 0 0 4 0L 244.52999999999997 0Q 248.52999999999997 0 248.52999999999997 4L 248.52999999999997 61Q 248.52999999999997 65 244.52999999999997 65L 4 65Q 0 65 0 61Z" stroke="rgba(50,50,50,1)" stroke-width="2" fill-opacity="1" fill="#ffffff"></path><g id="SvgjsG1338"><text id="SvgjsText1339" font-family="楷体" text-anchor="middle" font-size="19px" width="229px" fill="#323232" font-weight="700" align="middle" lineHeight="125%" anchor="middle" family="楷体" size="19px" weight="700" font-style="" opacity="1" y="18.625" transform="rotate(0)"><tspan id="SvgjsTspan1340" dy="23" x="124.5"><tspan id="SvgjsTspan1341" style="text-decoration:;">表现层</tspan></tspan></text></g></g><g id="SvgjsG1342" transform="translate(30,360)"><path id="SvgjsPath1343" d="M 0 4Q 0 0 4 0L 426 0Q 430 0 430 4L 430 66Q 430 70 426 70L 4 70Q 0 70 0 66Z" stroke="rgba(50,50,50,1)" stroke-width="2" fill-opacity="1" fill="#ffffff"></path><g id="SvgjsG1344"><text id="SvgjsText1345" font-family="楷体" text-anchor="middle" font-size="19px" width="410px" fill="#323232" font-weight="700" align="middle" lineHeight="125%" anchor="middle" family="楷体" size="19px" weight="700" font-style="" opacity="1" y="21.125" transform="rotate(0)"><tspan id="SvgjsTspan1346" dy="23" x="215"><tspan id="SvgjsTspan1347" style="text-decoration:;">控制层/web服务层</tspan></tspan></text></g></g><g id="SvgjsG1348"><path id="SvgjsPath1349" d="M371.09400000000005 115.4C 455.4167299474449 186.1551715987623 311 296 245 360" stroke="#323232" stroke-width="2" fill="none" marker-end="url(#SvgjsMarker1350)"></path></g><g id="SvgjsG1352"><path id="SvgjsPath1353" d="M149.265 266C 149.265 319.66740571333776 245 306.33259428666224 245 360" stroke="#323232" stroke-width="2" fill="none" marker-end="url(#SvgjsMarker1354)"></path></g><g id="SvgjsG1356" transform="translate(30,507)"><path id="SvgjsPath1357" d="M 0 4Q 0 0 4 0L 426 0Q 430 0 430 4L 430 66Q 430 70 426 70L 4 70Q 0 70 0 66Z" stroke="rgba(50,50,50,1)" stroke-width="2" fill-opacity="1" fill="#ffffff"></path><g id="SvgjsG1358"><text id="SvgjsText1359" font-family="楷体" text-anchor="middle" font-size="19px" width="410px" fill="#323232" font-weight="700" align="middle" lineHeight="125%" anchor="middle" family="楷体" size="19px" weight="700" font-style="" opacity="1" y="21.125" transform="rotate(0)"><tspan id="SvgjsTspan1360" dy="23" x="215"><tspan id="SvgjsTspan1361" style="text-decoration:;">服务层</tspan></tspan></text></g></g><g id="SvgjsG1362"><path id="SvgjsPath1363" d="M245 430C 245 460.8 245 476.2 245 507" stroke="#323232" stroke-width="2" fill="none" marker-end="url(#SvgjsMarker1364)"></path></g><g id="SvgjsG1366" transform="translate(30,660)"><path id="SvgjsPath1367" d="M 0 4Q 0 0 4 0L 426 0Q 430 0 430 4L 430 66Q 430 70 426 70L 4 70Q 0 70 0 66Z" stroke="rgba(50,50,50,1)" stroke-width="2" fill-opacity="1" fill="#ffffff"></path><g id="SvgjsG1368"><text id="SvgjsText1369" font-family="楷体" text-anchor="middle" font-size="19px" width="410px" fill="#323232" font-weight="700" align="middle" lineHeight="125%" anchor="middle" family="楷体" size="19px" weight="700" font-style="" opacity="1" y="21.125" transform="rotate(0)"><tspan id="SvgjsTspan1370" dy="23" x="215"><tspan id="SvgjsTspan1371" style="text-decoration:;">业务层</tspan></tspan></text></g></g><g id="SvgjsG1372"><path id="SvgjsPath1373" d="M245 577C 245 610.2 245 626.8 245 660" stroke="#323232" stroke-width="2" fill="none" marker-end="url(#SvgjsMarker1374)"></path></g><g id="SvgjsG1376" transform="translate(30,800)"><path id="SvgjsPath1377" d="M 0 4Q 0 0 4 0L 426 0Q 430 0 430 4L 430 66Q 430 70 426 70L 4 70Q 0 70 0 66Z" stroke="rgba(50,50,50,1)" stroke-width="2" fill-opacity="1" fill="#ffffff"></path><g id="SvgjsG1378"><text id="SvgjsText1379" font-family="楷体" text-anchor="middle" font-size="19px" width="410px" fill="#323232" font-weight="700" align="middle" lineHeight="125%" anchor="middle" family="楷体" size="19px" weight="700" font-style="" opacity="1" y="21.125" transform="rotate(0)"><tspan id="SvgjsTspan1380" dy="23" x="215"><tspan id="SvgjsTspan1381" style="text-decoration:;">数据库访问层层</tspan></tspan></text></g></g><g id="SvgjsG1382"><path id="SvgjsPath1383" d="M245 730C 245 758 245 772 245 800" stroke="#323232" stroke-width="2" fill="none" marker-end="url(#SvgjsMarker1384)"></path></g><g id="SvgjsG1386" transform="translate(83,944.6666870117188)"><path id="SvgjsPath1387" d="M 0 0L 324 0L 324 153L 0 153Z" stroke="none" fill="url(#SvgjsPattern1388)"></path></g><g id="SvgjsG1390"><path id="SvgjsPath1391" d="M245 870L245 944.6666870117188" stroke="#323232" stroke-width="2" fill="none" marker-end="url(#SvgjsMarker1392)"></path></g></svg>