<svg id="SvgjsSvg1106" width="905" height="693.5" xmlns="http://www.w3.org/2000/svg" version="1.1" xmlns:xlink="http://www.w3.org/1999/xlink" xmlns:svgjs="http://svgjs.com/svgjs"><defs id="SvgjsDefs1107"><marker id="SvgjsMarker1148" markerWidth="16" markerHeight="12" refX="16" refY="6" viewBox="0 0 16 12" orient="auto" markerUnits="userSpaceOnUse" stroke-dasharray="0,0"><path id="SvgjsPath1149" d="M0,2 L14,6 L0,11 L0,2" fill="#323232" stroke="#323232" stroke-width="2"></path></marker><marker id="SvgjsMarker1158" markerWidth="16" markerHeight="12" refX="16" refY="6" viewBox="0 0 16 12" orient="auto" markerUnits="userSpaceOnUse" stroke-dasharray="0,0"><path id="SvgjsPath1159" d="M0,2 L14,6 L0,11 L0,2" fill="#323232" stroke="#323232" stroke-width="2"></path></marker><marker id="SvgjsMarker1162" markerWidth="16" markerHeight="12" refX="16" refY="6" viewBox="0 0 16 12" orient="auto" markerUnits="userSpaceOnUse" stroke-dasharray="0,0"><path id="SvgjsPath1163" d="M0,2 L14,6 L0,11 L0,2" fill="#323232" stroke="#323232" stroke-width="2"></path></marker><marker id="SvgjsMarker1166" markerWidth="16" markerHeight="12" refX="16" refY="6" viewBox="0 0 16 12" orient="auto" markerUnits="userSpaceOnUse" stroke-dasharray="0,0"><path id="SvgjsPath1167" d="M0,2 L14,6 L0,11 L0,2" fill="#323232" stroke="#323232" stroke-width="2"></path></marker><marker id="SvgjsMarker1170" markerWidth="16" markerHeight="12" refX="16" refY="6" viewBox="0 0 16 12" orient="auto" markerUnits="userSpaceOnUse" stroke-dasharray="0,0"><path id="SvgjsPath1171" d="M0,2 L14,6 L0,11 L0,2" fill="#323232" stroke="#323232" stroke-width="2"></path></marker><marker id="SvgjsMarker1174" markerWidth="16" markerHeight="12" refX="16" refY="6" viewBox="0 0 16 12" orient="auto" markerUnits="userSpaceOnUse" stroke-dasharray="0,0"><path id="SvgjsPath1175" d="M0,2 L14,6 L0,11 L0,2" fill="#323232" stroke="#323232" stroke-width="2"></path></marker><marker id="SvgjsMarker1184" markerWidth="16" markerHeight="12" refX="16" refY="6" viewBox="0 0 16 12" orient="auto" markerUnits="userSpaceOnUse" stroke-dasharray="0,0"><path id="SvgjsPath1185" d="M0,2 L14,6 L0,11 L0,2" fill="#323232" stroke="#323232" stroke-width="2"></path></marker><marker id="SvgjsMarker1206" markerWidth="16" markerHeight="12" refX="16" refY="6" viewBox="0 0 16 12" orient="auto" markerUnits="userSpaceOnUse" stroke-dasharray="0,0"><path id="SvgjsPath1207" d="M0,2 L14,6 L0,11 L0,2" fill="#323232" stroke="#323232" stroke-width="2"></path></marker><marker id="SvgjsMarker1210" markerWidth="16" markerHeight="12" refX="16" refY="6" viewBox="0 0 16 12" orient="auto" markerUnits="userSpaceOnUse" stroke-dasharray="0,0"><path id="SvgjsPath1211" d="M0,2 L14,6 L0,11 L0,2" fill="#323232" stroke="#323232" stroke-width="2"></path></marker><marker id="SvgjsMarker1214" markerWidth="16" markerHeight="12" refX="16" refY="6" viewBox="0 0 16 12" orient="auto" markerUnits="userSpaceOnUse" stroke-dasharray="0,0"><path id="SvgjsPath1215" d="M0,2 L14,6 L0,11 L0,2" fill="#323232" stroke="#323232" stroke-width="2"></path></marker><marker id="SvgjsMarker1218" markerWidth="16" markerHeight="12" refX="16" refY="6" viewBox="0 0 16 12" orient="auto" markerUnits="userSpaceOnUse" stroke-dasharray="0,0"><path id="SvgjsPath1219" d="M0,2 L14,6 L0,11 L0,2" fill="#323232" stroke="#323232" stroke-width="2"></path></marker><marker id="SvgjsMarker1222" markerWidth="16" markerHeight="12" refX="16" refY="6" viewBox="0 0 16 12" orient="auto" markerUnits="userSpaceOnUse" stroke-dasharray="0,0"><path id="SvgjsPath1223" d="M0,2 L14,6 L0,11 L0,2" fill="#323232" stroke="#323232" stroke-width="2"></path></marker><marker id="SvgjsMarker1226" markerWidth="16" markerHeight="12" refX="16" refY="6" viewBox="0 0 16 12" orient="auto" markerUnits="userSpaceOnUse" stroke-dasharray="0,0"><path id="SvgjsPath1227" d="M0,2 L14,6 L0,11 L0,2" fill="#323232" stroke="#323232" stroke-width="2"></path></marker><marker id="SvgjsMarker1230" markerWidth="16" markerHeight="12" refX="16" refY="6" viewBox="0 0 16 12" orient="auto" markerUnits="userSpaceOnUse" stroke-dasharray="0,0"><path id="SvgjsPath1231" d="M0,2 L14,6 L0,11 L0,2" fill="#323232" stroke="#323232" stroke-width="2"></path></marker><marker id="SvgjsMarker1234" markerWidth="16" markerHeight="12" refX="16" refY="6" viewBox="0 0 16 12" orient="auto" markerUnits="userSpaceOnUse" stroke-dasharray="0,0"><path id="SvgjsPath1235" d="M0,2 L14,6 L0,11 L0,2" fill="#323232" stroke="#323232" stroke-width="2"></path></marker></defs><g id="SvgjsG1108" transform="translate(381,32.4999885559082)"><path id="SvgjsPath1109" d="M 0 4Q 0 0 4 0L 96 0Q 100 0 100 4L 100 66Q 100 70 96 70L 4 70Q 0 70 0 66Z" stroke="rgba(50,50,50,1)" stroke-width="2" fill-opacity="1" fill="#f44336"></path><g id="SvgjsG1110"><text id="SvgjsText1111" font-family="&quot;Lucida Console&quot;" text-anchor="middle" font-size="13px" width="80px" fill="#323232" font-weight="400" align="middle" lineHeight="125%" anchor="middle" family="&quot;Lucida Console&quot;" size="13px" weight="400" font-style="" opacity="1" y="25.375" transform="rotate(0)"><tspan id="SvgjsTspan1112" dy="16" x="50"><tspan id="SvgjsTspan1113" style="text-decoration:;">Client</tspan></tspan></text></g></g><g id="SvgjsG1114" transform="translate(688,24.999988555908203)"><path id="SvgjsPath1115" d="M 0 4Q 0 0 4 0L 158 0Q 162 0 162 4L 162 81Q 162 85 158 85L 4 85Q 0 85 0 81Z" stroke="rgba(50,50,50,1)" stroke-width="2" fill-opacity="1" fill="#e0e0e0"></path><g id="SvgjsG1116"><text id="SvgjsText1117" font-family="&quot;Lucida Console&quot;" text-anchor="middle" font-size="13px" width="142px" fill="#323232" font-weight="400" align="middle" lineHeight="125%" anchor="middle" family="&quot;Lucida Console&quot;" size="13px" weight="400" font-style="" opacity="1" y="24.875" transform="rotate(0)"><tspan id="SvgjsTspan1118" dy="16" x="81"><tspan id="SvgjsTspan1119" style="text-decoration:;">AbstractFactory</tspan></tspan><tspan id="SvgjsTspan1120" dy="16" x="81"><tspan id="SvgjsTspan1121" style="text-decoration:;">(创建对象实例的方法)</tspan></tspan></text></g></g><g id="SvgjsG1122" transform="translate(25,292.9999885559082)"><path id="SvgjsPath1123" d="M 0 4Q 0 0 4 0L 96 0Q 100 0 100 4L 100 66Q 100 70 96 70L 4 70Q 0 70 0 66Z" stroke="rgba(50,50,50,1)" stroke-width="2" fill-opacity="1" fill="#2196f3"></path><g id="SvgjsG1124"><text id="SvgjsText1125" font-family="&quot;Lucida Console&quot;" text-anchor="middle" font-size="13px" width="80px" fill="#323232" font-weight="400" align="middle" lineHeight="125%" anchor="middle" family="&quot;Lucida Console&quot;" size="13px" weight="400" font-style="" opacity="1" y="25.375" transform="rotate(0)"><tspan id="SvgjsTspan1126" dy="16" x="50"><tspan id="SvgjsTspan1127" style="text-decoration:;">Product</tspan></tspan></text></g></g><g id="SvgjsG1128" transform="translate(188,167.4999885559082)"><path id="SvgjsPath1129" d="M 0 4Q 0 0 4 0L 110 0Q 114 0 114 4L 114 66Q 114 70 110 70L 4 70Q 0 70 0 66Z" stroke="rgba(50,50,50,1)" stroke-width="2" fill-opacity="1" fill="#2196f3"></path><g id="SvgjsG1130"><text id="SvgjsText1131" font-family="&quot;Lucida Console&quot;" text-anchor="middle" font-size="13px" width="94px" fill="#323232" font-weight="400" align="middle" lineHeight="125%" anchor="middle" family="&quot;Lucida Console&quot;" size="13px" weight="400" font-style="" opacity="1" y="25.375" transform="rotate(0)"><tspan id="SvgjsTspan1132" dy="16" x="57"><tspan id="SvgjsTspan1133" style="text-decoration:;">MobilePhone</tspan></tspan></text></g></g><g id="SvgjsG1134" transform="translate(188,292.9999885559082)"><path id="SvgjsPath1135" d="M 0 4Q 0 0 4 0L 110 0Q 114 0 114 4L 114 66Q 114 70 110 70L 4 70Q 0 70 0 66Z" stroke="rgba(50,50,50,1)" stroke-width="2" fill-opacity="1" fill="#2196f3"></path><g id="SvgjsG1136"><text id="SvgjsText1137" font-family="&quot;Lucida Console&quot;" text-anchor="middle" font-size="13px" width="94px" fill="#323232" font-weight="400" align="middle" lineHeight="125%" anchor="middle" family="&quot;Lucida Console&quot;" size="13px" weight="400" font-style="" opacity="1" y="25.375" transform="rotate(0)"><tspan id="SvgjsTspan1138" dy="16" x="57"><tspan id="SvgjsTspan1139" style="text-decoration:;">Computer</tspan></tspan></text></g></g><g id="SvgjsG1140" transform="translate(188,410.4999885559082)"><path id="SvgjsPath1141" d="M 0 4Q 0 0 4 0L 110 0Q 114 0 114 4L 114 66Q 114 70 110 70L 4 70Q 0 70 0 66Z" stroke="rgba(50,50,50,1)" stroke-width="2" fill-opacity="1" fill="#2196f3"></path><g id="SvgjsG1142"><text id="SvgjsText1143" font-family="&quot;Lucida Console&quot;" text-anchor="middle" font-size="13px" width="94px" fill="#323232" font-weight="400" align="middle" lineHeight="125%" anchor="middle" family="&quot;Lucida Console&quot;" size="13px" weight="400" font-style="" opacity="1" y="25.375" transform="rotate(0)"><tspan id="SvgjsTspan1144" dy="16" x="57"><tspan id="SvgjsTspan1145" style="text-decoration:;">Tablet</tspan></tspan></text></g></g><g id="SvgjsG1146"><path id="SvgjsPath1147" d="M381 67.4999885559082L75 67.4999885559082L75 292.9999885559082" stroke="#323232" stroke-width="2" fill="none" marker-end="url(#SvgjsMarker1148)"></path></g><g id="SvgjsG1150" transform="translate(160,553.4999885559082)"><path id="SvgjsPath1151" d="M 0 4Q 0 0 4 0L 174 0Q 178 0 178 4L 178 66Q 178 70 174 70L 4 70Q 0 70 0 66Z" stroke-dasharray="10,6" stroke="rgba(50,50,50,1)" stroke-width="2" fill-opacity="1" fill="#2196f3"></path><g id="SvgjsG1152"><text id="SvgjsText1153" font-family="&quot;Lucida Console&quot;" text-anchor="middle" font-size="13px" width="158px" fill="#323232" font-weight="400" align="middle" lineHeight="125%" anchor="middle" family="&quot;Lucida Console&quot;" size="13px" weight="400" font-style="" opacity="1" y="25.375" transform="rotate(0)"><tspan id="SvgjsTspan1154" dy="16" x="89"><tspan id="SvgjsTspan1155" style="text-decoration:;">CloudComputing</tspan></tspan></text></g></g><g id="SvgjsG1156"><path id="SvgjsPath1157" d="M481 67.4999885559082L584.5 67.4999885559082L584.5 67.4999885559082L688 67.4999885559082" stroke="#323232" stroke-width="2" fill="none" marker-end="url(#SvgjsMarker1158)"></path></g><g id="SvgjsG1160"><path id="SvgjsPath1161" d="M188 327.9999885559082L156.5 327.9999885559082L156.5 327.9999885559082L125 327.9999885559082" stroke="#323232" stroke-width="2" fill="none" marker-end="url(#SvgjsMarker1162)"></path></g><g id="SvgjsG1164"><path id="SvgjsPath1165" d="M188 202.4999885559082L156.5 202.4999885559082L156.5 327.9999885559082L125 327.9999885559082" stroke="#323232" stroke-width="2" fill="none" marker-end="url(#SvgjsMarker1166)"></path></g><g id="SvgjsG1168"><path id="SvgjsPath1169" d="M188 445.4999885559082L156.5 445.4999885559082L156.5 327.9999885559082L125 327.9999885559082" stroke="#323232" stroke-width="2" fill="none" marker-end="url(#SvgjsMarker1170)"></path></g><g id="SvgjsG1172"><path id="SvgjsPath1173" d="M160 588.4999885559082L145.5 588.4999885559082L145.5 327.9999885559082L125 327.9999885559082" stroke-dasharray="8,5" stroke="#323232" stroke-width="2" fill="none" marker-end="url(#SvgjsMarker1174)"></path></g><g id="SvgjsG1176" transform="translate(437,167.4999885559082)"><path id="SvgjsPath1177" d="M 0 4Q 0 0 4 0L 182 0Q 186 0 186 4L 186 66Q 186 70 182 70L 4 70Q 0 70 0 66Z" stroke="rgba(50,50,50,1)" stroke-width="2" fill-opacity="1" fill="#ffeb3b"></path><g id="SvgjsG1178"><text id="SvgjsText1179" font-family="&quot;Lucida Console&quot;" text-anchor="middle" font-size="13px" width="166px" fill="#323232" font-weight="400" align="middle" lineHeight="125%" anchor="middle" family="&quot;Lucida Console&quot;" size="13px" weight="400" font-style="" opacity="1" y="25.375" transform="rotate(0)"><tspan id="SvgjsTspan1180" dy="16" x="93"><tspan id="SvgjsTspan1181" style="text-decoration:;">MobilePhoneFactory</tspan></tspan></text></g></g><g id="SvgjsG1182"><path id="SvgjsPath1183" d="M623 202.4999885559082L769 202.4999885559082L769 109.9999885559082" stroke="#323232" stroke-width="2" fill="none" marker-end="url(#SvgjsMarker1184)"></path></g><g id="SvgjsG1186" transform="translate(434,292.9999885559082)"><path id="SvgjsPath1187" d="M 0 4Q 0 0 4 0L 182 0Q 186 0 186 4L 186 66Q 186 70 182 70L 4 70Q 0 70 0 66Z" stroke="rgba(50,50,50,1)" stroke-width="2" fill-opacity="1" fill="#ffeb3b"></path><g id="SvgjsG1188"><text id="SvgjsText1189" font-family="&quot;Lucida Console&quot;" text-anchor="middle" font-size="13px" width="166px" fill="#323232" font-weight="400" align="middle" lineHeight="125%" anchor="middle" family="&quot;Lucida Console&quot;" size="13px" weight="400" font-style="" opacity="1" y="25.375" transform="rotate(0)"><tspan id="SvgjsTspan1190" dy="16" x="93"><tspan id="SvgjsTspan1191" style="text-decoration:;">ComputerFactory</tspan></tspan></text></g></g><g id="SvgjsG1192" transform="translate(434,410.4999885559082)"><path id="SvgjsPath1193" d="M 0 4Q 0 0 4 0L 182 0Q 186 0 186 4L 186 66Q 186 70 182 70L 4 70Q 0 70 0 66Z" stroke="rgba(50,50,50,1)" stroke-width="2" fill-opacity="1" fill="#ffeb3b"></path><g id="SvgjsG1194"><text id="SvgjsText1195" font-family="&quot;Lucida Console&quot;" text-anchor="middle" font-size="13px" width="166px" fill="#323232" font-weight="400" align="middle" lineHeight="125%" anchor="middle" family="&quot;Lucida Console&quot;" size="13px" weight="400" font-style="" opacity="1" y="25.375" transform="rotate(0)"><tspan id="SvgjsTspan1196" dy="16" x="93"><tspan id="SvgjsTspan1197" style="text-decoration:;">TabletFactory</tspan></tspan></text></g></g><g id="SvgjsG1198" transform="translate(680,553.4999885559082)"><path id="SvgjsPath1199" d="M 0 4Q 0 0 4 0L 174 0Q 178 0 178 4L 178 66Q 178 70 174 70L 4 70Q 0 70 0 66Z" stroke-dasharray="10,6" stroke="rgba(50,50,50,1)" stroke-width="2" fill-opacity="1" fill="#ffeb3b"></path><g id="SvgjsG1200"><text id="SvgjsText1201" font-family="&quot;Lucida Console&quot;" text-anchor="middle" font-size="13px" width="158px" fill="#323232" font-weight="400" align="middle" lineHeight="125%" anchor="middle" family="&quot;Lucida Console&quot;" size="13px" weight="400" font-style="" opacity="1" y="25.375" transform="rotate(0)"><tspan id="SvgjsTspan1202" dy="16" x="89"><tspan id="SvgjsTspan1203" style="text-decoration:;">CloudComputing</tspan></tspan></text></g></g><g id="SvgjsG1204"><path id="SvgjsPath1205" d="M620 327.9999885559082L769 327.9999885559082L769 109.9999885559082" stroke="#323232" stroke-width="2" fill="none" marker-end="url(#SvgjsMarker1206)"></path></g><g id="SvgjsG1208"><path id="SvgjsPath1209" d="M620 445.4999885559082L769 445.4999885559082L769 109.9999885559082" stroke="#323232" stroke-width="2" fill="none" marker-end="url(#SvgjsMarker1210)"></path></g><g id="SvgjsG1212"><path id="SvgjsPath1213" d="M769 553.4999885559082L769 331.7499885559082L769 331.7499885559082L769 109.9999885559082" stroke-dasharray="8,5" stroke="#323232" stroke-width="2" fill="none" marker-end="url(#SvgjsMarker1214)"></path></g><g id="SvgjsG1216"><path id="SvgjsPath1217" d="M434 445.4999885559082L368 445.4999885559082L368 445.4999885559082L302 445.4999885559082" stroke="#323232" stroke-width="2" fill="none" marker-end="url(#SvgjsMarker1218)"></path></g><g id="SvgjsG1220"><path id="SvgjsPath1221" d="M434 327.9999885559082L368 327.9999885559082L368 327.9999885559082L302 327.9999885559082" stroke="#323232" stroke-width="2" fill="none" marker-end="url(#SvgjsMarker1222)"></path></g><g id="SvgjsG1224"><path id="SvgjsPath1225" d="M437 202.4999885559082L369.5 202.4999885559082L369.5 202.4999885559082L302 202.4999885559082" stroke="#323232" stroke-width="2" fill="none" marker-end="url(#SvgjsMarker1226)"></path></g><g id="SvgjsG1228"><path id="SvgjsPath1229" d="M680 588.4999885559082L509 588.4999885559082L509 588.4999885559082L338 588.4999885559082" stroke="#323232" stroke-width="2" fill="none" marker-end="url(#SvgjsMarker1230)"></path></g><g id="SvgjsG1232"><path id="SvgjsPath1233" d="M850 67.4999885559082L880 67.4999885559082L880 667.9999885559082L75 667.9999885559082L75 362.9999885559082" stroke="#323232" stroke-width="2" fill="none" marker-end="url(#SvgjsMarker1234)"></path></g></svg>