<svg id="SvgjsSvg1006" width="900" height="521" xmlns="http://www.w3.org/2000/svg" version="1.1" xmlns:xlink="http://www.w3.org/1999/xlink" xmlns:svgjs="http://svgjs.com/svgjs"><defs id="SvgjsDefs1007"><marker id="SvgjsMarker1024" markerWidth="16" markerHeight="12" refX="16" refY="6" viewBox="0 0 16 12" orient="auto" markerUnits="userSpaceOnUse" stroke-dasharray="0,0"><path id="SvgjsPath1025" d="M0,2 L14,6 L0,11 L0,2" fill="#323232" stroke="#323232" stroke-width="2"></path></marker><marker id="SvgjsMarker1034" markerWidth="16" markerHeight="12" refX="16" refY="6" viewBox="0 0 16 12" orient="auto" markerUnits="userSpaceOnUse" stroke-dasharray="0,0"><path id="SvgjsPath1035" d="M0,2 L14,6 L0,11 L0,2" fill="#323232" stroke="#323232" stroke-width="2"></path></marker><marker id="SvgjsMarker1056" markerWidth="16" markerHeight="12" refX="16" refY="6" viewBox="0 0 16 12" orient="auto" markerUnits="userSpaceOnUse" stroke-dasharray="0,0"><path id="SvgjsPath1057" d="M0,2 L14,6 L0,11 L0,2" fill="#323232" stroke="#323232" stroke-width="2"></path></marker><marker id="SvgjsMarker1060" markerWidth="16" markerHeight="12" refX="16" refY="6" viewBox="0 0 16 12" orient="auto" markerUnits="userSpaceOnUse" stroke-dasharray="0,0"><path id="SvgjsPath1061" d="M0,2 L14,6 L0,11 L0,2" fill="#323232" stroke="#323232" stroke-width="2"></path></marker><marker id="SvgjsMarker1064" markerWidth="16" markerHeight="12" refX="16" refY="6" viewBox="0 0 16 12" orient="auto" markerUnits="userSpaceOnUse" stroke-dasharray="0,0"><path id="SvgjsPath1065" d="M0,2 L14,6 L0,11 L0,2" fill="#323232" stroke="#323232" stroke-width="2"></path></marker><marker id="SvgjsMarker1068" markerWidth="16" markerHeight="12" refX="16" refY="6" viewBox="0 0 16 12" orient="auto" markerUnits="userSpaceOnUse" stroke-dasharray="0,0"><path id="SvgjsPath1069" d="M0,2 L14,6 L0,11 L0,2" fill="#323232" stroke="#323232" stroke-width="2"></path></marker><marker id="SvgjsMarker1072" markerWidth="16" markerHeight="12" refX="16" refY="6" viewBox="0 0 16 12" orient="auto" markerUnits="userSpaceOnUse" stroke-dasharray="0,0"><path id="SvgjsPath1073" d="M0,2 L14,6 L0,11 L0,2" fill="#323232" stroke="#323232" stroke-width="2"></path></marker><marker id="SvgjsMarker1076" markerWidth="16" markerHeight="12" refX="16" refY="6" viewBox="0 0 16 12" orient="auto" markerUnits="userSpaceOnUse" stroke-dasharray="0,0"><path id="SvgjsPath1077" d="M0,2 L14,6 L0,11 L0,2" fill="#323232" stroke="#323232" stroke-width="2"></path></marker><marker id="SvgjsMarker1080" markerWidth="16" markerHeight="12" refX="16" refY="6" viewBox="0 0 16 12" orient="auto" markerUnits="userSpaceOnUse" stroke-dasharray="0,0"><path id="SvgjsPath1081" d="M0,2 L14,6 L0,11 L0,2" fill="#323232" stroke="#323232" stroke-width="2"></path></marker></defs><g id="SvgjsG1008" transform="translate(474,25)"><path id="SvgjsPath1009" d="M 0 4Q 0 0 4 0L 96 0Q 100 0 100 4L 100 66Q 100 70 96 70L 4 70Q 0 70 0 66Z" stroke="rgba(50,50,50,1)" stroke-width="2" fill-opacity="1" fill="#f44336"></path><g id="SvgjsG1010"><text id="SvgjsText1011" font-family="&quot;Lucida Console&quot;" text-anchor="middle" font-size="13px" width="80px" fill="#323232" font-weight="400" align="middle" lineHeight="125%" anchor="middle" family="&quot;Lucida Console&quot;" size="13px" weight="400" font-style="" opacity="1" y="25.375" transform="rotate(0)"><tspan id="SvgjsTspan1012" dy="16" x="50"><tspan id="SvgjsTspan1013" style="text-decoration:;">Client</tspan></tspan></text></g></g><g id="SvgjsG1014" transform="translate(713,203)"><path id="SvgjsPath1015" d="M 0 4Q 0 0 4 0L 158 0Q 162 0 162 4L 162 81Q 162 85 158 85L 4 85Q 0 85 0 81Z" stroke="rgba(50,50,50,1)" stroke-width="2" fill-opacity="1" fill="#e0e0e0"></path><g id="SvgjsG1016"><text id="SvgjsText1017" font-family="&quot;Lucida Console&quot;" text-anchor="middle" font-size="13px" width="142px" fill="#323232" font-weight="400" align="middle" lineHeight="125%" anchor="middle" family="&quot;Lucida Console&quot;" size="13px" weight="400" font-style="" opacity="1" y="24.875" transform="rotate(0)"><tspan id="SvgjsTspan1018" dy="16" x="81"><tspan id="SvgjsTspan1019" style="text-decoration:;">SimpleFactory</tspan></tspan><tspan id="SvgjsTspan1020" dy="16" x="81"><tspan id="SvgjsTspan1021" style="text-decoration:;">(创建对象实例的方法)</tspan></tspan></text></g></g><g id="SvgjsG1022"><path id="SvgjsPath1023" d="M574 60L794 60L794 203" stroke="#323232" stroke-width="2" fill="none" marker-end="url(#SvgjsMarker1024)"></path></g><g id="SvgjsG1026" transform="translate(196,210.5)"><path id="SvgjsPath1027" d="M 0 4Q 0 0 4 0L 96 0Q 100 0 100 4L 100 66Q 100 70 96 70L 4 70Q 0 70 0 66Z" stroke="rgba(50,50,50,1)" stroke-width="2" fill-opacity="1" fill="#2196f3"></path><g id="SvgjsG1028"><text id="SvgjsText1029" font-family="&quot;Lucida Console&quot;" text-anchor="middle" font-size="13px" width="80px" fill="#323232" font-weight="400" align="middle" lineHeight="125%" anchor="middle" family="&quot;Lucida Console&quot;" size="13px" weight="400" font-style="" opacity="1" y="25.375" transform="rotate(0)"><tspan id="SvgjsTspan1030" dy="16" x="50"><tspan id="SvgjsTspan1031" style="text-decoration:;">Product</tspan></tspan></text></g></g><g id="SvgjsG1032"><path id="SvgjsPath1033" d="M713 245.5L504.5 245.5L504.5 245.5L296 245.5" stroke="#323232" stroke-width="2" fill="none" marker-end="url(#SvgjsMarker1034)"></path></g><g id="SvgjsG1036" transform="translate(189,391)"><path id="SvgjsPath1037" d="M 0 4Q 0 0 4 0L 110 0Q 114 0 114 4L 114 66Q 114 70 110 70L 4 70Q 0 70 0 66Z" stroke="rgba(50,50,50,1)" stroke-width="2" fill-opacity="1" fill="#2196f3"></path><g id="SvgjsG1038"><text id="SvgjsText1039" font-family="&quot;Lucida Console&quot;" text-anchor="middle" font-size="13px" width="94px" fill="#323232" font-weight="400" align="middle" lineHeight="125%" anchor="middle" family="&quot;Lucida Console&quot;" size="13px" weight="400" font-style="" opacity="1" y="25.375" transform="rotate(0)"><tspan id="SvgjsTspan1040" dy="16" x="57"><tspan id="SvgjsTspan1041" style="text-decoration:;">MobilePhone</tspan></tspan></text></g></g><g id="SvgjsG1042" transform="translate(25,391)"><path id="SvgjsPath1043" d="M 0 4Q 0 0 4 0L 110 0Q 114 0 114 4L 114 66Q 114 70 110 70L 4 70Q 0 70 0 66Z" stroke="rgba(50,50,50,1)" stroke-width="2" fill-opacity="1" fill="#2196f3"></path><g id="SvgjsG1044"><text id="SvgjsText1045" font-family="&quot;Lucida Console&quot;" text-anchor="middle" font-size="13px" width="94px" fill="#323232" font-weight="400" align="middle" lineHeight="125%" anchor="middle" family="&quot;Lucida Console&quot;" size="13px" weight="400" font-style="" opacity="1" y="25.375" transform="rotate(0)"><tspan id="SvgjsTspan1046" dy="16" x="57"><tspan id="SvgjsTspan1047" style="text-decoration:;">Computer</tspan></tspan></text></g></g><g id="SvgjsG1048" transform="translate(360,391)"><path id="SvgjsPath1049" d="M 0 4Q 0 0 4 0L 110 0Q 114 0 114 4L 114 66Q 114 70 110 70L 4 70Q 0 70 0 66Z" stroke="rgba(50,50,50,1)" stroke-width="2" fill-opacity="1" fill="#2196f3"></path><g id="SvgjsG1050"><text id="SvgjsText1051" font-family="&quot;Lucida Console&quot;" text-anchor="middle" font-size="13px" width="94px" fill="#323232" font-weight="400" align="middle" lineHeight="125%" anchor="middle" family="&quot;Lucida Console&quot;" size="13px" weight="400" font-style="" opacity="1" y="25.375" transform="rotate(0)"><tspan id="SvgjsTspan1052" dy="16" x="57"><tspan id="SvgjsTspan1053" style="text-decoration:;">Tablet</tspan></tspan></text></g></g><g id="SvgjsG1054"><path id="SvgjsPath1055" d="M246 391L246 335.75L246 335.75L246 280.5" stroke="#323232" stroke-width="2" fill="none" marker-end="url(#SvgjsMarker1056)"></path></g><g id="SvgjsG1058"><path id="SvgjsPath1059" d="M82 391L82 335.75L246 335.75L246 280.5" stroke="#323232" stroke-width="2" fill="none" marker-end="url(#SvgjsMarker1060)"></path></g><g id="SvgjsG1062"><path id="SvgjsPath1063" d="M417 391L417 335.75L246 335.75L246 280.5" stroke="#323232" stroke-width="2" fill="none" marker-end="url(#SvgjsMarker1064)"></path></g><g id="SvgjsG1066"><path id="SvgjsPath1067" d="M794 288L794 491L82 491L82 461" stroke="#323232" stroke-width="2" fill="none" marker-end="url(#SvgjsMarker1068)"></path></g><g id="SvgjsG1070"><path id="SvgjsPath1071" d="M794 288L794 491L246 491L246 461" stroke="#323232" stroke-width="2" fill="none" marker-end="url(#SvgjsMarker1072)"></path></g><g id="SvgjsG1074"><path id="SvgjsPath1075" d="M794 288L794 491L417 491L417 461" stroke="#323232" stroke-width="2" fill="none" marker-end="url(#SvgjsMarker1076)"></path></g><g id="SvgjsG1078"><path id="SvgjsPath1079" d="M474 60L246 60L246 210.5" stroke="#323232" stroke-width="2" fill="none" marker-end="url(#SvgjsMarker1080)"></path></g><g id="SvgjsG1082" transform="translate(612,28)"><path id="SvgjsPath1083" d="M 0 0L 162 0L 162 38L 0 38Z" stroke="none" fill="none"></path><g id="SvgjsG1084"><text id="SvgjsText1085" font-family="楷体" text-anchor="middle" font-size="16px" width="162px" fill="#ff00ff" font-weight="400" align="middle" lineHeight="125%" anchor="middle" family="楷体" size="16px" weight="400" font-style="" opacity="1" y="7" transform="rotate(0)"><tspan id="SvgjsTspan1086" dy="20" x="81"><tspan id="SvgjsTspan1087" style="text-decoration:;">1.请求一个对象实例</tspan></tspan></text></g></g><g id="SvgjsG1088" transform="translate(557,455)"><path id="SvgjsPath1089" d="M 0 0L 228 0L 228 41L 0 41Z" stroke="none" fill="none"></path><g id="SvgjsG1090"><text id="SvgjsText1091" font-family="楷体" text-anchor="middle" font-size="16px" width="228px" fill="#ff00ff" font-weight="400" align="middle" lineHeight="125%" anchor="middle" family="楷体" size="16px" weight="400" font-style="" opacity="1" y="8.5" transform="rotate(0)"><tspan id="SvgjsTspan1092" dy="20" x="114"><tspan id="SvgjsTspan1093" style="text-decoration:;">2.调用方法创建合适的对象实例</tspan></tspan></text></g></g><g id="SvgjsG1094" transform="translate(413,203)"><path id="SvgjsPath1095" d="M 0 0L 228 0L 228 41L 0 41Z" stroke="none" fill="none"></path><g id="SvgjsG1096"><text id="SvgjsText1097" font-family="楷体" text-anchor="middle" font-size="16px" width="228px" fill="#ff00ff" font-weight="400" align="middle" lineHeight="125%" anchor="middle" family="楷体" size="16px" weight="400" font-style="" opacity="1" y="8.5" transform="rotate(0)"><tspan id="SvgjsTspan1098" dy="20" x="114"><tspan id="SvgjsTspan1099" style="text-decoration:;">3.给客户返回合适的对象实例</tspan></tspan></text></g></g><g id="SvgjsG1100" transform="translate(265,26.5)"><path id="SvgjsPath1101" d="M 0 0L 228 0L 228 41L 0 41Z" stroke="none" fill="none"></path><g id="SvgjsG1102"><text id="SvgjsText1103" font-family="楷体" text-anchor="middle" font-size="16px" width="228px" fill="#ff00ff" font-weight="400" align="middle" lineHeight="125%" anchor="middle" family="楷体" size="16px" weight="400" font-style="" opacity="1" y="8.5" transform="rotate(0)"><tspan id="SvgjsTspan1104" dy="20" x="114"><tspan id="SvgjsTspan1105" style="text-decoration:;">4.客户使用合适对象</tspan></tspan></text></g></g></svg>