<svg id="SvgjsSvg1236" width="884.5" height="369" xmlns="http://www.w3.org/2000/svg" version="1.1" xmlns:xlink="http://www.w3.org/1999/xlink" xmlns:svgjs="http://svgjs.com/svgjs"><defs id="SvgjsDefs1237"><marker id="SvgjsMarker1290" markerWidth="16" markerHeight="12" refX="16" refY="6" viewBox="0 0 16 12" orient="auto" markerUnits="userSpaceOnUse" stroke-dasharray="0,0"><path id="SvgjsPath1291" d="M0,2 L14,6 L0,11 L0,2" fill="#323232" stroke="#323232" stroke-width="2"></path></marker><marker id="SvgjsMarker1294" markerWidth="16" markerHeight="12" refX="16" refY="6" viewBox="0 0 16 12" orient="auto" markerUnits="userSpaceOnUse" stroke-dasharray="0,0"><path id="SvgjsPath1295" d="M0,2 L14,6 L0,11 L0,2" fill="#323232" stroke="#323232" stroke-width="2"></path></marker><marker id="SvgjsMarker1298" markerWidth="16" markerHeight="12" refX="16" refY="6" viewBox="0 0 16 12" orient="auto" markerUnits="userSpaceOnUse" stroke-dasharray="0,0"><path id="SvgjsPath1299" d="M0,2 L14,6 L0,11 L0,2" fill="#323232" stroke="#323232" stroke-width="2"></path></marker><marker id="SvgjsMarker1302" markerWidth="16" markerHeight="12" refX="16" refY="6" viewBox="0 0 16 12" orient="auto" markerUnits="userSpaceOnUse" stroke-dasharray="0,0"><path id="SvgjsPath1303" d="M0,2 L14,6 L0,11 L0,2" fill="#323232" stroke="#323232" stroke-width="2"></path></marker><marker id="SvgjsMarker1306" markerWidth="16" markerHeight="12" refX="16" refY="6" viewBox="0 0 16 12" orient="auto" markerUnits="userSpaceOnUse" stroke-dasharray="0,0"><path id="SvgjsPath1307" d="M0,2 L14,6 L0,11 L0,2" fill="#323232" stroke="#323232" stroke-width="2"></path></marker><marker id="SvgjsMarker1310" markerWidth="16" markerHeight="12" refX="16" refY="6" viewBox="0 0 16 12" orient="auto" markerUnits="userSpaceOnUse" stroke-dasharray="0,0"><path id="SvgjsPath1311" d="M0,2 L14,6 L0,11 L0,2" fill="#323232" stroke="#323232" stroke-width="2"></path></marker><marker id="SvgjsMarker1314" markerWidth="16" markerHeight="12" refX="16" refY="6" viewBox="0 0 16 12" orient="auto" markerUnits="userSpaceOnUse" stroke-dasharray="0,0"><path id="SvgjsPath1315" d="M0,2 L14,6 L0,11 L0,2" fill="#323232" stroke="#323232" stroke-width="2"></path></marker><marker id="SvgjsMarker1318" markerWidth="16" markerHeight="12" refX="16" refY="6" viewBox="0 0 16 12" orient="auto" markerUnits="userSpaceOnUse" stroke-dasharray="0,0"><path id="SvgjsPath1319" d="M0,2 L14,6 L0,11 L0,2" fill="#323232" stroke="#323232" stroke-width="2"></path></marker><marker id="SvgjsMarker1322" markerWidth="16" markerHeight="12" refX="16" refY="6" viewBox="0 0 16 12" orient="auto" markerUnits="userSpaceOnUse" stroke-dasharray="0,0"><path id="SvgjsPath1323" d="M0,2 L14,6 L0,11 L0,2" fill="#323232" stroke="#323232" stroke-width="2"></path></marker></defs><g id="SvgjsG1238" transform="translate(25,149.25)"><path id="SvgjsPath1239" d="M 0 4Q 0 0 4 0L 109 0Q 113 0 113 4L 113 66Q 113 70 109 70L 4 70Q 0 70 0 66Z" stroke="rgba(50,50,50,1)" stroke-width="2" fill-opacity="1" fill="#ffffff"></path><g id="SvgjsG1240"><text id="SvgjsText1241" font-family="&quot;Lucida Console&quot;" text-anchor="middle" font-size="13px" width="93px" fill="#323232" font-weight="400" align="middle" lineHeight="125%" anchor="middle" family="&quot;Lucida Console&quot;" size="13px" weight="400" font-style="" opacity="1" y="17.375" transform="rotate(0)"><tspan id="SvgjsTspan1242" dy="16" x="56.5"><tspan id="SvgjsTspan1243" style="text-decoration:;">Product</tspan></tspan><tspan id="SvgjsTspan1244" dy="16" x="56.5"><tspan id="SvgjsTspan1245" style="text-decoration:;">&lt;interface&gt;</tspan></tspan></text></g></g><g id="SvgjsG1246" transform="translate(686.5,148.75)"><path id="SvgjsPath1247" d="M 0 4Q 0 0 4 0L 169 0Q 173 0 173 4L 173 67Q 173 71 169 71L 4 71Q 0 71 0 67Z" stroke="rgba(50,50,50,1)" stroke-width="2" fill-opacity="1" fill="#ffffff"></path><g id="SvgjsG1248"><text id="SvgjsText1249" font-family="&quot;Lucida Console&quot;" text-anchor="middle" font-size="13px" width="153px" fill="#323232" font-weight="400" align="middle" lineHeight="125%" anchor="middle" family="&quot;Lucida Console&quot;" size="13px" weight="400" font-style="" opacity="1" y="25.875" transform="rotate(0)"><tspan id="SvgjsTspan1250" dy="16" x="86.5"><tspan id="SvgjsTspan1251" style="text-decoration:;">AbstractFactory</tspan></tspan></text></g></g><g id="SvgjsG1252" transform="translate(240.5,25)"><path id="SvgjsPath1253" d="M 0 4Q 0 0 4 0L 106 0Q 110 0 110 4L 110 66.5Q 110 70.5 106 70.5L 4 70.5Q 0 70.5 0 66.5Z" stroke="rgba(50,50,50,1)" stroke-width="2" fill-opacity="1" fill="#ffffff"></path><g id="SvgjsG1254"><text id="SvgjsText1255" font-family="&quot;Lucida Console&quot;" text-anchor="middle" font-size="13px" width="90px" fill="#323232" font-weight="400" align="middle" lineHeight="125%" anchor="middle" family="&quot;Lucida Console&quot;" size="13px" weight="400" font-style="" opacity="1" y="25.625" transform="rotate(0)"><tspan id="SvgjsTspan1256" dy="16" x="55"><tspan id="SvgjsTspan1257" style="text-decoration:;">MobilePhone</tspan></tspan></text></g></g><g id="SvgjsG1258" transform="translate(240.5,149)"><path id="SvgjsPath1259" d="M 0 4Q 0 0 4 0L 106 0Q 110 0 110 4L 110 66.5Q 110 70.5 106 70.5L 4 70.5Q 0 70.5 0 66.5Z" stroke="rgba(50,50,50,1)" stroke-width="2" fill-opacity="1" fill="#ffffff"></path><g id="SvgjsG1260"><text id="SvgjsText1261" font-family="&quot;Lucida Console&quot;" text-anchor="middle" font-size="13px" width="90px" fill="#323232" font-weight="400" align="middle" lineHeight="125%" anchor="middle" family="&quot;Lucida Console&quot;" size="13px" weight="400" font-style="" opacity="1" y="25.625" transform="rotate(0)"><tspan id="SvgjsTspan1262" dy="16" x="55"><tspan id="SvgjsTspan1263" style="text-decoration:;">Tablet</tspan></tspan></text></g></g><g id="SvgjsG1264" transform="translate(240.5,273)"><path id="SvgjsPath1265" d="M 0 4Q 0 0 4 0L 106 0Q 110 0 110 4L 110 66.5Q 110 70.5 106 70.5L 4 70.5Q 0 70.5 0 66.5Z" stroke="rgba(50,50,50,1)" stroke-width="2" fill-opacity="1" fill="#ffffff"></path><g id="SvgjsG1266"><text id="SvgjsText1267" font-family="&quot;Lucida Console&quot;" text-anchor="middle" font-size="13px" width="90px" fill="#323232" font-weight="400" align="middle" lineHeight="125%" anchor="middle" family="&quot;Lucida Console&quot;" size="13px" weight="400" font-style="" opacity="1" y="25.625" transform="rotate(0)"><tspan id="SvgjsTspan1268" dy="16" x="55"><tspan id="SvgjsTspan1269" style="text-decoration:;">Computer</tspan></tspan></text></g></g><g id="SvgjsG1270" transform="translate(439.5,28)"><path id="SvgjsPath1271" d="M 0 4Q 0 0 4 0L 176 0Q 180 0 180 4L 180 60.5Q 180 64.5 176 64.5L 4 64.5Q 0 64.5 0 60.5Z" stroke="rgba(50,50,50,1)" stroke-width="2" fill-opacity="1" fill="#ffffff"></path><g id="SvgjsG1272"><text id="SvgjsText1273" font-family="&quot;Lucida Console&quot;" text-anchor="middle" font-size="13px" width="160px" fill="#323232" font-weight="400" align="middle" lineHeight="125%" anchor="middle" family="&quot;Lucida Console&quot;" size="13px" weight="400" font-style="" opacity="1" y="22.625" transform="rotate(0)"><tspan id="SvgjsTspan1274" dy="16" x="90"><tspan id="SvgjsTspan1275" style="text-decoration:;">MobilePhoneFactory</tspan></tspan></text></g></g><g id="SvgjsG1276" transform="translate(443.5,152)"><path id="SvgjsPath1277" d="M 0 4Q 0 0 4 0L 176 0Q 180 0 180 4L 180 60.5Q 180 64.5 176 64.5L 4 64.5Q 0 64.5 0 60.5Z" stroke="rgba(50,50,50,1)" stroke-width="2" fill-opacity="1" fill="#ffffff"></path><g id="SvgjsG1278"><text id="SvgjsText1279" font-family="&quot;Lucida Console&quot;" text-anchor="middle" font-size="13px" width="160px" fill="#323232" font-weight="400" align="middle" lineHeight="125%" anchor="middle" family="&quot;Lucida Console&quot;" size="13px" weight="400" font-style="" opacity="1" y="22.625" transform="rotate(0)"><tspan id="SvgjsTspan1280" dy="16" x="90"><tspan id="SvgjsTspan1281" style="text-decoration:;">TabletFactory</tspan></tspan></text></g></g><g id="SvgjsG1282" transform="translate(439.5,276)"><path id="SvgjsPath1283" d="M 0 4Q 0 0 4 0L 176 0Q 180 0 180 4L 180 60.5Q 180 64.5 176 64.5L 4 64.5Q 0 64.5 0 60.5Z" stroke="rgba(50,50,50,1)" stroke-width="2" fill-opacity="1" fill="#ffffff"></path><g id="SvgjsG1284"><text id="SvgjsText1285" font-family="&quot;Lucida Console&quot;" text-anchor="middle" font-size="13px" width="160px" fill="#323232" font-weight="400" align="middle" lineHeight="125%" anchor="middle" family="&quot;Lucida Console&quot;" size="13px" weight="400" font-style="" opacity="1" y="22.625" transform="rotate(0)"><tspan id="SvgjsTspan1286" dy="16" x="90"><tspan id="SvgjsTspan1287" style="text-decoration:;">ComputerFactory</tspan></tspan></text></g></g><g id="SvgjsG1288"><path id="SvgjsPath1289" d="M623.5 184.25L655 184.25L655 184.25L686.5 184.25" stroke="#323232" stroke-width="2" fill="none" marker-end="url(#SvgjsMarker1290)"></path></g><g id="SvgjsG1292"><path id="SvgjsPath1293" d="M619.5 60.25L653 60.25L653 184.25L686.5 184.25" stroke="#323232" stroke-width="2" fill="none" marker-end="url(#SvgjsMarker1294)"></path></g><g id="SvgjsG1296"><path id="SvgjsPath1297" d="M619.5 308.25L653 308.25L653 184.25L686.5 184.25" stroke="#323232" stroke-width="2" fill="none" marker-end="url(#SvgjsMarker1298)"></path></g><g id="SvgjsG1300"><path id="SvgjsPath1301" d="M439.5 308.25L395 308.25L395 308.25L350.5 308.25" stroke="#323232" stroke-width="2" fill="none" marker-end="url(#SvgjsMarker1302)"></path></g><g id="SvgjsG1304"><path id="SvgjsPath1305" d="M443.5 184.25L397 184.25L397 184.25L350.5 184.25" stroke="#323232" stroke-width="2" fill="none" marker-end="url(#SvgjsMarker1306)"></path></g><g id="SvgjsG1308"><path id="SvgjsPath1309" d="M439.5 60.25L395 60.25L395 60.25L350.5 60.25" stroke="#323232" stroke-width="2" fill="none" marker-end="url(#SvgjsMarker1310)"></path></g><g id="SvgjsG1312"><path id="SvgjsPath1313" d="M240.5 60.25L189.25 60.25L189.25 184.25L138 184.25" stroke="#323232" stroke-width="2" fill="none" marker-end="url(#SvgjsMarker1314)"></path></g><g id="SvgjsG1316"><path id="SvgjsPath1317" d="M240.5 184.25L189.25 184.25L189.25 184.25L138 184.25" stroke="#323232" stroke-width="2" fill="none" marker-end="url(#SvgjsMarker1318)"></path></g><g id="SvgjsG1320"><path id="SvgjsPath1321" d="M240.5 308.25L189.25 308.25L189.25 184.25L138 184.25" stroke="#323232" stroke-width="2" fill="none" marker-end="url(#SvgjsMarker1322)"></path></g></svg>